<svg xmlns="http://www.w3.org/2000/svg" width="307.347" height="179.848" viewBox="0 0 307.347 179.848">
  <g id="automobiles" transform="translate(-2202.012 -1387)">
    <path id="Path_27" data-name="Path 27" d="M2458.95,1483.688c-.712-2.29-1.22-4.262-1.933-6.157-4.113-10.944-11.824-18.122-22.95-21.6-5.213-1.632-6.08-2.591-5.294-7.813,1.839-12.208-1.9-21.7-13.488-27.875,2.539-2.82,5.136-5.356,7.275-8.232,1.025-1.378,1.958-3.654,1.5-5.053-.389-1.185-2.773-2.2-4.391-2.42-15.456-2.065-30.934-3.962-46.412-5.857-3.035-.372-6.094-.621-9.148-.712a2.983,2.983,0,0,0-2.378,1.193c-4.192,9.821-8.252,19.7-12.641,30.284l33.04-2.348c-4.849,10.2-3.6,21-5.41,31.876-2.721.357-6,.8-9.289,1.216a76.3,76.3,0,0,0-32.886,12.4,20.582,20.582,0,0,0-9.049,13.313c-.188.885-.474,1.749-.911,3.337-5.1,0-10.29.073-15.473-.1-.579-.02-1.528-1.418-1.6-2.239-1.433-16.151-12.446-28.61-28.335-31.913-19.747-4.1-39.757,10.941-41.267,31.033-.143,1.911-.256,3.825-.406,6.086-8.224-.668-16.46,1.63-24.292-2.9-10.1-5.84-13.616-14.379-9.533-25.288a3.259,3.259,0,0,1,2.05-1.641,24.959,24.959,0,0,1,5.445-.74c11.765-.214,20.3-7.778,29.808-13.1a3.435,3.435,0,0,0,1.261-3.056,3.874,3.874,0,0,0-2.694-2.3,21.072,21.072,0,0,0-6.618.689c-8.355,2.2-16.662,4.575-25.885,7.134,1.75-5.284,4.628-8.252,8.763-10.1q10.743-4.811,21.519-9.541c22.407-9.8,44.667-19.957,67.3-29.2a277.326,277.326,0,0,1,36.86-11.935c14.832-3.746,30.2-3.21,45.387-2.9,16.723.346,33.456,1.069,50.137,2.281,9.315.677,18.54,2.642,27.787,4.14,1.068.173,2.018,1.071,3.023,1.632a20.524,20.524,0,0,1-2.433,2.512c-1.963,1.453-4.1,2.676-6.051,4.14-1.541,1.156-1.612,2.468-.453,4.209,7.286,10.945,14.641,21.854,21.532,33.046,1.775,2.881,2.408,6.688,2.791,10.156.712,6.453,1.57,13.028,1.05,19.445-.635,7.852-7.209,13.49-15,14.262C2465.83,1483.386,2462.374,1483.482,2458.95,1483.688Zm-104.221-86.4c-3.544.283-6.471.08-9.144.808-10.889,2.968-21.856,5.778-32.5,9.494-10.947,3.823-21.566,8.6-32.294,13.036-3.122,1.292-3.391,2.891-.588,4.763a27.029,27.029,0,0,0,8.408,4.1c5.633,1.335,11.442,2.765,17.164,2.711,11.095-.105,22.182-1.187,33.267-1.956a2.623,2.623,0,0,0,1.733-1.409C2345.348,1418.623,2349.846,1408.373,2354.729,1397.293Zm99.065,23.317c.861,2.017,1.17,4.222,2.434,5.411a85.68,85.68,0,0,0,9.834,7.671,2.986,2.986,0,0,0,2.905-.52,3.6,3.6,0,0,0,.358-3.246c-3.092-5.144-6.4-10.159-9.674-15.191-.843-1.3-2.037-1.595-2.9-.147C2455.635,1416.472,2454.8,1418.524,2453.794,1420.61Z" fill="#2d997c"/>
    <path id="Path_28" data-name="Path 28" d="M2446.458,1541.6c-9.765-1.462-19.528-3-29.319-4.329a13.105,13.105,0,0,0-5.906.495c-6.295,2.212-12.554,4.327-19.379,3.358-.806-.114-1.619-.2-2.412-.377-6.854-1.51-6.853-1.515-7.981-8.305-2.434-14.648-15.885-26.907-30.745-26.648-6.77.118-10.535-2.221-13.848-7.671-4.355-7.163-3.091-14.191,4.06-18.643a66.82,66.82,0,0,1,28.8-10.192c.3,1.848.577,3.51.846,5.143.287.038.53.151.677.077,9.821-4.949,19.733-9.729,29.4-14.954,4.621-2.5,8.984-5.387,14.491-4.792a6.8,6.8,0,0,1,3.926,1.885q12.482,13.275,24.725,26.775c6.441,7.133,3.774,15.046-5.64,17.019-6.481,1.358-12.988,2.594-19.482,3.891-4.158.83-4.956,2.339-3.208,6.2,2.649,5.85,5.365,11.67,7.991,17.53.923,2.059,2.115,3.786,4.6,2.72,2.721-1.168,2.03-3.36,1.076-5.445-2.281-4.982-4.559-9.965-6.977-15.252,6.314-1.289,12.281-2.544,18.262-3.718,6.632-1.3,10.911-5.09,12.89-11.6a3.254,3.254,0,0,1,2.413-1.806c8.37-.129,16.745-.2,25.114-.027a12.189,12.189,0,0,1,11.919,12.611c-4.42,0-8.869-.051-13.316.01a32.5,32.5,0,0,0-30.931,23.46C2447.389,1532.984,2447.146,1537.2,2446.458,1541.6Zm-57.005-39.4c.526-.8.9-1.267,1.171-1.791,2.713-5.268,7.078-7.654,12.939-7.547a78.062,78.062,0,0,0,9.785-.092,7.093,7.093,0,0,0,4.5-2.307c1.367-1.789.116-3.633-1.35-5.1-4.036-4.046-7.99-8.177-12.14-12.1a3.74,3.74,0,0,0-3.309-.6c-9.216,4.1-18.36,8.359-27.508,12.61-2.5,1.164-2.742,2.846-.52,4.559C2378.343,1493.933,2383.759,1497.924,2389.453,1502.2Z" fill="#545454"/>
    <path id="Path_29" data-name="Path 29" d="M2298.291,1489.085a25.708,25.708,0,0,1-51.414.513,25.708,25.708,0,1,1,51.414-.513Zm-25.381,8.7a8.433,8.433,0,1,0-.681-16.852,8.433,8.433,0,0,0,.681,16.852Z" fill="#545454"/>
    <path id="Path_30" data-name="Path 30" d="M2480.534,1566.848a28.565,28.565,0,1,1,28.825-28.366A28.608,28.608,0,0,1,2480.534,1566.848Zm18.769-28.656a18.585,18.585,0,1,0-18.559,18.819A18.56,18.56,0,0,0,2499.3,1538.192Z" fill="#545454"/>
    <path id="Path_31" data-name="Path 31" d="M2347.866,1509.729c15.671-.341,28.562,12.207,29,28.227.412,15.117-12.325,28.545-27.388,28.873-16.2.352-29.477-11.79-29.825-27.266C2319.279,1522.968,2331.462,1510.086,2347.866,1509.729Zm18.979,28.735a18.66,18.66,0,1,0-37.32-.181,18.66,18.66,0,0,0,37.32.181Z" fill="#545454"/>
    <path id="Path_32" data-name="Path 32" d="M2388.528,1439.617c-.836-4.234,1.092-6.772,3.7-8.925,5.7-4.71,17.614-4.463,23.184.414,4.342,3.8,5.8,11.181,3.471,17.951-9.54-1.891-17.508,1.78-24.928,7.3a5.064,5.064,0,0,1-1,.7c-1.7.7-2.845,3.408-5.263,1.534-1.382-1.07-1.836-5.623-.642-7.486a3.594,3.594,0,0,1,1.977-1.151c4.307-1.229,8.648-2.337,12.952-3.576,2.921-.841,4.094-3.429,3.153-6.838-.81-2.937-2.977-2.906-5.377-2.366C2396.091,1437.995,2392.419,1438.772,2388.528,1439.617Z" fill="#f57f10"/>
  </g>
</svg>
