<svg xmlns="http://www.w3.org/2000/svg" width="182.146" height="205.723" viewBox="0 0 182.146 205.723">
  <g id="health-life" transform="translate(-199.383 -134.886)">
    <path id="Path_1" data-name="Path 1" d="M345.872,167.038a17.644,17.644,0,0,1-1.453-1.192C329.03,149.815,310,140.774,288.335,137.123c-29.838-5.03-58.967-1.2-87.613,7.71a7.539,7.539,0,0,0-1.339.874c1.4.736,2.442,1.291,3.489,1.83a107,107,0,0,1,24.878,17.042c15.4,14.551,23.777,31.8,20.219,53.54a1.045,1.045,0,0,0,.129.7c6.946,1.581,13.63,2.805,20.127,4.677,5.065,1.46,5.005,1.8,7.737-3.308a13.918,13.918,0,0,0-3.248-1.951c-4.954-1.366-9.928-2.71-14.965-3.708-2.334-.462-2.851-1.333-2.938-3.648-.2-5.344-.339-10.8-1.5-15.98-4.328-19.255-16.185-33.167-32.25-43.9-1.133-.757-2.283-1.488-4.046-2.634a19.147,19.147,0,0,1,2.615-.577c9.041-.3,17.994.352,26.644,3.172,15.322,5,25.7,14.729,28.89,31.014.419,2.14,1.64,2.459,3.3,2.87,28.085,6.93,45.527,24.527,52.455,52.562.453,1.833,1.311,2.552,3.123,3.13,4.459,1.422,9.1,2.728,13.094,5.069C358.963,252.552,364.244,263.96,367,276.8a109.18,109.18,0,0,1,1.788,29.671c21.449-47.815,15.862-92.24-17.169-133.28.719-.807,1.332-1.56,2.01-2.249,6-6.1,11.978-12.207,18.026-18.25,1.891-1.889,2.18-4,.442-5.8-1.849-1.915-4.116-1.761-6.06.267-.606.633-1.248,1.231-1.872,1.847ZM314.238,340.581c0-10.642-.034-20.8.027-30.955.013-2.068-.976-4.893,2.874-4.92.336,0,.895-1.384.958-2.156.748-9.164,1.534-18.327,2.074-27.5.369-6.262-5.4-12.119-11.643-12.15-4.489-.023-8.978-.039-13.467.007a11.736,11.736,0,0,0-11.737,12.318c.228,5.8.634,11.586,1.011,17.376.262,4.02.608,8.035.921,12.118l3.477.465c.1,1.26.224,2.337.261,3.417q.492,14.607.948,29.216c.046,1.5.01,2.818,2.17,2.8C299.107,340.534,306.1,340.581,314.238,340.581Zm43.144-.326c-.718-5.161-1.4-10.008-2.064-14.859-.674-4.959-1.322-9.921-2.008-15.089l5.19-.635c0-8.5.164-16.713-.06-24.919-.141-5.186-5.325-9.7-10.575-9.728q-5.59-.033-11.18,0c-6.863.032-11.313,4.376-11.363,11.282-.05,7.014.111,14.029.086,21.044-.007,1.83.391,3,2.491,2.887,2.249-.126,2.478,1.154,2.132,2.967-.574,3.012-1.068,6.04-1.569,9.065-.982,5.916-1.946,11.835-2.955,17.985ZM221.724,338.6c8.3-.023,13.956-2.222,16.984-5.525,1.736-1.893,2.048-4.031.349-5.889-1.737-1.9-3.6-1.624-5.722.13a16.465,16.465,0,0,1-6.6,3.352,13.457,13.457,0,0,1-14.314-6.466c-2.424-4.578-1.138-11.16,3.087-15.39q38.118-38.157,76.257-76.293c5.812-5.815,11.647-11.608,17.413-17.468,2.257-2.294,1.754-5.465-.96-6.342-2.273-.734-4.168-.106-5.934,1.658q-46.422,46.365-92.909,92.662c-6.724,6.714-8.337,15.577-4.469,24.252A18.143,18.143,0,0,0,221.724,338.6Zm52.4,1.8a28.264,28.264,0,0,1,.361-2.843c1.234-5.231-1.529-11.3,3.309-15.788.192-.178.145-.627.187-.953.747-5.869,1.575-11.729,2.212-17.61.625-5.766-3.445-10.164-9.261-10.2-3.179-.02-6.359-.048-9.537.009a8.847,8.847,0,0,0-9.036,9.835c.458,5.678,1.06,11.347,1.691,17.009.1.89.576,2.391,1.066,2.472,2.316.383,1.95,2,1.954,3.487.014,4.787.005,9.575.005,14.583Zm37.459-92.495a9.734,9.734,0,0,0-9.988-9.6,9.573,9.573,0,0,0-9.62,9.575,9.684,9.684,0,0,0,9.753,9.811A9.849,9.849,0,0,0,311.581,247.913Zm39.074,13.8a8.738,8.738,0,1,0-8.861,8.565A8.619,8.619,0,0,0,350.655,261.714Zm-76.94,19.935a7.4,7.4,0,1,0-7.309,7.313A7.323,7.323,0,0,0,273.715,281.649Z" fill="#fff"/>
    <path id="Path_2" data-name="Path 2" d="M345.872,167.038l18.3-18.03c.624-.616,1.266-1.214,1.872-1.847,1.944-2.028,4.211-2.182,6.06-.267,1.738,1.8,1.449,3.908-.442,5.8-6.048,6.043-12.029,12.155-18.026,18.25-.678.689-1.291,1.442-2.01,2.249,33.031,41.04,38.618,85.465,17.169,133.28A109.18,109.18,0,0,0,367,276.8c-2.76-12.839-8.041-24.247-19.867-31.186-3.99-2.341-8.635-3.647-13.094-5.069-1.812-.578-2.67-1.3-3.123-3.13-6.928-28.035-24.37-45.632-52.455-52.562-1.665-.411-2.886-.73-3.3-2.87-3.187-16.285-13.568-26.018-28.89-31.014-8.65-2.82-17.6-3.47-26.644-3.172a19.147,19.147,0,0,0-2.615.577c1.763,1.146,2.913,1.877,4.046,2.634,16.065,10.729,27.922,24.641,32.25,43.9,1.165,5.183,1.3,10.636,1.5,15.98.087,2.315.6,3.186,2.938,3.648,5.037,1,10.011,2.342,14.965,3.708a13.918,13.918,0,0,1,3.248,1.951c-2.732,5.11-2.672,4.768-7.737,3.308-6.5-1.872-13.181-3.1-20.127-4.677a1.045,1.045,0,0,1-.129-.7c3.558-21.74-4.818-38.989-20.219-53.54a107,107,0,0,0-24.878-17.042c-1.047-.539-2.086-1.094-3.489-1.83a7.539,7.539,0,0,1,1.339-.874c28.646-8.911,57.775-12.74,87.613-7.71,21.666,3.651,40.7,12.692,56.084,28.723A17.644,17.644,0,0,0,345.872,167.038Z" fill="#2d997c"/>
    <path id="Path_3" data-name="Path 3" d="M314.238,340.581c-8.135,0-15.131-.047-22.126.027-2.16.023-2.124-1.294-2.17-2.8q-.448-14.608-.948-29.216c-.037-1.08-.162-2.157-.261-3.417l-3.477-.465c-.313-4.083-.659-8.1-.921-12.118-.377-5.79-.783-11.58-1.011-17.376A11.736,11.736,0,0,1,295.061,262.9c4.489-.046,8.978-.03,13.467-.007,6.24.031,12.012,5.888,11.643,12.15-.54,9.177-1.326,18.34-2.074,27.5-.063.772-.622,2.153-.958,2.156-3.85.027-2.861,2.852-2.874,4.92C314.2,319.782,314.238,329.939,314.238,340.581Z" fill="#75b42f"/>
    <path id="Path_4" data-name="Path 4" d="M357.382,340.255H325.507c1.009-6.15,1.973-12.069,2.955-17.985.5-3.025.995-6.053,1.569-9.065.346-1.813.117-3.093-2.132-2.967-2.1.116-2.5-1.057-2.491-2.887.025-7.015-.136-14.03-.086-21.044.05-6.906,4.5-11.25,11.363-11.282q5.589-.025,11.18,0c5.25.031,10.434,4.542,10.575,9.728.224,8.206.06,16.423.06,24.919l-5.19.635c.686,5.168,1.334,10.13,2.008,15.089C355.977,330.247,356.664,335.094,357.382,340.255Z" fill="#2d997c"/>
    <path id="Path_5" data-name="Path 5" d="M221.724,338.6a18.143,18.143,0,0,1-16.813-11.319c-3.868-8.675-2.255-17.538,4.469-24.252q46.426-46.357,92.909-92.662c1.766-1.764,3.661-2.392,5.934-1.658,2.714.877,3.217,4.048.96,6.342-5.766,5.86-11.6,11.653-17.413,17.468q-38.13,38.145-76.257,76.293c-4.225,4.23-5.511,10.812-3.087,15.39a13.457,13.457,0,0,0,14.314,6.466,16.465,16.465,0,0,0,6.6-3.352c2.121-1.754,3.985-2.029,5.722-.13,1.7,1.858,1.387,4-.349,5.889C235.68,336.381,230.026,338.58,221.724,338.6Z" fill="#2d997c"/>
    <path id="Path_6" data-name="Path 6" d="M274.122,340.408H257.073c0-5.008.009-9.8-.005-14.583,0-1.489.362-3.1-1.954-3.487-.49-.081-.967-1.582-1.066-2.472-.631-5.662-1.233-11.331-1.691-17.009a8.847,8.847,0,0,1,9.036-9.835c3.178-.057,6.358-.029,9.537-.009,5.816.037,9.886,4.435,9.261,10.2-.637,5.881-1.465,11.741-2.212,17.61-.042.326.005.775-.187.953-4.838,4.486-2.075,10.557-3.309,15.788A28.264,28.264,0,0,0,274.122,340.408Z" fill="#f57f10"/>
    <path id="Path_7" data-name="Path 7" d="M311.581,247.913a9.849,9.849,0,0,1-9.855,9.782,9.684,9.684,0,0,1-9.753-9.811,9.573,9.573,0,0,1,9.62-9.575A9.734,9.734,0,0,1,311.581,247.913Z" fill="#75b42f"/>
    <path id="Path_8" data-name="Path 8" d="M350.655,261.714a8.738,8.738,0,1,1-8.611-8.824A8.611,8.611,0,0,1,350.655,261.714Z" fill="#2d997c"/>
    <path id="Path_9" data-name="Path 9" d="M273.715,281.649a7.4,7.4,0,1,1-7.458-7.489A7.322,7.322,0,0,1,273.715,281.649Z" fill="#f57f10"/>
  </g>
</svg>
