<?xml version="1.0" encoding="utf-8"?>
<!-- Generator: Adobe Illustrator 23.0.1, SVG Export Plug-In . SVG Version: 6.00 Build 0)  -->
<svg version="1.1" id="Layer_1" xmlns="http://www.w3.org/2000/svg" xmlns:xlink="http://www.w3.org/1999/xlink" x="0px" y="0px"
	 viewBox="0 0 606.1 606.1" style="enable-background:new 0 0 606.1 606.1;" xml:space="preserve">
<style type="text/css">
	.st0{fill:#2D997C;}
	.st1{fill:#F47D2A;}
	.st2{fill:#77C044;}
	.st3{fill:#FFFFFF;}
</style>
<g id="Layer_1_1_">
</g>
<path class="st0" d="M22,310.1c-3.8-14.5-8-30.3-12-46.3c-1.2-4.6-2.5-9.4-2.5-14.1c0-11.2,7.1-19.7,18.6-22.7
	c51.7-13.6,103.3-27.1,155-40.7c108-28.3,216-56.6,323.9-84.9c16.9-4.4,28.7,2.4,33.1,19.2c18.8,71.9,37.7,143.9,56.5,215.8
	c4.3,16.4-2.4,28-18.6,32.4c-10.4,2.8-20.8,5.5-31.8,8.4c-0.2-14.8,0.6-29.3-8.8-41.6c-8.9-11.7-21.3-18.5-35.5-25.4
	c7.6-5,14.4-9.6,22.1-14.6c-9-34.5-18.2-69.6-27.5-105.2c-14.3,1.4-28.3,1.5-40.8-6.3c-12.3-7.7-19.4-19.9-26.4-32.5
	c-18.6,4.9-37.1,9.7-55.5,14.5c-81.9,21.5-163.9,43-245.9,64.3c-4.9,1.3-5.8,3.3-5.5,7.8c1.2,14.8-1.6,28.6-10.9,40.7
	c-2.7,3.5-5.5,5-10,5c-17.1,0-34,2.1-49.6,9.5C40.2,297.8,31.3,304.3,22,310.1z"/>
<path class="st1" d="M301.4,207.9c47.2-1,88.1,38.6,90,85.3c2.1,52.7-39.6,92-84.7,94.3c-52.4,2.8-93.7-39.2-95.2-86.9
	C210,250.7,250.9,207.3,301.4,207.9z"/>
<path class="st2" d="M90,314c21.8,1.1,42.3,4.8,59.7,18.8c11.3,9.1,11.7,19.5,1.1,29.3c-9.4,8.7-21.1,12.5-33.3,15.1
	C94.1,382,71,382,48.7,373c-7.7-3.1-15.4-7.9-21.4-13.7c-8.4-8-7.7-15.4,0.2-24.1c8.2-9.1,19.2-13.6,30.8-16.3
	C68.7,316.6,79.4,315.6,90,314z"/>
<path class="st0" d="M455.8,332.4c19.2,0.9,37.5,3.9,52.9,16.4c11.1,9,11.3,17.1,0.8,26.9c-8.5,7.9-19,11.2-30.1,13.5
	c-23.9,4.9-47.2,3.7-69.2-7.6c-4.3-2.2-8.5-5.4-11.7-9c-6.2-7-5.8-13.8,0.5-20.9c8.5-9.6,20.2-13.4,32.1-16
	C439.2,333.9,447.6,333.5,455.8,332.4z"/>
<path class="st0" d="M184.7,471.3c0-9.8-0.2-18.1,0.2-26.5c0.1-1.5,2.7-3.6,4.5-4.1c36.4-9.7,72.8-19.2,109.3-28.8
	c20.4-5.4,40.9-10.7,61.3-16c1.9-0.5,3.8-0.9,6.5-1.5c0,9.7,0,19,0,29.2C306.6,439.4,246,455.2,184.7,471.3z"/>
<path class="st2" d="M158.2,378.3c1.4,18-1.5,23.4-18.1,31c-35.4,16.3-70.6,13-105.2-2.5c-12.6-5.6-15.3-16.4-13.2-28.7
	C67.2,405.6,112.6,405.6,158.2,378.3z"/>
<path class="st2" d="M158.2,456.1c1.5,18-1.3,23.4-18,30.9c-35.8,16.3-71.3,13.1-106.1-3.2c-11.3-5.3-14.6-14.6-12.3-28.2
	C67.1,483.4,112.3,483.3,158.2,456.1z"/>
<path class="st2" d="M21.6,417C67,445,112.1,444.6,157.7,418c3.5,11.3,0.6,19.8-10.1,26.6c-12.9,8.1-27.2,12-42.2,13.7
	c-21.3,2.4-41.6-1.1-61.5-8.4c-0.6-0.2-1.1-0.4-1.7-0.6C24.6,442.4,20.3,435.6,21.6,417z"/>
<path class="st0" d="M393.9,388.3c24.6,23.8,89.2,28.6,122.3,1.4c3,13.5-0.1,20.4-12.4,26.8c-25.5,13.2-52.1,13.3-79.1,6.3
	c-5.2-1.4-10.3-3.2-15.2-5.4C395.8,411.4,391.9,404.1,393.9,388.3z"/>
<path class="st0" d="M394.8,425.8c40.7,24.1,81.2,24.2,121.7-0.1c2.8,12-0.2,19.2-11.9,25.5c-17.7,9.5-36.5,12.7-56.6,10.9
	c-15.1-1.4-29.5-4.7-42.9-11.7C395.2,445.3,392,436.8,394.8,425.8z"/>
<path class="st0" d="M516.8,460.3c1.1,16.8-1.4,21.2-17.1,28.2c-31,13.8-61.8,11.1-92.1-2c-12.3-5.3-14.9-11.7-13.2-26.2
	C435.1,484.7,475.8,484.7,516.8,460.3z"/>
<g>
	<path class="st3" d="M329.1,311.1c-2.6-0.3-5-0.3-7.1-0.8c-5.3-1.3-8.3-5.4-8.5-11.4c-0.1-2.4,0.2-5,1-7.1c2.2-5.8,7.4-7.7,14.4-7
		c8.5,0.9,14.1,9.3,15.5,16.3c1.6,7.7,0.5,15.1-3.3,22c-5.9,10.8-14,19.1-26.2,22.7c-11.2,3.3-20.4,0.2-27.7-8.7c-2-2.4-3-5-3-8.2
		c0.2-9.2,0-18.4,0-27.6c0-0.8,0-1.5,0-2.5c-2.9,0-5.7,0-8.5,0c-0.6,0-1.5-0.1-1.9-0.5c-2.9-2.9-5.7-5.8-9-9.2c6.7,0,12.9,0,19.4,0
		c0-3.3,0-6.4,0-9.4c0-3.1,0-6.3,0-9.4c0-6.2-5-9.7-10.9-7.5c-0.2,0.1-0.4,0.1-0.9,0.3c-1.1-2.4-2.3-4.7-3.1-7.1
		c-0.6-1.6,0.1-3.2,1.5-4.2c4.1-2.8,8.5-4.1,13.4-2.8c4.1,1.1,6.3,4.2,8,7.7c1.8,3.8,2.3,7.9,2.4,12c0.1,6,0,12,0,18
		c0,0.7,0,1.5,0,2.3c0.6,0.1,0.9,0.2,1.3,0.2c3.6-0.7,6,1,8.2,3.6c1.7,2,3.9,3.7,5.8,5.5c-0.1,0.2-0.2,0.4-0.4,0.6
		c-4.9,0-9.8,0-14.9,0c0,1.1,0,2,0,2.9c0,7.9,0.2,15.9,0,23.8c-0.2,7.7,4.9,10.7,11.5,10.2c4.2-0.3,7.7-2.2,10.9-4.9
		c5.4-4.5,10.1-9.6,11.8-16.7C328.8,313.2,329,312.1,329.1,311.1z"/>
</g>
</svg>
