<svg xmlns="http://www.w3.org/2000/svg" width="77.927" height="94.088" viewBox="0 0 77.927 94.088">
  <g id="affordable" transform="translate(-632.118 -758.976)">
    <path id="Path_91" data-name="Path 91" d="M655.462,832.2s.272,18.677.263,20.191" fill="none" stroke="#676767" stroke-linecap="round" stroke-linejoin="round" stroke-width="1.343"/>
    <path id="Path_92" data-name="Path 92" d="M657.1,824.6c.48,1.906,1.851,3.857,2.8,5.52.959,1.686.581,2.4-1.326,2.461-.944.032-.713.05-1.656.113l-1.1-.018a15.583,15.583,0,0,0-3.469-.1c-1.2-.053-1.8-.847-1.3-1.875.876-1.793,1.9-3.517,2.8-5.3a1.33,1.33,0,0,1,1.335-.722c4.237.159,7.239-2.274,9.97-4.962,5.037-4.957,7.847-11.21,9.857-17.888a27.851,27.851,0,0,0,1.019-11.878,20.995,20.995,0,0,0-23.282-17.264c-8.711,1.317-14.694,6.374-17.378,14.985a23.024,23.024,0,0,0,.068,12.815,44.143,44.143,0,0,0,8.608,17.57,19.417,19.417,0,0,0,8.5,6.219c.487.17,1.109.1,1.32.755" fill="#26a78d"/>
    <path id="Path_93" data-name="Path 93" d="M656.975,824.865l.5-.839-3.693.839.28,1.007Z" fill="#26a78d"/>
    <path id="Path_94" data-name="Path 94" d="M668.709,788.645c-2.436-5.067-6.721-7.709-12.209-8.516" fill="none" stroke="#fff" stroke-linecap="round" stroke-linejoin="round" stroke-width="2.686"/>
    <g id="Group_18" data-name="Group 18">
      <path id="Path_95" data-name="Path 95" d="M687.606,806.685s-9.125,30.9-9.378,32.043" fill="none" stroke="#676767" stroke-linecap="round" stroke-linejoin="round" stroke-width="1.037"/>
      <path id="Path_96" data-name="Path 96" d="M690.083,801.217a18.851,18.851,0,0,0,1.212,4.622c.449,1.429.048,1.9-1.4,1.642-.718-.13-.547-.079-1.269-.185l-.828-.193a12.032,12.032,0,0,0-2.6-.642c-.9-.235-1.224-.933-.677-1.627.953-1.212,2-2.347,2.973-3.545a1.028,1.028,0,0,1,1.125-.328c3.172.81,5.835-.538,8.334-2.122,4.609-2.922,7.748-7.184,10.352-11.9a21.51,21.51,0,0,0,2.7-8.8,16.212,16.212,0,0,0-14.763-16.822c-6.789-.424-12.13,2.42-15.557,8.482a17.788,17.788,0,0,0-2.035,9.684,34.078,34.078,0,0,0,3.637,14.663,14.978,14.978,0,0,0,5.4,6.078c.34.208.82.258.874.785" fill="#76bf44"/>
      <path id="Path_97" data-name="Path 97" d="M689.942,801.393l.517-.552-2.924.032.047.806Z" fill="#76bf44"/>
    </g>
    <path id="Path_98" data-name="Path 98" d="M704.7,775.964c-1.014-4.222-3.817-6.914-7.829-8.416" fill="none" stroke="#fff" stroke-linecap="round" stroke-linejoin="round" stroke-width="2.074"/>
    <path id="Path_99" data-name="Path 99" d="M657.75,767.357a25.89,25.89,0,0,1,9.023,2.357,18.93,18.93,0,0,0-3.384-4.978,17.028,17.028,0,0,0-14.118-5.708c-7.595.57-13.082,4.542-15.954,11.791a19.847,19.847,0,0,0-.793,10.933A25.964,25.964,0,0,1,657.75,767.357Z" fill="#f49421"/>
    <path id="Path_100" data-name="Path 100" d="M659.37,764.328a10.085,10.085,0,0,0-8.249-2.628" fill="none" stroke="#fff" stroke-linecap="round" stroke-linejoin="round" stroke-width="1.407"/>
  </g>
</svg>
