<svg xmlns="http://www.w3.org/2000/svg" width="166.115" height="172.352" viewBox="0 0 166.115 172.352">
  <g id="easy-registration" transform="translate(-216.321 -147.6)">
    <path id="Path_58" data-name="Path 58" d="M373.39,252.727c-.238-.581-.334-.8-.421-1.028-4.5-11.66-12.988-18.469-25.23-20.616-2.205-.387-4.508-.2-6.716-.575-6.915-1.169-12.031-5.143-15.851-10.825-3.585-5.331-5.412-11.247-4.17-17.665a43.842,43.842,0,0,1,3.095-8.668,33.381,33.381,0,0,0,2.794-17.443A31.273,31.273,0,0,0,280.574,152.3a7.079,7.079,0,0,1-1.719.7q-36.518,8.81-54.964,41.526c-.338.6-1.3,1.43-.254,2.02s1.244-.664,1.581-1.268A81.633,81.633,0,0,1,265.7,158.85c3.25-1.38,6.644-2.422,10.174-3.693a70.622,70.622,0,0,0-5.291,6.072c-7.032,10.212-8.277,21.13-2.662,32.255,3.681,7.292,4.179,14.442.95,21.762-3.461,7.847-9.037,13.456-17.89,14.956-2.913.493-5.9.607-8.783,1.208-13.376,2.787-22.725,12.716-24.984,26.366-2.02,12.2,4.169,24.818,15.441,31.507a5.336,5.336,0,0,1,1.24,1.02q26.276,29.394,65.7,29.134a2.446,2.446,0,0,0,.987-.061c.293-.142.713-.534.672-.733a1.526,1.526,0,0,0-.739-.823c-.218-.127-.57-.009-.861-.025-4.615-.259-9.274-.2-13.835-.84-18.912-2.663-34.921-11.1-48.181-24.811-.171-.177-.3-.391-.606-.787a31.122,31.122,0,0,0,16.245,1.594c8.979-1.616,16.2-6.087,21.117-13.811a24.039,24.039,0,0,1,13.559-10.589c8.4-2.6,21.1-1.4,28.073,9.1.53.8,1.1,1.572,1.655,2.352a31.535,31.535,0,0,0,46.668,5.437c3.72-3.3,6.171-7.449,8.37-11.862a84.536,84.536,0,0,0,9.1-42.663,83.18,83.18,0,0,0-12.231-39.58,2.849,2.849,0,0,0-.554-.821c-.219-.168-.688-.312-.842-.2a1.1,1.1,0,0,0-.412.9,5.357,5.357,0,0,0,.7,1.312q19.859,34.016,6.817,71.181c-.115.327-.274.638-.351.815-.246-2.736-.512-5.547-.736-8.362a4.32,4.32,0,0,1,.2-1.345,77.545,77.545,0,0,0,.988-34.471c-4.714-23.276-17.317-41.1-37.646-53.429-.213-.129-.444-.343-.656-.331a1.371,1.371,0,0,0-.917.34c-.122.149,0,.645.174.851a3.557,3.557,0,0,0,.935.608,77.555,77.555,0,0,1,37.527,57.9A80.9,80.9,0,0,1,373.39,252.727Zm-74.83,61.919A78.221,78.221,0,0,0,336.353,304.4c.254-.144.585-.237.736-.453a3.5,3.5,0,0,0,.326-.966c-.326-.1-.682-.332-.972-.268a4.95,4.95,0,0,0-1.215.62,77.546,77.546,0,0,1-75.824-.146,3.087,3.087,0,0,0-1.006-.471.946.946,0,0,0-.8.349c-.1.2.056.613.225.839a2.242,2.242,0,0,0,.733.461A80.111,80.111,0,0,0,298.56,314.646Zm-80.369-82.768a28.216,28.216,0,0,0,.036,3c.04.375.483.708.743,1.06.226-.335.615-.654.65-1.008.123-1.242.1-2.5.175-3.745,1.347-22.433,10.617-40.96,27.659-55.539,3.306-2.828,7.119-5.061,10.665-7.614.342-.246.45-.818.667-1.238-.447.007-.9-.006-1.34.033-.15.013-.289.158-.43.245C232.891,181.969,220.244,203.729,218.191,231.878Z" fill="#75b42f" stroke="#75b42f" stroke-miterlimit="10" stroke-width="1"/>
    <path id="Path_59" data-name="Path 59" d="M373.39,252.727a80.9,80.9,0,0,0,1.431-26.444,77.555,77.555,0,0,0-37.527-57.9,3.557,3.557,0,0,1-.935-.608c-.173-.206-.3-.7-.174-.851a1.371,1.371,0,0,1,.917-.34c.212-.012.443.2.656.331,20.329,12.328,32.932,30.153,37.646,53.429a77.545,77.545,0,0,1-.988,34.471,4.32,4.32,0,0,0-.2,1.345c.224,2.815.49,5.626.736,8.362.077-.177.236-.488.351-.815q13.072-37.169-6.817-71.181a5.357,5.357,0,0,1-.7-1.312,1.1,1.1,0,0,1,.412-.9c.154-.116.623.028.842.2a2.849,2.849,0,0,1,.554.821,83.18,83.18,0,0,1,12.231,39.58,84.536,84.536,0,0,1-9.1,42.663c-2.2,4.413-4.65,8.559-8.37,11.862A31.535,31.535,0,0,1,317.683,280c-.558-.78-1.125-1.554-1.655-2.352-6.978-10.506-19.673-11.7-28.073-9.1A24.039,24.039,0,0,0,274.4,279.14c-4.915,7.724-12.138,12.195-21.117,13.811a31.122,31.122,0,0,1-16.245-1.594c.3.4.435.61.606.787,13.26,13.708,29.269,22.148,48.181,24.811,4.561.642,9.22.581,13.835.84.291.016.643-.1.861.025a1.526,1.526,0,0,1,.739.823c.041.2-.379.591-.672.733a2.446,2.446,0,0,1-.987.061q-39.433.282-65.7-29.134a5.336,5.336,0,0,0-1.24-1.02c-11.272-6.689-17.461-19.3-15.441-31.507,2.259-13.65,11.608-23.579,24.984-26.366,2.886-.6,5.87-.715,8.783-1.208,8.853-1.5,14.429-7.109,17.89-14.956,3.229-7.32,2.731-14.47-.95-21.762-5.615-11.125-4.37-22.043,2.662-32.255a70.622,70.622,0,0,1,5.291-6.072c-3.53,1.271-6.924,2.313-10.174,3.693a81.633,81.633,0,0,0-40.487,36.432c-.337.6-.521,1.864-1.581,1.268s-.084-1.421.254-2.02Q242.357,161.845,278.855,153a7.079,7.079,0,0,0,1.719-.7,31.273,31.273,0,0,1,46.317,23.607A33.381,33.381,0,0,1,324.1,193.35,43.842,43.842,0,0,0,321,202.018c-1.242,6.418.585,12.334,4.17,17.665,3.82,5.682,8.936,9.656,15.851,10.825,2.208.373,4.511.188,6.716.575,12.242,2.147,20.732,8.956,25.23,20.616C373.056,251.924,373.152,252.146,373.39,252.727Zm-30.421,30.325a22.205,22.205,0,1,0-22.243-22.02A22.225,22.225,0,0,0,342.969,283.052ZM272.813,180.7a22.2,22.2,0,1,0,22.156-22.191A22.154,22.154,0,0,0,272.813,180.7Zm-1.065,81.648a22.2,22.2,0,1,0-22.473,22.132A22.152,22.152,0,0,0,271.748,262.344Zm44.7-27.876a20.616,20.616,0,1,0-20.531,20.684A20.651,20.651,0,0,0,316.443,234.468Z" fill="#00a1ed" stroke="#00a1ed" stroke-miterlimit="10" stroke-width="1"/>
    <path id="Path_60" data-name="Path 60" d="M298.56,314.646a80.111,80.111,0,0,1-40.005-10.28,2.242,2.242,0,0,1-.733-.461c-.169-.226-.326-.64-.225-.839a.946.946,0,0,1,.8-.349,3.087,3.087,0,0,1,1.006.471,77.546,77.546,0,0,0,75.824.146,4.95,4.95,0,0,1,1.215-.62c.29-.064.646.168.972.268a3.5,3.5,0,0,1-.326.966c-.151.216-.482.309-.736.453A78.221,78.221,0,0,1,298.56,314.646Z" fill="#75b42f" stroke="#75b42f" stroke-miterlimit="10" stroke-width="1"/>
    <path id="Path_61" data-name="Path 61" d="M218.191,231.878c2.053-28.149,14.7-49.909,38.825-64.81.141-.087.28-.232.43-.245.444-.039.893-.026,1.34-.033-.217.42-.325.992-.667,1.238-3.546,2.553-7.359,4.786-10.665,7.614-17.042,14.579-26.312,33.106-27.659,55.539-.075,1.248-.052,2.5-.175,3.745-.035.354-.424.673-.65,1.008-.26-.352-.7-.685-.743-1.06A28.216,28.216,0,0,1,218.191,231.878Z" fill="#75b42f" stroke="#75b42f" stroke-miterlimit="10" stroke-width="1"/>
    <path id="Path_62" data-name="Path 62" d="M342.969,283.052a22.205,22.205,0,1,1,22.194-22.326A22.223,22.223,0,0,1,342.969,283.052Zm-.013-40.034a17.832,17.832,0,1,0,17.8,17.85A17.819,17.819,0,0,0,342.956,243.018Z" fill="#fff"/>
    <path id="Path_63" data-name="Path 63" d="M271.748,262.344A22.2,22.2,0,1,1,249.764,240.1,22.141,22.141,0,0,1,271.748,262.344Zm-4.363-.078a17.835,17.835,0,1,0-17.809,17.878A17.892,17.892,0,0,0,267.385,262.266Z" fill="#fff"/>
    <path id="Path_64" data-name="Path 64" d="M317.06,180.446A22.2,22.2,0,1,1,295.076,158.2,22.141,22.141,0,0,1,317.06,180.446Zm-4.363-.078a17.835,17.835,0,1,0-17.808,17.879A17.891,17.891,0,0,0,312.7,180.368Z" fill="#fff"/>
    <path id="Path_65" data-name="Path 65" d="M316.443,234.468a20.616,20.616,0,1,1-20.555-20.549A20.614,20.614,0,0,1,316.443,234.468Zm-37.135.147a16.545,16.545,0,1,0,16.462-16.606A16.562,16.562,0,0,0,279.308,234.615Z" fill="#fff"/>
    <path id="Path_66" data-name="Path 66" d="M279.308,234.615a16.545,16.545,0,1,1,16.6,16.495A16.53,16.53,0,0,1,279.308,234.615Z" fill="#f57f10"/>
  </g>
</svg>
