<svg xmlns="http://www.w3.org/2000/svg" width="73.708" height="65.594" viewBox="0 0 73.708 65.594">
  <g id="get-insured_" data-name="get-insured " transform="translate(-985.804 -698.637)">
    <path id="Path_101" data-name="Path 101" d="M1059.512,725.028v.353h-29.728v-.353a1.847,1.847,0,0,1,1.845-1.844h26.04A1.846,1.846,0,0,1,1059.512,725.028Z" fill="#76bf44"/>
    <path id="Path_102" data-name="Path 102" d="M1037.007,735.948h-7.223v-7.982h29.728v25.591h-19.239V739.214a3.27,3.27,0,0,0-3.266-3.266Z" fill="#76bf44"/>
    <path id="Path_103" data-name="Path 103" d="M1037.688,740.913h-15.257v-1.7a.682.682,0,0,1,.681-.681h13.895a.682.682,0,0,1,.681.681v1.7Z" fill="#f49421"/>
    <path id="Path_104" data-name="Path 104" d="M1056.375,702.911V720.6h-24.747a4.434,4.434,0,0,0-4.429,4.429v10.92h-4.087a3.269,3.269,0,0,0-3.266,3.262H985.8v-36.3Z" fill="#26a78d"/>
    <rect id="Rectangle_2" data-name="Rectangle 2" width="15.257" height="15.768" transform="translate(1022.431 743.498)" fill="#f49421"/>
    <path id="Path_105" data-name="Path 105" d="M988.786,698.637h64.607a2.984,2.984,0,0,1,2.683,1.689H986.1a2.984,2.984,0,0,1,2.683-1.689Z" fill="#26a78d"/>
    <path id="Path_106" data-name="Path 106" d="M986.024,741.795h33.822v1.863h-31.06A2.986,2.986,0,0,1,986.024,741.795Z" fill="#26a78d"/>
    <path id="Path_107" data-name="Path 107" d="M1008.529,748.5l2.1-2.256h9.221V748.5Z" fill="#26a78d"/>
    <path id="Path_108" data-name="Path 108" d="M1037.007,764.231h-13.895a.681.681,0,0,1-.681-.681v-1.7h15.257v1.7A.682.682,0,0,1,1037.007,764.231Z" fill="#f49421"/>
    <path id="Path_109" data-name="Path 109" d="M1057.669,758.34h-17.4v-2.2h19.238v.353A1.845,1.845,0,0,1,1057.669,758.34Z" fill="#76bf44"/>
  </g>
</svg>
