<svg xmlns="http://www.w3.org/2000/svg" width="168.281" height="173.557" viewBox="0 0 168.281 173.557">
  <g id="go-paperless" transform="translate(-222.138 -161.242)">
    <circle id="Ellipse_2" data-name="Ellipse 2" cx="15.624" cy="15.624" r="15.624" transform="translate(316.213 195.882)" fill="#f57f10"/>
    <circle id="Ellipse_3" data-name="Ellipse 3" cx="10" cy="10" r="10" transform="translate(349.67 168.339)" fill="#2d997c"/>
    <path id="Path_33" data-name="Path 33" d="M310.341,264.377a28.248,28.248,0,0,0,1.183-6.116c.435-19.611-7.552-35.969-19.867-50.5-16.87-19.9-38.028-34.2-61.133-45.834a12.543,12.543,0,0,0-2.778-.685,6.963,6.963,0,0,0-.794,1.434c-5.469,24.566-6.915,49.229-.98,73.9,7.571,31.474,26.807,52.124,57.975,61.412,5.074,1.512,5.664,1.127,5.245-4.3a160.8,160.8,0,0,0-1.9-17.193c-6.166-32.957-19.052-62.785-41.607-88.023a26.379,26.379,0,0,1-1.822-2.587,9.6,9.6,0,0,1,4.561,2.808q42.581,43.47,47.87,103.837c1.174-2.451,3.052-6,5.988-11.112A56.416,56.416,0,0,0,310.341,264.377Z" fill="#75b42f"/>
    <path id="Path_34" data-name="Path 34" d="M383.786,214.839c-7.274,5.911-13.254,12.129-21.319,16.309-14.507,7.52-28.917,15.178-41.177,26.082-10.032,11-13.843,19.585-15.748,25.97a67.938,67.938,0,0,0-.319,35.179c.043.133.088.267.13.4,1.218,3.779,4.589,5.978,9.439,6.6-.161-2.493-.388-4.636-.419-6.781-.054-3.833-.43-7.73.1-11.491,2.349-16.666,11.061-29.939,23.482-40.681,12.863-11.123,26.309-21.571,39.519-32.292.118-.1.5.134,1.422.412-3.326,4.033-6.154,8.214-9.717,11.628-8.661,8.295-17.8,16.083-26.5,24.346-17.082,16.234-25.029,35.246-17.55,58.933,1.193,3.778,3.093,5.814,6.873,5.26,4.616-.678,9.614-.989,13.641-3.039A77.811,77.811,0,0,0,376.881,302.7c15.692-25.443,14.864-54.3,11.623-83.191C388.5,219.506,388.5,211.006,383.786,214.839Z" fill="#2d997c"/>
  </g>
</svg>
