<?xml version="1.0" encoding="utf-8"?>
<!-- Generator: Adobe Illustrator 22.1.0, SVG Export Plug-In . SVG Version: 6.00 Build 0)  -->
<svg version="1.1" id="Layer_1" xmlns="http://www.w3.org/2000/svg" xmlns:xlink="http://www.w3.org/1999/xlink" x="0px" y="0px"
	 viewBox="0 0 1034.9 723.6" style="enable-background:new 0 0 1034.9 723.6;" xml:space="preserve">
<style type="text/css">
	.st0{fill:#EEEDEE;}
	.st1{fill:#424143;}
	.st2{fill:none;stroke:#939598;stroke-width:1.6176;stroke-miterlimit:10;}
	.st3{fill:#28A78D;}
	.st4{fill:#FCB017;}
	.st5{fill:#77C044;}
	.st6{fill:#F49423;}
	.st7{fill:url(#SVGID_1_);}
	.st8{fill:none;stroke:url(#SVGID_2_);stroke-width:4;stroke-miterlimit:10;}
	.st9{fill:url(#SVGID_3_);}
	.st10{fill:url(#SVGID_4_);}
	.st11{fill:none;stroke:url(#SVGID_5_);stroke-width:4;stroke-miterlimit:10;}
	.st12{fill:url(#SVGID_6_);}
	.st13{fill:url(#SVGID_7_);}
	.st14{fill:none;stroke:url(#SVGID_8_);stroke-width:4;stroke-miterlimit:10;}
	.st15{fill:url(#SVGID_9_);}
	.st16{fill:url(#SVGID_10_);}
	.st17{fill:none;stroke:url(#SVGID_11_);stroke-width:4;stroke-miterlimit:10;}
	.st18{fill:url(#SVGID_12_);}
	.st19{fill:url(#SVGID_13_);}
	.st20{fill:none;stroke:url(#SVGID_14_);stroke-width:4;stroke-miterlimit:10;}
	.st21{fill:url(#SVGID_15_);}
</style>
<g>
	<circle class="st0" cx="514.1" cy="292.8" r="208.9"/>
	<g>
		<path class="st1" d="M254.6,230.4l9.8,2.6l-0.8,3l-9.8-2.6l-21.6,6.5l0.8-3.2l18.5-5.6l-13.4-13.9l0.8-3L254.6,230.4z"/>
		<path class="st1" d="M267.9,217.2c-1.5,1.3-3.2,2.1-5.1,2.4c-1.9,0.3-3.9,0.1-6-0.6c-2-0.7-3.7-1.8-5-3.3
			c-1.3-1.5-2.1-3.2-2.4-5.1c-0.3-1.9-0.1-3.9,0.6-5.9c0.7-2,1.8-3.6,3.3-4.9c1.5-1.3,3.2-2.1,5.1-2.4s3.9-0.1,5.9,0.6
			c2,0.7,3.7,1.8,5,3.3c1.3,1.5,2.1,3.2,2.4,5.1c0.3,1.9,0.1,3.9-0.6,5.9C270.5,214.2,269.4,215.9,267.9,217.2z M269.1,207
			c-0.2-1.4-0.9-2.7-1.9-3.8c-1-1.1-2.3-1.9-3.9-2.5c-1.6-0.6-3.1-0.7-4.6-0.5c-1.5,0.2-2.8,0.8-3.9,1.7c-1.1,0.9-1.9,2.1-2.4,3.6
			s-0.7,2.9-0.4,4.3c0.2,1.4,0.9,2.7,1.9,3.8c1,1.1,2.3,2,3.9,2.5c1.6,0.6,3.1,0.7,4.6,0.5s2.8-0.8,3.9-1.7c1.1-0.9,1.9-2.1,2.4-3.6
			C269.2,209.9,269.4,208.4,269.1,207z"/>
		<path class="st1" d="M265.7,169.2l19.9,9.6l-1.2,2.6l-3.6-1.7c0.9,1.3,1.3,2.7,1.4,4.3c0.1,1.6-0.3,3.1-1,4.7
			c-1.3,2.6-3,4.3-5.1,5.1c-2.2,0.8-4.7,0.5-7.5-0.8l-11.5-5.6l1.3-2.7l11.3,5.4c2.1,1,3.9,1.3,5.5,0.7c1.6-0.5,2.8-1.7,3.8-3.6
			c1-2.1,1.2-4.1,0.5-5.9s-2.2-3.3-4.4-4.4l-10.4-5L265.7,169.2z"/>
		<path class="st1" d="M274.3,156.1c0.1-1.6,0.6-3.2,1.6-5l2.5,1.5l-0.4,0.6c-1.2,2-1.5,3.9-0.9,5.8c0.6,1.9,2,3.4,4.2,4.8l9.7,5.7
			l-1.5,2.6l-19-11.2l1.5-2.5l3.7,2.2C274.7,159.2,274.2,157.7,274.3,156.1z"/>
		<path class="st1" d="M306.6,110.1l12,20.3l-1.8,2.2l-18.5-5.9l9.8,16.7l-1.8,2.2l-22.5-7.3l1.8-2.2l19,6.3l-10.2-17.3l1.6-2
			l19.1,6.2l-10.3-17.2L306.6,110.1z"/>
		<path class="st1" d="M332.8,101.2l-13.1,13c1.7,1.5,3.7,2.2,5.8,2.1c2.1-0.1,4.1-1,5.8-2.8c1-1,1.7-2,2.2-3.2
			c0.5-1.2,0.7-2.4,0.6-3.6l2.6,0.2c0.1,1.5-0.1,3-0.7,4.5c-0.6,1.5-1.5,2.8-2.8,4.1c-1.6,1.6-3.4,2.7-5.3,3.2s-3.8,0.6-5.7,0
			c-1.9-0.5-3.6-1.5-5.1-3.1c-1.5-1.5-2.6-3.2-3.1-5.1c-0.5-1.9-0.6-3.7-0.1-5.6c0.5-1.8,1.5-3.5,2.9-4.9c1.4-1.4,3.1-2.4,4.9-2.9
			c1.8-0.5,3.7-0.4,5.5,0.1c1.8,0.5,3.5,1.6,5.1,3.1L332.8,101.2z M316.1,107.2c-0.1,2,0.6,3.8,2,5.5l11.1-11.1
			c-1.7-1.4-3.5-2.1-5.5-2c-2,0.1-3.7,0.8-5.3,2.4C316.9,103.4,316.2,105.2,316.1,107.2z"/>
		<path class="st1" d="M323.8,81.2l2.3-2l20.4,23.5l-2.3,2L323.8,81.2z"/>
		<path class="st1" d="M333.2,73.3l2.3-1.9L355,95.8l-2.3,1.9L333.2,73.3z"/>
		<path class="st1" d="M352.6,81.6l8.9-6.4l1.5,2.1l-8.9,6.4L352.6,81.6z"/>
		<path class="st1" d="M377.8,55.4c1.9-0.1,3.7,0.4,5.4,1.4c1.7,1,3.1,2.4,4.2,4.3c1.1,1.9,1.7,3.8,1.8,5.7c0.1,2-0.4,3.8-1.3,5.5
			c-1,1.7-2.3,3.1-4.1,4.1c-1.6,0.9-3.2,1.5-4.9,1.5c-1.7,0.1-3.3-0.3-4.8-1.1l2.2,3.7l-2.5,1.5l-16-26.7l2.6-1.5l6.8,11.4
			c0.1-1.7,0.5-3.2,1.4-4.6c0.9-1.4,2.1-2.5,3.6-3.4C374,56,375.8,55.4,377.8,55.4z M385.3,71.1c0.7-1.3,1-2.6,1-4.1
			c-0.1-1.5-0.5-3-1.4-4.4s-1.9-2.5-3.2-3.3c-1.3-0.8-2.7-1.1-4.1-1.1c-1.4,0-2.8,0.4-4.2,1.2c-1.3,0.8-2.4,1.8-3.1,3.1
			c-0.7,1.3-1,2.6-1,4.1c0.1,1.5,0.5,3,1.4,4.4s1.9,2.5,3.2,3.3c1.3,0.8,2.7,1.1,4.1,1.1c1.4,0,2.8-0.4,4.2-1.3
			C383.5,73.4,384.6,72.4,385.3,71.1z"/>
		<path class="st1" d="M411.1,50.8l-16.7,7.9c1.1,2,2.7,3.3,4.8,3.9c2,0.6,4.2,0.4,6.4-0.6c1.2-0.6,2.3-1.3,3.1-2.3
			c0.8-0.9,1.4-2,1.8-3.2l2.3,1c-0.4,1.5-1.1,2.8-2.2,4c-1.1,1.2-2.4,2.1-4,2.9c-2.1,1-4.1,1.4-6.1,1.2c-2-0.1-3.8-0.8-5.4-1.9
			c-1.6-1.1-2.9-2.7-3.8-4.6c-0.9-2-1.3-3.9-1.2-5.8c0.1-1.9,0.7-3.7,1.8-5.3c1.1-1.6,2.5-2.8,4.4-3.6s3.7-1.2,5.6-1
			c1.9,0.2,3.6,0.8,5.1,2c1.6,1.1,2.8,2.7,3.7,4.7L411.1,50.8z M393.4,50.8c-0.7,1.8-0.7,3.8,0,5.9l14.2-6.7
			c-1.1-1.9-2.6-3.1-4.5-3.8c-1.9-0.6-3.8-0.5-5.8,0.4C395.4,47.6,394.1,48.9,393.4,50.8z"/>
		<path class="st1" d="M410.7,32.4c-0.5-0.2-0.9-0.6-1.1-1.2c-0.2-0.5-0.2-1.1,0.1-1.6c0.2-0.5,0.6-0.9,1.2-1.1
			c0.6-0.2,1.1-0.2,1.7,0c0.5,0.2,0.9,0.6,1.1,1.1c0.2,0.6,0.2,1.1,0,1.7c-0.2,0.5-0.6,0.9-1.2,1.1
			C411.8,32.6,411.2,32.6,410.7,32.4z M412.7,37.4l2.8-1.1l8,20.6l-2.8,1.1L412.7,37.4z"/>
		<path class="st1" d="M442,29.9c2,1.1,3.5,3.1,4.4,6l3.7,12.3l-2.9,0.9l-3.6-12c-0.7-2.2-1.7-3.7-3.2-4.5c-1.4-0.8-3.2-0.9-5.2-0.3
			c-2.3,0.7-3.9,1.9-4.8,3.7c-0.9,1.8-1,3.8-0.3,6.2l3.4,11.1l-2.9,0.9L424.3,33l2.7-0.8l1.2,3.9c0.4-1.5,1.2-2.8,2.3-4
			c1.2-1.1,2.7-2,4.5-2.5C437.6,28.7,440,28.9,442,29.9z"/>
		<path class="st1" d="M473.3,20.9L477,40c0.7,3.7,0.3,6.6-1.2,8.7c-1.5,2.1-4,3.5-7.6,4.2c-2,0.4-4,0.4-5.9,0.2
			c-1.9-0.3-3.5-0.8-4.9-1.6l1.1-2.5c1.2,0.7,2.6,1.2,4.2,1.5c1.6,0.2,3.2,0.2,4.9-0.1c2.8-0.5,4.7-1.5,5.7-3.1s1.3-3.6,0.8-6.3
			l-0.5-2.8c-0.6,1.5-1.6,2.8-3,3.8c-1.3,1-2.9,1.7-4.7,2c-2,0.4-4,0.3-5.8-0.3c-1.8-0.6-3.4-1.6-4.6-3s-2.1-3.2-2.5-5.2
			c-0.4-2-0.3-3.9,0.4-5.7c0.6-1.8,1.7-3.3,3.2-4.5c1.5-1.2,3.3-2,5.3-2.4c1.8-0.3,3.6-0.3,5.2,0.2c1.6,0.5,3,1.3,4.2,2.5l-0.8-4.2
			L473.3,20.9z M469.8,39.5c1.1-0.9,1.9-2,2.4-3.4c0.5-1.3,0.6-2.8,0.3-4.3c-0.3-1.5-0.9-2.8-1.8-3.9c-0.9-1.1-2.1-1.8-3.5-2.3
			c-1.4-0.4-2.9-0.5-4.5-0.2c-1.6,0.3-2.9,0.9-4,1.8s-1.9,2-2.4,3.4c-0.5,1.3-0.6,2.8-0.3,4.3s0.9,2.8,1.8,3.9
			c0.9,1.1,2.1,1.8,3.5,2.3c1.4,0.4,2.9,0.5,4.4,0.2S468.6,40.4,469.8,39.5z"/>
		<path class="st1" d="M493.9,13.3c-0.4-0.4-0.7-0.9-0.7-1.5c0-0.6,0.1-1.1,0.5-1.5c0.4-0.4,0.9-0.7,1.5-0.7s1.1,0.1,1.6,0.5
			c0.4,0.4,0.7,0.8,0.7,1.4c0,0.6-0.1,1.1-0.5,1.6c-0.4,0.4-0.9,0.7-1.5,0.7C494.9,13.8,494.3,13.6,493.9,13.3z M494.3,18.7l3-0.2
			l1.6,22l-3,0.2L494.3,18.7z"/>
		<path class="st1" d="M507.5,39.5c-1.6-0.5-2.9-1.1-3.9-1.9l1.3-2.4c0.9,0.7,2.1,1.3,3.5,1.7s2.9,0.6,4.4,0.6c2,0,3.5-0.4,4.5-1
			c1-0.6,1.4-1.5,1.4-2.7c0-0.8-0.3-1.4-0.8-1.9c-0.5-0.5-1.2-0.8-2-1c-0.8-0.2-1.9-0.4-3.2-0.6c-1.8-0.3-3.2-0.6-4.3-1
			c-1.1-0.3-2-0.9-2.8-1.7c-0.8-0.8-1.2-2-1.2-3.5c0-1.8,0.7-3.4,2.2-4.6c1.5-1.2,3.7-1.8,6.4-1.9c1.4,0,2.9,0.1,4.3,0.5
			c1.4,0.4,2.6,0.8,3.6,1.4l-1.3,2.4c-1.8-1.2-4-1.8-6.5-1.8c-1.9,0-3.3,0.4-4.3,1.1s-1.4,1.6-1.4,2.7c0,0.8,0.3,1.5,0.9,2
			c0.6,0.5,1.2,0.9,2.1,1.1c0.8,0.2,1.9,0.5,3.4,0.7c1.8,0.3,3.2,0.6,4.3,0.9s2,0.9,2.8,1.7c0.8,0.8,1.2,1.9,1.2,3.3
			c0,1.9-0.7,3.5-2.3,4.6c-1.6,1.2-3.8,1.8-6.7,1.8C510.9,40.2,509.2,40,507.5,39.5z"/>
		<path class="st1" d="M557.2,35.1l-16.3-2l-4.5,7.4l-3.2-0.4l16.9-27.6l3,0.4l9.8,30.8l-3.3-0.4L557.2,35.1z M556.4,32.4l-5.1-16.5
			l-8.9,14.8L556.4,32.4z"/>
		<path class="st1" d="M567.2,44.3c-1.5-0.9-2.6-1.8-3.3-2.7l1.8-2c0.7,0.9,1.8,1.7,3,2.5c1.3,0.8,2.6,1.3,4.1,1.6
			c2,0.4,3.5,0.4,4.6,0c1.1-0.4,1.7-1.2,2-2.3c0.2-0.8,0-1.5-0.4-2c-0.4-0.6-1-1.1-1.7-1.5c-0.7-0.4-1.7-0.9-3-1.4
			c-1.7-0.7-3-1.4-4-1.9c-1-0.6-1.8-1.4-2.3-2.3c-0.6-1-0.7-2.2-0.4-3.7c0.4-1.8,1.5-3.1,3.2-3.9c1.8-0.8,4-0.9,6.7-0.4
			c1.4,0.3,2.8,0.8,4.1,1.5s2.4,1.4,3.1,2.2l-1.8,2.1c-1.5-1.6-3.5-2.7-6-3.2c-1.9-0.4-3.3-0.4-4.4,0.1c-1.1,0.5-1.7,1.2-2,2.3
			c-0.2,0.8-0.1,1.5,0.4,2.1c0.4,0.6,1,1.1,1.8,1.5c0.7,0.4,1.8,0.9,3.1,1.4c1.7,0.7,3,1.3,3.9,1.9s1.7,1.3,2.3,2.3
			c0.6,1,0.7,2.1,0.4,3.5c-0.4,1.9-1.5,3.2-3.3,4c-1.8,0.8-4.1,0.8-6.9,0.2C570.3,45.8,568.6,45.1,567.2,44.3z"/>
		<path class="st1" d="M586.6,48.9c-1.4-1-2.5-2-3.1-3l2-1.9c0.7,1,1.6,1.9,2.8,2.7c1.2,0.8,2.5,1.5,4,1.9c1.9,0.6,3.4,0.7,4.6,0.4
			c1.1-0.3,1.8-1,2.2-2.1c0.2-0.8,0.2-1.5-0.2-2.1c-0.4-0.6-0.9-1.1-1.6-1.6c-0.7-0.5-1.7-1-2.9-1.6c-1.6-0.8-2.9-1.6-3.8-2.2
			c-0.9-0.6-1.7-1.5-2.2-2.5s-0.5-2.2-0.1-3.7c0.5-1.8,1.7-3,3.5-3.7c1.8-0.7,4-0.6,6.7,0.2c1.4,0.4,2.7,1,3.9,1.8
			c1.3,0.8,2.2,1.6,2.9,2.4l-1.9,1.9c-1.4-1.7-3.3-3-5.7-3.7c-1.8-0.5-3.3-0.6-4.4-0.3c-1.1,0.4-1.8,1.1-2.2,2.1
			c-0.2,0.8-0.2,1.5,0.2,2.2c0.4,0.6,0.9,1.2,1.6,1.7c0.7,0.5,1.7,1,3,1.7c1.6,0.8,2.8,1.6,3.8,2.2c0.9,0.6,1.6,1.4,2.1,2.4
			c0.5,1,0.5,2.2,0.1,3.5c-0.6,1.8-1.8,3.1-3.6,3.7c-1.9,0.6-4.2,0.5-6.9-0.3C589.6,50.6,588,49.9,586.6,48.9z"/>
		<path class="st1" d="M631.4,42.1l-8.3,20.5l-2.6-1.1l1.5-3.7c-1.2,1-2.6,1.5-4.2,1.7c-1.6,0.2-3.1-0.1-4.8-0.7
			c-2.7-1.1-4.5-2.7-5.4-4.8c-0.9-2.1-0.8-4.6,0.3-7.5l4.8-11.9l2.8,1.1l-4.7,11.6c-0.9,2.2-1,4-0.4,5.6c0.6,1.5,1.9,2.7,3.9,3.5
			c2.2,0.9,4.1,0.9,5.9,0.1c1.8-0.8,3.1-2.4,4.1-4.7l4.3-10.7L631.4,42.1z"/>
		<path class="st1" d="M645,49.9c1.6,0,3.3,0.4,5.1,1.3l-1.3,2.6l-0.6-0.4c-2.1-1.1-4-1.2-5.8-0.6s-3.3,2.2-4.5,4.5l-5.1,10
			l-2.7-1.3l10-19.7l2.5,1.3l-2,3.9C642,50.5,643.4,49.9,645,49.9z"/>
		<path class="st1" d="M665.8,74.6L650,65c-1,2-1.3,4.1-0.6,6.1s2,3.7,4.1,5c1.2,0.7,2.4,1.2,3.6,1.3c1.2,0.2,2.5,0.1,3.7-0.3
			l0.4,2.5c-1.4,0.5-3,0.6-4.5,0.4c-1.6-0.2-3.1-0.8-4.6-1.7c-1.9-1.2-3.4-2.6-4.4-4.4c-1-1.7-1.5-3.6-1.4-5.6c0-2,0.6-3.9,1.8-5.7
			c1.1-1.8,2.5-3.3,4.2-4.2s3.5-1.4,5.4-1.4c1.9,0,3.7,0.6,5.5,1.6c1.7,1.1,3.1,2.4,4,4.1c0.9,1.7,1.3,3.4,1.2,5.4s-0.7,3.8-1.8,5.7
			L665.8,74.6z M656,59.8c-1.9,0.4-3.6,1.5-4.9,3.3l13.4,8.1c1-2,1.2-3.9,0.7-5.8c-0.5-1.9-1.7-3.4-3.6-4.5
			C659.9,59.8,658,59.4,656,59.8z"/>
		<path class="st1" d="M699.9,73.6l-18.8,24.9l-2.3-1.7l2.6-3.5c-1.6,0.6-3.2,0.8-4.9,0.6c-1.6-0.3-3.2-0.9-4.7-2.1
			c-1.7-1.2-2.9-2.8-3.6-4.5s-1-3.6-0.8-5.6c0.3-1.9,1.1-3.8,2.4-5.5c1.3-1.7,2.9-3,4.7-3.8c1.8-0.8,3.6-1.1,5.5-0.8s3.7,1,5.3,2.3
			c1.4,1.1,2.5,2.3,3.2,3.8c0.7,1.5,1,3,0.9,4.7l8-10.6L699.9,73.6z M677.7,91.4c1.4,0.2,2.8,0,4.2-0.7c1.4-0.6,2.5-1.6,3.6-2.9
			c1-1.3,1.6-2.8,1.9-4.2c0.2-1.5,0-2.9-0.5-4.2c-0.6-1.3-1.5-2.4-2.7-3.4c-1.3-0.9-2.6-1.5-4-1.7c-1.4-0.2-2.8,0-4.2,0.7
			c-1.4,0.6-2.5,1.6-3.6,2.9c-1,1.3-1.6,2.8-1.9,4.2c-0.2,1.5-0.1,2.9,0.5,4.2c0.6,1.3,1.5,2.5,2.7,3.4
			C674.9,90.7,676.3,91.3,677.7,91.4z"/>
		<path class="st1" d="M690.9,102.1c0,0.6-0.2,1.1-0.6,1.6c-0.2,0.3-0.5,0.5-0.8,0.7c-0.3,0.2-0.7,0.5-1.2,0.7l-5.1,3.2l-1.5-1.3
			l5.1-3.7c-0.2-0.4-0.4-0.8-0.3-1.3c0-0.5,0.2-0.9,0.6-1.3c0.4-0.5,0.9-0.8,1.5-0.8c0.6-0.1,1.1,0.1,1.6,0.6
			C690.6,101,690.9,101.5,690.9,102.1z"/>
		<path class="st1" d="M739.3,125.8l-22,8.5l-1.9-2.1l8.9-17.3l-18.1,6.9l-1.9-2.1l10.9-20.9l1.9,2.1l-9.4,17.7l18.7-7.2l1.7,1.9
			l-9.3,17.8l18.7-7.3L739.3,125.8z"/>
		<path class="st1" d="M742.4,130.8l1.8,2.4l-17.7,13.2l-1.8-2.4L742.4,130.8z M746.7,127.5c0.1-0.6,0.4-1.1,0.8-1.4
			c0.4-0.3,1-0.5,1.6-0.4c0.6,0.1,1.1,0.4,1.4,0.9c0.4,0.5,0.5,1,0.4,1.6c-0.1,0.6-0.3,1-0.8,1.4c-0.5,0.4-1,0.5-1.6,0.4
			c-0.6-0.1-1.1-0.4-1.4-0.9C746.8,128.6,746.6,128.1,746.7,127.5z"/>
		<path class="st1" d="M738.6,161.7c-0.7-0.2-1.4-0.6-2.1-1.1c-0.7-0.5-1.3-1.2-1.8-1.9c-1.1-1.7-1.6-3.4-1.3-4.9
			c0.3-1.6,1.3-2.9,3-4l11.1-7.4l-2.2-3.3l2.1-1.4l2.2,3.3l4-2.7l1.7,2.5l-4,2.7l3.7,5.6l-2.1,1.4l-3.7-5.6l-11,7.3
			c-1.1,0.7-1.7,1.6-2,2.5s0,1.9,0.7,2.9c0.3,0.5,0.8,1,1.2,1.3c0.5,0.4,1,0.6,1.5,0.8L738.6,161.7z"/>
		<path class="st1" d="M766.1,172.6c-0.6,2.2-2.3,4.1-5,5.5l-11.2,6.2l-1.4-2.6l11-6c2-1.1,3.3-2.5,3.8-4c0.5-1.6,0.2-3.3-0.8-5.2
			c-1.1-2.1-2.7-3.4-4.6-3.9c-1.9-0.5-4-0.2-6.1,1l-10.2,5.6l-1.4-2.6l27.3-15l1.4,2.6l-11.3,6.2c1.5,0.1,2.9,0.6,4.2,1.5
			c1.3,0.9,2.4,2.2,3.3,3.8C766.4,168.1,766.7,170.4,766.1,172.6z"/>
		<path class="st1" d="M761.5,203c1.3-2.7,4-4.8,7.9-6.2l15.8-5.7l1.1,2.9l-15.7,5.7c-3.2,1.2-5.4,2.7-6.4,4.8
			c-1.1,2-1.1,4.4-0.1,7.1c1,2.8,2.5,4.6,4.6,5.5c2.1,0.9,4.8,0.7,8-0.4l15.7-5.7l1,2.8l-15.8,5.7c-3.9,1.4-7.3,1.5-10,0.2
			c-2.8-1.3-4.8-3.7-6.1-7.3C760.1,208.9,760.2,205.8,761.5,203z"/>
		<path class="st1" d="M768.5,232.1c0.1-1.7,0.4-3.1,1-4.2l2.6,0.7c-0.5,1.1-0.8,2.3-0.9,3.8c-0.1,1.5,0,2.9,0.4,4.4
			c0.5,2,1.2,3.3,2,4.1s1.8,1,2.9,0.8c0.8-0.2,1.3-0.6,1.7-1.2c0.3-0.6,0.5-1.4,0.5-2.2c0-0.8,0-1.9-0.1-3.3c-0.1-1.8-0.1-3.3,0-4.4
			c0.1-1.1,0.4-2.2,1.1-3.1c0.6-1,1.7-1.6,3.1-2c1.8-0.4,3.4-0.1,5,1.1c1.5,1.2,2.6,3.1,3.3,5.8c0.3,1.4,0.5,2.8,0.5,4.3
			c0,1.5-0.2,2.7-0.6,3.8l-2.6-0.7c0.8-2.1,0.9-4.3,0.3-6.8c-0.5-1.8-1.1-3.2-2-3.9c-0.9-0.8-1.9-1-2.9-0.8
			c-0.8,0.2-1.4,0.6-1.8,1.3c-0.4,0.7-0.6,1.4-0.6,2.2c0,0.8,0,2,0.1,3.4c0.1,1.8,0.1,3.2,0,4.4s-0.4,2.1-1,3.1s-1.6,1.6-3,1.9
			c-1.9,0.5-3.6,0.1-5-1.2c-1.5-1.3-2.6-3.3-3.3-6.1C768.6,235.6,768.4,233.9,768.5,232.1z"/>
	</g>
	<path class="st2" d="M777,300.6c0,145.2-117.7,262.9-262.9,262.9S251.2,445.8,251.2,300.6"/>
	<g>
		<circle class="st0" cx="260.1" cy="368.3" r="23.1"/>
		<circle class="st3" cx="260.1" cy="368.3" r="14.1"/>
	</g>
	<g>
		<circle class="st0" cx="328.4" cy="487.9" r="23.1"/>
		<circle class="st4" cx="328.4" cy="487.9" r="14.1"/>
	</g>
	<g>
		<circle class="st0" cx="516.3" cy="563.5" r="23.1"/>
		<circle class="st5" cx="516.3" cy="563.5" r="14.1"/>
	</g>
	<g>
		<circle class="st0" cx="768.4" cy="368.3" r="23.1"/>
		<circle class="st6" cx="768.4" cy="368.3" r="14.1"/>
	</g>
	<g>
		<circle class="st0" cx="699.8" cy="487.9" r="23.1"/>
		<circle class="st3" cx="699.8" cy="487.9" r="14.1"/>
	</g>
	<circle class="st3" cx="251.2" cy="300.6" r="10.8"/>
	<circle class="st6" cx="777" cy="300.6" r="10.8"/>
	<g>
		<linearGradient id="SVGID_1_" gradientUnits="userSpaceOnUse" x1="9.6999" y1="447.9718" x2="236.6399" y2="447.9718">
			<stop  offset="0" style="stop-color:#FFFFFF"/>
			<stop  offset="1" style="stop-color:#000000"/>
		</linearGradient>
		<line class="st7" x1="236.6" y1="381.4" x2="9.7" y2="514.6"/>
		<g>
			<linearGradient id="SVGID_2_" gradientUnits="userSpaceOnUse" x1="8.6873" y1="444.3553" x2="237.6524" y2="444.3553">
				<stop  offset="0" style="stop-color:#A8AAAD"/>
				<stop  offset="1" style="stop-color:#FFFFFF"/>
			</linearGradient>
			<line class="st8" x1="236.6" y1="381.4" x2="22" y2="507.4"/>
			<g>
				<linearGradient id="SVGID_3_" gradientUnits="userSpaceOnUse" x1="8.6873" y1="506.971" x2="237.6524" y2="506.971">
					<stop  offset="0" style="stop-color:#A8AAAD"/>
					<stop  offset="1" style="stop-color:#FFFFFF"/>
				</linearGradient>
				<path class="st9" d="M15.1,494c-7.2,4.2-9.6,13.4-5.4,20.6c4.2,7.2,13.4,9.6,20.6,5.4c7.2-4.2,9.6-13.4,5.4-20.6
					C31.4,492.2,22.2,489.8,15.1,494z"/>
			</g>
		</g>
	</g>
	<g>
		
			<linearGradient id="SVGID_4_" gradientUnits="userSpaceOnUse" x1="1279.7706" y1="-369.3674" x2="1381.184" y2="-369.3674" gradientTransform="matrix(0.5063 -0.8624 0.8624 0.5063 161.2451 1987.8169)">
			<stop  offset="0" style="stop-color:#FFFFFF"/>
			<stop  offset="1" style="stop-color:#000000"/>
		</linearGradient>
		<line class="st10" x1="516.3" y1="594.6" x2="516.3" y2="712.2"/>
		<g>
			<linearGradient id="SVGID_5_" gradientUnits="userSpaceOnUse" x1="486.9782" y1="696.2142" x2="539.3452" y2="607.0111">
				<stop  offset="0" style="stop-color:#A8AAAD"/>
				<stop  offset="1" style="stop-color:#FFFFFF"/>
			</linearGradient>
			<line class="st11" x1="516.3" y1="594.6" x2="516.3" y2="698"/>
			<g>
				<linearGradient id="SVGID_6_" gradientUnits="userSpaceOnUse" x1="509.202" y1="709.2607" x2="561.5689" y2="620.0576">
					<stop  offset="0" style="stop-color:#A8AAAD"/>
					<stop  offset="1" style="stop-color:#FFFFFF"/>
				</linearGradient>
				<path class="st12" d="M501.2,697.2c0,8.3,6.7,15,15,15c8.3,0,15-6.7,15-15c0-8.3-6.7-15-15-15
					C508,682.2,501.2,688.9,501.2,697.2z"/>
			</g>
		</g>
	</g>
	<g>
		
			<linearGradient id="SVGID_7_" gradientUnits="userSpaceOnUse" x1="2199.9651" y1="447.9718" x2="2426.905" y2="447.9718" gradientTransform="matrix(-1 0 0 1 3222.8262 0)">
			<stop  offset="0" style="stop-color:#FFFFFF"/>
			<stop  offset="1" style="stop-color:#000000"/>
		</linearGradient>
		<line class="st13" x1="795.9" y1="381.4" x2="1022.9" y2="514.6"/>
		<g>
			<linearGradient id="SVGID_8_" gradientUnits="userSpaceOnUse" x1="1023.8737" y1="444.3553" x2="794.9086" y2="444.3553">
				<stop  offset="0" style="stop-color:#A8AAAD"/>
				<stop  offset="1" style="stop-color:#FFFFFF"/>
			</linearGradient>
			<line class="st14" x1="795.9" y1="381.4" x2="1010.5" y2="507.4"/>
			<g>
				<linearGradient id="SVGID_9_" gradientUnits="userSpaceOnUse" x1="1023.8737" y1="506.971" x2="794.9086" y2="506.971">
					<stop  offset="0" style="stop-color:#A8AAAD"/>
					<stop  offset="1" style="stop-color:#FFFFFF"/>
				</linearGradient>
				<path class="st15" d="M1002.3,519.9c7.2,4.2,16.4,1.8,20.6-5.4c4.2-7.2,1.8-16.4-5.4-20.6c-7.2-4.2-16.4-1.8-20.6,5.4
					C992.7,506.5,995.1,515.7,1002.3,519.9z"/>
			</g>
		</g>
	</g>
	<g>
		
			<linearGradient id="SVGID_10_" gradientUnits="userSpaceOnUse" x1="2400.124" y1="974.0866" x2="2627.0642" y2="974.0866" gradientTransform="matrix(-0.7385 -0.1613 -0.5089 0.7703 3124.0403 238.9528)">
			<stop  offset="0" style="stop-color:#FFFFFF"/>
			<stop  offset="1" style="stop-color:#000000"/>
		</linearGradient>
		<line class="st16" x1="722.1" y1="514.2" x2="821.9" y2="653.4"/>
		<g>
			<linearGradient id="SVGID_11_" gradientUnits="userSpaceOnUse" x1="836.446" y1="593.0143" x2="709.5461" y2="565.2985">
				<stop  offset="0" style="stop-color:#A8AAAD"/>
				<stop  offset="1" style="stop-color:#FFFFFF"/>
			</linearGradient>
			<line class="st17" x1="722.1" y1="514.2" x2="813.6" y2="641.8"/>
			<g>
				<linearGradient id="SVGID_12_" gradientUnits="userSpaceOnUse" x1="825.3345" y1="643.8895" x2="698.4346" y2="616.1736">
					<stop  offset="0" style="stop-color:#A8AAAD"/>
					<stop  offset="1" style="stop-color:#FFFFFF"/>
				</linearGradient>
				<circle class="st18" cx="813.1" cy="641.2" r="15"/>
			</g>
		</g>
	</g>
	<g>
		
			<linearGradient id="SVGID_13_" gradientUnits="userSpaceOnUse" x1="-1727.7125" y1="109.7026" x2="-1500.7725" y2="109.7026" gradientTransform="matrix(0.7385 -0.1613 0.5089 0.7703 1396.3966 238.9528)">
			<stop  offset="0" style="stop-color:#FFFFFF"/>
			<stop  offset="1" style="stop-color:#000000"/>
		</linearGradient>
		<line class="st19" x1="310" y1="514.2" x2="210.2" y2="653.4"/>
		<g>
			<linearGradient id="SVGID_14_" gradientUnits="userSpaceOnUse" x1="195.5919" y1="593.0143" x2="322.4918" y2="565.2985">
				<stop  offset="0" style="stop-color:#A8AAAD"/>
				<stop  offset="1" style="stop-color:#FFFFFF"/>
			</linearGradient>
			<line class="st20" x1="310" y1="514.2" x2="218.5" y2="641.8"/>
			<g>
				<linearGradient id="SVGID_15_" gradientUnits="userSpaceOnUse" x1="206.7033" y1="643.8895" x2="333.6032" y2="616.1736">
					<stop  offset="0" style="stop-color:#A8AAAD"/>
					<stop  offset="1" style="stop-color:#FFFFFF"/>
				</linearGradient>
				<path class="st21" d="M206.7,632.5c-4.8,6.7-3.3,16.1,3.5,21c6.7,4.8,16.1,3.3,21-3.5c4.8-6.7,3.3-16.1-3.5-21
					C220.9,624.2,211.5,625.7,206.7,632.5z"/>
			</g>
		</g>
	</g>
</g>
</svg>
