<svg xmlns="http://www.w3.org/2000/svg" width="69.879" height="69.879" viewBox="0 0 69.879 69.879">
  <g id="leading_" data-name="leading " transform="translate(-1213.049 -527.425)">
    <path id="Path_110" data-name="Path 110" d="M1217.629,580.542a1.42,1.42,0,0,1-.965-2.462l.012-.012a1.42,1.42,0,0,1,1.93,2.084l-.012.012A1.418,1.418,0,0,1,1217.629,580.542Z" fill="#26a78d"/>
    <path id="Path_111" data-name="Path 111" d="M1213.049,572.591h10.3V597.3h-10.3" fill="#26a78d"/>
    <g id="Group_20" data-name="Group 20">
      <path id="Path_112" data-name="Path 112" d="M1223.346,574.011h11.6a16.06,16.06,0,0,1,9.972,3.471l5.936,4.7a3.9,3.9,0,0,1-.949,6.669h0a3.9,3.9,0,0,1-3.632-.362l-7.583-5.036,19.191-1.29,14.384-7.209a4.625,4.625,0,0,1,5.973,1.651h0a4.625,4.625,0,0,1-1.685,6.544l-19.338,10.554a17.711,17.711,0,0,1-8.487,2.166h-25.377" fill="#26a78d"/>
      <g id="Group_19" data-name="Group 19">
        <path id="Path_113" data-name="Path 113" d="M1272.63,550.718h-11.6a16.055,16.055,0,0,1-9.971-3.471l-5.936-4.7a3.9,3.9,0,0,1,.949-6.669h0a3.9,3.9,0,0,1,3.632.362l7.583,5.036-19.191,1.29-14.385,7.209a4.624,4.624,0,0,1-5.972-1.651h0a4.624,4.624,0,0,1,1.685-6.544l19.337-10.554a17.718,17.718,0,0,1,8.488-2.166h25.377Z" fill="#76bf44"/>
        <path id="Path_114" data-name="Path 114" d="M1282.927,552.138h-10.3V527.425h10.3" fill="#76bf44"/>
      </g>
      <path id="Path_115" data-name="Path 115" d="M1251.921,555.542a5.321,5.321,0,0,1-7.866,0,5.485,5.485,0,0,0-5.414,5.552c0,4.3,9.347,10.213,9.347,10.213s9.346-5.917,9.346-10.213A5.484,5.484,0,0,0,1251.921,555.542Z" fill="#ff5d5d"/>
    </g>
  </g>
</svg>
