<?xml version="1.0" encoding="utf-8"?>
<!-- Generator: Adobe Illustrator 22.1.0, SVG Export Plug-In . SVG Version: 6.00 Build 0)  -->
<svg version="1.1" id="Layer_1" xmlns="http://www.w3.org/2000/svg" xmlns:xlink="http://www.w3.org/1999/xlink" x="0px" y="0px"
	 viewBox="0 0 569.3 246.3" style="enable-background:new 0 0 569.3 246.3;" xml:space="preserve">
<style type="text/css">
	.st0{fill:#2A55A4;}
	.st1{clip-path:url(#SVGID_2_);}
	.st2{opacity:0.8;fill:#398E76;enable-background:new    ;}
	.st3{opacity:0.85;fill:#01A0C6;enable-background:new    ;}
	.st4{opacity:0.8;fill:#2E58A6;enable-background:new    ;}
	.st5{opacity:0.8;fill:#1D5158;enable-background:new    ;}
	.st6{opacity:0.8;fill:#271184;enable-background:new    ;}
	.st7{opacity:0.8;fill:#6CBB2F;enable-background:new    ;}
	.st8{opacity:0.8;fill:#4FA0CA;enable-background:new    ;}
	.st9{opacity:0.95;fill:#2E58A6;enable-background:new    ;}
	.st10{opacity:0.95;fill:#01A0C6;enable-background:new    ;}
	.st11{opacity:0.95;fill:#EFE20F;enable-background:new    ;}
	.st12{opacity:0.95;fill:#41AA54;enable-background:new    ;}
	.st13{opacity:0.95;fill:#F7BD10;enable-background:new    ;}
	.st14{opacity:0.95;fill:#F70A00;enable-background:new    ;}
	.st15{opacity:0.8;}
	.st16{fill:#01A0C6;}
	.st17{opacity:0.95;fill:#360045;enable-background:new    ;}
	.st18{opacity:0.8;fill:#2A53A3;enable-background:new    ;}
	.st19{opacity:0.8;fill:#90AD30;enable-background:new    ;}
	.st20{fill:#F3F917;}
	.st21{opacity:0.8;fill:#FF4D00;enable-background:new    ;}
	.st22{opacity:0.8;fill:#920147;enable-background:new    ;}
	.st23{fill:#6D027C;}
	.st24{opacity:0.8;fill:#01A0C6;enable-background:new    ;}
	.st25{opacity:0.8;fill:#840142;enable-background:new    ;}
	.st26{fill:#D41989;}
	.st27{opacity:0.8;fill:#321183;enable-background:new    ;}
	.st28{opacity:0.8;fill:#FF3408;enable-background:new    ;}
	.st29{opacity:0.8;fill:#110B79;enable-background:new    ;}
	.st30{fill:#110B79;}
	.st31{fill:#FC322A;}
	.st32{fill:#FF8400;}
	.st33{opacity:0.8;fill:#A8D713;enable-background:new    ;}
	.st34{fill:#F0C60D;}
	.st35{fill:#4FA0CA;}
	.st36{fill:#FFAA00;}
	.st37{fill:#2E58A6;}
	.st38{opacity:0.8;fill:#F4A40A;enable-background:new    ;}
	.st39{opacity:0.8;fill:#FEAB00;enable-background:new    ;}
	.st40{opacity:0.54;fill:#2E58A6;enable-background:new    ;}
	.st41{opacity:0.85;}
	.st42{fill:#F9DA02;}
	.st43{fill:none;stroke:#000000;stroke-width:2.471;stroke-linecap:round;stroke-linejoin:round;stroke-miterlimit:10;}
</style>
<g>
	<path class="st0" d="M325.2,184.9h6.2c0.1,2.1,1.7,3.1,3.8,3.1c1.7,0.1,3.3-1,3.5-2.8c0-0.1,0-0.3,0-0.3c0-2-1.1-3.1-5.2-4.7
		c-5.9-2.4-8.1-5.2-8.1-9.8c0-4.9,3.5-8.2,9.3-8.2c5.4,0,9.3,3.1,9.3,8.3h-6.2c0-1.7-1.3-3.1-2.8-3.1c-0.1,0-0.3,0-0.4,0
		c-1.6-0.1-2.8,0.8-3.1,2.3c0,0.1,0,0.3,0,0.4c0,1.8,1.3,2.8,5.5,4.7c5.9,2.5,7.9,5.2,7.9,9.5c0,5.2-3.8,8.9-9.8,8.9
		C329.1,193.4,325.6,189.7,325.2,184.9z"/>
	<path class="st0" d="M283.6,184.9h6.2c0.1,2.1,1.7,3.1,3.8,3.1c1.7,0.1,3.3-1,3.5-2.8c0-0.1,0-0.3,0-0.3c0-2-1.1-3.1-5.2-4.7
		c-5.9-2.4-8.1-5.2-8.1-9.8c0-4.9,3.5-8.2,9.3-8.2c5.4,0,9.3,3.1,9.3,8.3h-6.2c0-1.7-1.3-3.1-2.8-3.1c-0.1,0-0.3,0-0.4,0
		c-1.6-0.1-2.8,0.8-3.1,2.3c0,0.1,0,0.3,0,0.4c0,1.8,1.3,2.8,5.5,4.7c5.9,2.5,7.9,5.2,7.9,9.5c0,5.2-3.8,8.9-9.8,8.9
		C287.6,193.4,283.9,189.7,283.6,184.9z"/>
	<path class="st0" d="M364,180.1v-17.4h6.2v17.7c0,5.2,3.1,7.5,6.5,7.5c3.4,0,6.5-2.3,6.5-7.5v-17.7h6.2v17.4
		c0,9-5.8,13.1-12.6,13.1C369.8,193.4,364,189.3,364,180.1z"/>
	<path class="st0" d="M413.4,192.8h-6.2v-30h10.3c7.4,0,11.9,4.7,11.9,10.5c0.1,3.8-2,7.4-5.5,8.9c3,1.8,4.8,5.1,5.2,9.8l0.1,0.8
		h-6.1L423,192c-0.6-4.9-3.3-7.9-7.5-7.9h-2.1V192.8z M413.4,179h4.1c3.4,0,5.7-1.8,5.7-5.5c0.1-2.8-2-5.4-4.8-5.5
		c-0.3,0-0.6,0-0.8,0h-4.1V179z"/>
	<path class="st0" d="M258.3,188.4h-13l-1.7,4.5h-6.5l12.2-30h4.9l12.2,30h-6.5L258.3,188.4z M247.4,183.2h9l-4.5-11.7L247.4,183.2z
		"/>
	<path class="st0" d="M450.5,162.9h18.4v5.2h-12.3v8.1h10.3v5.2h-10.3v6.2h12.7v5.2h-18.8V162.9z"/>
</g>
<g>
	<g>
		<defs>
			<path id="SVGID_1_" d="M150.8,3.1c8.6,1.9,17,4.8,24.9,8.8c6.9,3.4,13,8.2,18,14.1c4.5,5.4,7,12.2,6.9,19.2
				c0,5.2-1.4,10.3-4.1,14.7c-2.7,4.6-6.1,8.6-10.2,12c-4,3.3-8.4,6.1-13.1,8.2c-4.2,2-8.7,3-13.3,3.1c-3.6,0-7.1-0.4-10.6-1.3
				c-3.4-0.9-6.6-1.9-9.7-2.9c-3.1-1.1-6.2-2.1-9.3-2.9c-3.3-0.9-6.6-1.3-10-1.3c-5.8-0.1-11.6,1.4-16.7,4.1c-5,2.7-9.4,6.5-12.9,11
				c-7.6,9.8-11.7,22-11.6,34.4c-0.1,13,4.7,25.6,13.5,35.2c3.6,4,8,7.4,12.8,9.8c4,2.1,8.5,3.3,13.1,3.4c4,0,7.9-0.7,11.6-2.1
				c3.8-1.4,7.6-2.9,11.5-4.6c3.8-1.6,7.5-3.2,11.1-4.6c3.5-1.4,7.2-2.1,11-2.1c4.5,0.1,9,1.1,13.1,2.9c4.8,2,9.4,4.7,13.4,8
				c4.1,3.4,7.7,7.5,10.5,12c2.8,4.4,4.3,9.5,4.3,14.7c0,6.5-2.3,12.8-6.9,18.8c-5,6.3-11.1,11.7-18,15.9
				c-7.9,4.8-16.5,8.4-25.4,10.8c-9.4,2.6-19.2,3.9-29,3.9c-16.1,0.1-32.1-2.7-47.3-8.2c-14.8-5.3-28.5-13.3-40.3-23.7
				c-11.9-10.6-21.4-23.6-27.8-38.2C3.4,161.1,0,144,0,124.8c0-19.9,3.4-37.5,10.2-53.1c6.3-14.8,15.6-28.1,27.3-39.1
				C48.9,22,62.2,13.8,76.8,8.4c14.9-5.6,30.6-8.5,46.5-8.4C132.6,0,141.8,1.1,150.8,3.1z"/>
		</defs>
		<clipPath id="SVGID_2_">
			<use xlink:href="#SVGID_1_"  style="overflow:visible;"/>
		</clipPath>
		<g class="st1">
			<path class="st2" d="M156.1,143.3c26-8.3,43.3,32.2,27.3,46.3C167.7,203.4,129.9,151.7,156.1,143.3z"/>
			<path class="st3" d="M151.1,27.9c-0.9,0.5-3.2-0.3-3.6,1.3c-1.3,4.3,6.4,3.6,8,7.8c1.6,4.1-6,7.5-4,10.7c0.4,0.7,2.1,0.7,2.1,1.7
				c0,1.6-2.5,0.5-3.8,2.1c-1,1.2,2.1,0.7,0.8,2.9c-2.8,4.9-11.9,2.5-11.6,8.3c0.1,1.4,2.1,3.7,0.3,4.6c-1.6,0.9-2.7-2.1-3.6-2.8
				c-3.5-2.8-3.4,3.5-7.8,3.3c-3.7-0.1-4.4-1-6.7-1.7c-3.1-1-4.5-3.8-7.1-3.1c-1,0.2-1,1.8-2.4,1.8c-2,0,1.1-3.2-0.5-4
				c-1.8-0.9-5.2,0.7-5.6-1.7c-0.2-0.8,0.5-2.9,0.3-3.9c-0.7-2.9-4.7,0.4-8.1-2c-3.7-2.6-8.9-3.2-8.8-6.9c0-1.5,0.3-4.1-2-5.6
				c-3.8-2.5-2.2-7.9-0.2-10.8c1.7-2.4,0.8-6.1,3.2-8.1c2.3-1.9,5.6-1.7,8.7-3.7c2.3-1.5,3.5,2.6,8.5,0.6c2.3-0.9,4.3,2.9,7.2,1.8
				c3.3-2-4.6-8.6-0.8-8.6c3.9,0,3.6,9,6.9,7.7c1.2-0.5,1.2-2,2.4-2.7c1.3-0.8,2.2,1.9,3.2,1.1c2.6-1.9-0.4-7.8,3.6-8.1
				c1.9-0.2,1.2,2.4,3.4,3.5c2.9,1.4,2,9.7,5.6,6.8c1.2-1,0.9-5.8,3.4-4.8c2.3,0.9-1.3,5.3-1,7.2c1.3,4.2,4.8,1.9,9.2,2.1
				c0.9,0,1.7,0.8,1.7,1.7C152,27,151.7,27.6,151.1,27.9z M140.8,41.2c-2.5,0.1-2.7,2-2.5,3.3c0.2,1.4,2.5,1.5,3.8,1.2
				C144.4,45.3,142.9,41.2,140.8,41.2z"/>
			<path class="st4" d="M73.1,49.2c-2.1-0.6-2.5-1.6-4.6-2.4c-1.9-0.8-4.5,2.4-3.1,4.4c0.7,1.1,3.5,1.3,2.5,2.5
				c-0.6,0.7-2.3-0.3-3.4,0.2c-5.4,2.4,4.9,4.9,4.9,7.9c0,0.6-2.3,1.8-4.3,0.7c-2.9-1.5-1.6-3.8-4.2-4.7c-3.2-1.1-3.1,4.6-1.8,8.4
				c1.1,3.3,1.8,2.5,2.3,5.8c0.2,1-0.1,2.1-0.8,2.8c-2.3,0.8-1.7-5.6-4.3-7.6c-1.5-0.1-2,1-3.2,1.3c-1.3,0-0.7-1.3-2-1.3
				c-0.6,0.2-0.5,1-0.3,1.9c0.3,1.5,2,4.2-0.5,4.9c-4.7,1.4-10.6-10.3-11.2-3.8c-0.1,0.6-0.5,1.5-1.1,1.6c-2.3,0.5-1.4-3.1-3.1-3.6
				c-5.1-1.6-11.3-1.2-13.2-4.3c-1.3-2.1-2.6-6-8.1-7.9c-1.4-0.5,1.5-3.4,0.7-4c-3.5-2.6-2-6.8-4.9-10.4c-3.7-4.7,7.6-2.9,6.5-7.7
				c-0.3-1.3-2.6-2.3-2-3.8c0.6-1.4,1.7,0,3.7-0.1c2.2-0.1,4-0.4,4-2.7c0-1.1-1.9-3.9-0.5-5c1.7-1.3,6.4,1.5,6.1-0.8
				c-0.2-1.6,0.1-3.3,1.1-4c1.8,0.4,2.2,4.3,3.3,2.6c0.8-1.2-1.6-2.9,0.3-4c1.5-0.8,2.4,1.3,3.9,1.2c3.1-0.2,2.2,1.8,4.9,1.4
				c3.3-0.5,6.7-1.3,8.9,0.3c1.1,0.8,0.5,2.7,2.1,3.1c1.2-0.3,2.7-1.5,3.6-1.2c1.4,0.5-0.6,1.8,0.8,1.8c1.7,0,1.3-5.3,3.8-6.7
				c2.9-1.6,4.3-1.2,6.9-0.5c2.4,0.6,1.9-2,3.1-1.4c2.2,1,2.9,0.7,5.1,0.4c1.3-0.2,0.3,2.2,1.4,2.6c1.3,0.5,3.3-1,4.1-0.1
				c0.5,0.5-1.3,0.5-2,1.1c-0.8,0.8,2,1.2,3.5,1.2c2.2,0.1,6,2.7,4.4,4.5c-0.3,0.3-1.7,0.7-1.7,1.1c0.1,0.6,1.7,0.5,2.1,1
				c0.3,1.1-1.4,1.3-0.4,2.4c0.7,0.8,2,0.3,1.6,1.3c-0.5,0.6-1.7,0.3-1.7,1.5c0.1,1.3,5,3,3.5,4.2c-0.9,0.8-2.4-1.3-3-1.1
				c-2.7,0.8,1.3,3.6,0,4.6c-1.6,1.1,1.2,1.5-2.2,2.7C81.6,42.1,79.9,51.1,73.1,49.2z M50.3,69.7c-0.8-0.8-1.8,2.9-0.4,2
				C50.9,71.1,51.1,70.4,50.3,69.7z M57.2,48.9c0.8-1.9-2.5-2.6-3.1-1.5C53.3,48.9,56.2,50.7,57.2,48.9z"/>
			<path class="st5" d="M77,197.5c1.1,0.5,1.3-1,2.3-1.1c0.3,0,0.3,0.5,0.7,1.1c0.6,0.7,1.5-0.4,2.4-0.4c4.3,0,0.9-4.8,3.6-5.6
				c2-0.5,2.8,3.3,4.4,4.7c2.4,2,5.6-1.2,8.7-2.2c2.4-0.6,4.9-0.4,7.1,0.8c1.5,0.9,2.1,2.9,4.6,4c1,0.2,0.9-1.1,1.9-0.7
				c1.1,0.4,0.6,2.5,2.3,2.7c3.8,0.3,6.7,0.2,8.2,4c0.5,1.2-0.8,2.5-0.1,3.5c0.5,0.8,1.8,1.2,1.9,2.3c-0.8,2-2.9,1.5-3.8,3.3
				c0.2,1.9,4.2,1,5.5,3.1c1.1,1.8-1.7,3.8-0.1,5.3c0.8,0.8,1.3,0.1,2.3,0.6c4,2.1-0.6,5.1-3.5,1.2c-0.5-0.6-1.9,0.5-2.5,1
				c-2.8,2.2-1.5,3.6-3.4,5.7c-0.3,0.4,0.7,1.6,0.4,2.1c-0.4,0.8-3.2,0.4-3.3,1c-0.4,2.1-1.3,1.4-2.7,2.1c-1,0.6,1.1,1.1,1.8,2
				c1.5,2.1-3.8,3.1-3.8,1.7c0-1,0.7-2.2-0.3-2.1c-5.1,0.4-2.7,5.9-6.8,6.3c-2.3,0.2-9.1-4.7-10.7-3.5c-1.9,1.4-2.4,3.8-4.3,2.5
				c-1.3-0.9,0.1-3.5-0.6-3.4c-1.4,0.2-0.8,5.5-2.8,4.8c-1.5-0.5,1.1-3.4,0.3-4.7c-0.3-0.5-1.1-0.5-1.2,0c-0.6,2.1-2.2,3-2.6,1.3
				c-1.1-5.2-0.8-2.4-3.7-2.3c-0.8,0-1.3-1-1.2-1.6c0.1-0.7,0.5-0.9,0.6-1.7c0.3-1.8-0.7-1.3-1.6,0.1c-0.4,0.6,0.5,3.5-0.5,3.9
				c-1.6,0.6-1.5-2.2-3.1-2.5c-1.3-0.2-0.3-0.7-0.6-1.6c-0.2-0.7-0.9,0.6-1.2-0.2c-0.1-0.2-0.1-0.4-0.2-0.6
				c-0.2-0.9,1.8-0.1,1.8-0.8c0.1-1.3-2.4-1.5-1.7-2.5c0.3-0.5,1.6,0.5,2.5,0c1-0.5,1.4-2.8-1.6-1.7c-0.4,0.2-2,0.5-2.3-0.2
				c-0.4-1.2,0.9-3,2-3.6c2-0.9-1.1-3.5-0.7-5.4c0.2-1,1.1-1.8,1.4-2.8c0.4-1.2,0.7-2.4,0.9-3.6c0.2-1.1,1.2-1.4-0.1-2.4
				c-0.5-0.4-1.7,0.6-2.1-0.2c-0.9-1.7-1.9-4,0.6-5.4c2.1-1.2,3.1-0.6,4.5,0.4c1.7,1.3,2.3,0.1,0.8-1.1c-0.7-0.5-1,0.3-2.3-0.6
				c-0.8-0.6,0.9-1.4,0.4-2.1c-0.7-1.2-3.6,1-4.3-0.5c-0.5-1.2-2.6-0.4-3.3-2.3C67.1,197.4,76.1,197,77,197.5z"/>
			<path class="st6" d="M39.1,208.7c0.4-0.9,4-3,6.4-3.9c10.8-4.2,6-14.3,18.8-9.5c3.8,1.4,8.9,1.1,11.8,2.6
				c3.4,1.6,3.8,4.8,7.8,5.7c12,2.7,9.5,23.3,4.9,32.5c-7.8,15.6-30.4,17.1-43.2,7c-6.6-5.2-11.3-13.7-7.7-25.2
				C39.3,214.1,38.5,210.2,39.1,208.7z"/>
			<path class="st7" d="M178,246.4c-1.3-1.4-2.4-0.2-2.6-1.8c-0.1-1.3,0.1-0.5,0.2-1.7c0.6-5.3-7.2-12.8-8.6-17.3
				c-0.4-1.3,0.6-2.6,1.3-3.4c2.5-3.5,7.7,4.4,12.3,3.2c2.2-0.4,4.5-0.1,6.6,0.8l0.6-0.6l0,0c-3.8-4.1-11.7-3.7-13.2-8.3
				c-0.9-2.8,1-5.1,4-7.9c2.4-2.3,7.7,0.7,11.1,1.1c5.6,0.7,16.3,5.5,17.6-0.2c0.3-1.2-1.5-1.7-4-2.1c-7.1-1.1-18.6,3.3-23.3-3.2
				c-2.9-4-0.1-8.8,1.5-12c0.4-0.8,1.2-5.2-1.1-5.3c-1.9-0.1-2,1-3.7,1.1c-3,0.3-1.9-2.1-3.8-4.8c-2.1-2.9,7.2-9.1,3.5-9.7
				c-2.5-0.4-3.6,6.4-5.8,5.5c-2.5-1.1,0.3-5.2,1.5-8.5c2.3-6.1,7.4-14.5,2.7-19.1c-1.3-1.3-2-2.9-2.9-1.9c-1,1-0.8,2.3-1.1,3.9
				c-0.1,0.8-0.1,1.6,0.2,2.3c1,4.5,2.5,9.7-0.9,12.2c-0.7,0.5-1-2.4-1.7-1.3c-1.6,2.6-1.8,14.3-5.9,11.7c-3.1-1.9,2.4-6.6,1.7-11.4
				c-0.2-1.3,0.8-4.8-0.6-3.7s-0.3,3.8-1.9,3.8c-0.8,0-0.8-2.3-1.4-1.1c-1.2,2.8-1.1,12.7-3.8,9.5c-1.9-2.4,2.2-8.2-0.7-8.2
				c-2.2,0,0.8,6.9-1.9,6.4c-2.3-0.4-4.8-4.6-3.3-6.2c-1.3-0.3-2.4-1-3.2-2c0.7,4.7,5.5,8.7,2.2,12.6c-1.4,1.7-3.1,0-7.2-0.1
				c-2-0.1-3.9,2-5.6,1.1c-3.9-2-6.1-5.7-9.6-9c-1.1-1.1-0.9-6.1-3.7-5.2c-2.1,0.7,1.1,4.2,1.9,5.4c2.9,4.2,9.6,6.2,8.4,10.9
				c-0.8,2.9-4,4.1-8.1,3.9c-4.3-0.2-12.4-3.8-17-5.8c-0.3,0.7-0.8,1.4-1.5,1.8c5.6,1.6,11.4,2.7,16,6c1.6,1.1-0.4,5.6-0.3,6.6
				c0.2,1.4,2.9,1.3,2.7,2.2c-0.2,1.4-1.1,1-1.7,2.1c-0.7,1.3,2.3,2.4,2.2,3.8c-0.3,3.6-0.3,5.2-1.1,7.2c-0.2,0.4-1.1,3-0.4,3.5
				c0.9,0.8,2.8-0.7,3.6,1.7c1.9,5.6,4.2,7.6,7.8,11.9c0.7,0.8-3.4,3.9-2.4,4c1.3,0.1,0.1,1,1.1,0.9c1.4-0.1,2.2-4.9,3.4-5
				c1.4-0.1,1,1.7,2.3,1.6c4.5-0.3,5.3,4.6,8.6,4.6c3.5,0,3.7-2,6.3-3c3.5-1.3,4.1-4.1,7-4.1c6.7,0,9.5,8.3,8.9,13.4
				c-0.2,1.7-0.3,1.7,0,2.6c3.3,8.4,3.5,19.3,11.8,18.6c0.3,0.1,0.7,0,1-0.2C188.7,257.9,181.5,250.1,178,246.4z"/>
			<path class="st8" d="M52.2,228.2c2.7-6.1,8.3-8.9,4.8-12.2c-3.9-3.8,1.4-7.3-4.2-12.3c-0.8-0.7,1.8-1.6,1-2.8
				c-0.9-1.4-2.6,0.2-3.6-0.6c-1.2-0.9,1.4-3.3,0.8-4.4c-1-1.8-4,1.1-5,0.1c-0.7-0.7-0.4-1.9-1-2.7c-1.5-2.3-1.9-2.8-5.3-1.5
				c-1.3,0.5-3.7,1.5-3.9,0.4c-0.3-1.6-0.5-2.3-2-2.3c-3.6,0-5.4,0.3-8-0.5c-2.4-0.8-6.2,4.2-9.2,8.2c-1.3,1.5-5.9,0.8-6.3,2.4
				c-0.5,2,1.1,3.1,0.7,4.3c-0.6,1.8-5.2,0.4-5.3,2.2c-0.3,4.7-3.6,8.8-2.1,10c2.3,1.7,0.4,4,0.9,8.2c0.4,3.6,3.1,2,5.1,4.9
				c2.5,3.7,2.2,5.8,3.7,6.9c1.2,0.9,3.3-2.4,4.6-1.6c1,0.6-0.1,2.2,1,2.7c1,0.5,2.2-0.7,3.6-0.6c1.5,0.1,0.5,2.2,2,2.9
				c2.8,1.3,5.8-3.9,8.3-2.8c1.2,0.5,1.2,3.6,3,3.1c1.5-0.4,1.5-3.1,2-4.2c0.4-0.7,1.2-1.1,2-1.1c1.8-0.2,2.4,3.1,3.3,1.6
				C45.8,232,50,233.2,52.2,228.2z"/>
			<path class="st0" d="M75,41.3c0.4-0.8,3.6-2.7,5.9-3.6c9.8-3.8,5.5-13,17.1-8.6c3.5,1.3,8.1,1,10.8,2.3c3.1,1.5,3.5,4.4,7.1,5.2
				c10.9,2.4,8.6,21.3,4.5,29.6c-7.1,14.2-27.7,15.5-39.3,6.3c-6-4.7-10.3-12.5-7-22.9C75.1,46.2,74.3,42.7,75,41.3z"/>
			<path class="st9" d="M94.2,20.1c2.3,3.5,8.6-2.6,6.4-5.2C98.2,12.1,93.2,18.4,94.2,20.1z"/>
			<path class="st9" d="M111.9,11.1c-0.4,1.3,0.2,2.7,1.4,3.3c1.8,1.1,3.6-1.2,3.4-2.7C116.3,9.5,112.6,8.9,111.9,11.1z"/>
			<path class="st10" d="M100.9,25.8c-4,2.4,0.4,3.3,2.8,2.8S103.6,24.2,100.9,25.8z"/>
			<path class="st9" d="M145.8,23.6c3,2.1,6.1-2.4,4.5-4.3C147.9,16.5,141.6,20.7,145.8,23.6z"/>
			<path class="st11" d="M179.6,40c1.1,1.1,5.4-1,4.8-2.7C183.9,36,178.6,39,179.6,40z"/>
			<path class="st11" d="M178.4,44.2c-5.5,9.7,3.4,1.2,3.7-0.4C182.3,41.5,179.1,42.9,178.4,44.2z"/>
			<path class="st11" d="M226.2,64.4c0.9-2.1-1.4-3.1-2.7-2.7C219.7,62.8,224.6,68.4,226.2,64.4z"/>
			<path class="st12" d="M107,9.7c2.1,0.4,1.8-1.4,0.8-2.4C105.2,4.5,103.1,8.9,107,9.7z"/>
			<path class="st11" d="M222.1,40.1c3-0.1,3.1-5.7,0.2-6.4C218.9,32.9,219.1,40.2,222.1,40.1z"/>
			<path class="st13" d="M164.4-10.8c-3.2,0.5-4.3,1.5-4.8,6.3c-0.2,2.4,1.6,4.6,4.1,4.8c0.1,0,0.3,0,0.4,0c3.4-0.1,7.1-2.7,5-5
				c-1.3-1.4-3.6,1-3.7-0.3C165.2-6.2,169-11.5,164.4-10.8z"/>
			<path class="st13" d="M134.6,30c-1.5,1.3,4.7,4,6.3,3C142.7,32,136.2,28.7,134.6,30z"/>
			<path class="st13" d="M212.8,27c1.4,2.8,6.1-1,4.7-2.4C216.2,23.2,211.7,24.8,212.8,27z"/>
			<path class="st3" d="M138.5,7.5c-4,0.4-2,9.7,2.6,8.4C144.5,14.9,141,7.2,138.5,7.5z"/>
			<path class="st14" d="M-2.6,54.2C-2.7,53.8-2.8,53.4-3,53c-0.6-1.2-2.9,1.4-2.6,2.4C-5.1,56.9-2.2,56.2-2.6,54.2z"/>
			<path class="st14" d="M-19.8,45.5c0.9-0.7,1.2-1.9,1.9-2.7c0.7-0.8,1.3,1.2,1.8,1.7c1.6,1.5,0.9-7-0.2-7.9
				C-18.3,35.2-22.7,47.8-19.8,45.5z"/>
			<path class="st14" d="M-9.2,40.8c0.6-0.5,0.8-1.3,0.7-2c-0.3-1.2-2.1-0.4-2,1C-10.6,40.3-9.9,41.2-9.2,40.8z"/>
			<path class="st14" d="M-19,34.6c3.1-2.6-0.5-6.8-2.5-4.8C-24.3,32.6-21,36.4-19,34.6z"/>
			<path class="st14" d="M78.7,56.6c0.1-0.8-0.1-1.6-0.4-2.4C73.6,48.2,78.4,64.9,78.7,56.6z"/>
			<path class="st14" d="M90,56.6c2-1.6,2.8-6.4,0.8-7C86.9,48.5,84.3,61.1,90,56.6z"/>
			<path class="st14" d="M-7.7,17.4c0.8,1.2,1.6,0.4,2.2-0.3c0.4-0.7,0.4-1.5,0-2.2C-6.5,12.7-8.5,16.1-7.7,17.4z"/>
			<path class="st14" d="M-6.3,11.2c1.4-2.4-0.2-4.6-2.2-4.6C-13,6.6-8.9,15.7-6.3,11.2z"/>
			<path class="st14" d="M5.1,15.1c2.7-3-2.3-8.8-4.6-6C-2.2,12.1,2.6,17.9,5.1,15.1z"/>
			<path class="st14" d="M-15.3,5.4c0.7,0.9,1.8-0.6,1.8-1.6c0-0.7-0.8-1.7-1.7-1.1C-16.5,3.4-15.7,4.8-15.3,5.4z"/>
			<path class="st14" d="M60.9,23.2c1.3-0.5,2.2-1.7,2.4-3.1C64.3,13.8,54.7,25.1,60.9,23.2z"/>
			<path class="st14" d="M25.7,3.9c1.7-2.7,0.2-5.9-2.4-5.3c-0.7,0.2-1.3,1-1.8,1.6C19.2,2.7,23.9,6.6,25.7,3.9z"/>
			<path class="st14" d="M70.6,18.8c2.5-3.3-1.7-5.3-2.9-2.7C66.8,18.1,69.1,20.7,70.6,18.8z"/>
			<path class="st14" d="M-9-9.7c1.5-0.7,1.3-3.5,0.1-3.9C-10.4-14-11.1-8.7-9-9.7z"/>
			<path class="st14" d="M48.7,7.4c0.8,1.1,1.5,0.9,2.4,0.3c1.5-1,0.8-4.2-1.2-3.7C49.1,4.1,48.2,6.7,48.7,7.4z"/>
			<path class="st14" d="M73.5,2c1.9,2.4,4,0.8,4.8-1.7C80.7-6.7,69.6-2.9,73.5,2z"/>
			<path class="st14" d="M46.3,1c0.4,1.8,2.2-3.2,0.7-2C46.5-0.5,46.2,0.3,46.3,1z"/>
			<path class="st14" d="M90.1,6c-0.9-4.2-6.3-0.6-6.7,2.1C82.8,12.2,91.3,11.7,90.1,6z"/>
			<path class="st14" d="M43.5,64.5c1.4-0.1,1.4,3.7-0.3,3.2C43.2,66.7,42.6,66.1,43.5,64.5z"/>
			<path class="st14" d="M67.1,60.4c5.1-4.9-2.3-13-6.5-8.9C55.7,56.4,63.5,63.9,67.1,60.4z"/>
			<g class="st15">
				<path class="st16" d="M43.8,197.8c0.3-0.3,0.6-0.7,0.9-1.1c3.5-6-0.8-14.4-7.5-16.5c-1.9-0.6-4.5,0.5-5.9-1.1
					c-0.5-0.6-0.2-2.2-0.4-3c-1-2.1-2.2-4-3.7-5.7c-5.7-4.3-18-5-21.2,1.7c-1.1,2.2-1,2.2-2.1,4.8c-0.2,1.1-0.3,2.2-0.3,3.3
					c-7.5-1.1-15,2.8-11.2,9.5c0.4,0.8,2.3,1.3,1.7,2.1c-0.5,0.6-1.3-0.2-1.7,0.2c-0.6,0.6,0,1.1-0.5,2.1c-0.7,1.3-2.4,1.2-4.2,2.1
					c-11.2,5.6-0.2,23.6,12.2,25c3.1,0.4,6.2,0.1,9.2-0.9c0.6-0.2,0.1-0.7,1.1-1.1c2.2-1,3-0.6,3.9-2.6c0.2-0.4,0.5-2.5,1.7-2.1
					c3.3,0.9,1.8,6.4,4,8.4c4.5,3.4,13,2.1,15.4-1.8c0.8-1.3,2.4-1.9,3.2-2.7c2.7-3.1-0.5-7.6-1.6-9.3c-0.4-0.5-2.2-0.8-2.5-2.2
					c-0.3-1.5,1.5-2.9,2.1-4.8c0.3-1,2.7,0.3,3.4-0.4c0.6-0.6,1.9-1.7,2.1-1c0.9,3,4.9,4.7,5.9,0.5
					C48.2,199.5,46.8,197.8,43.8,197.8z"/>
			</g>
			<path class="st17" d="M-10.3,168.7c2.7-6.1,8.2-8.9,4.7-12.4c-4-3.9,1.2-7.4-4.5-12.6c-0.8-0.7,1.8-1.6,1-2.9
				c-0.9-1.4-2.6,0.1-3.7-0.7c-1.2-1,1.3-3.3,0.7-4.4c-1-1.9-4,1.1-5.1,0c-0.7-0.7-0.5-1.9-1-2.8c-1.6-2.4-2-2.8-5.4-1.6
				c-1.3,0.5-3.7,1.5-4,0.3c-0.4-1.6-0.5-2.3-2-2.4c-3.6-0.1-5.5,0.3-8.2-0.6c-2.5-0.8-6.2,4.2-9.1,8.2c-1.3,1.5-6,0.7-6.4,2.3
				c-0.4,2,1.2,3.2,0.8,4.4c-0.6,1.8-5.3,0.3-5.4,2.1c-0.2,4.8-3.5,8.9-1.9,10.1c2.4,1.8,0.5,4.1,1.1,8.4c0.5,3.7,3.2,2.1,5.3,5.1
				c2.6,3.8,2.4,6,3.9,7.1c1.2,0.9,3.3-2.4,4.7-1.5c1,0.7,0,2.3,1,2.8c1.1,0.5,2.3-0.7,3.7-0.5c1.5,0.1,0.6,2.3,2.1,3
				c2.9,1.4,5.9-3.8,8.4-2.7c1.2,0.5,1.3,3.7,3.1,3.3c1.6-0.4,1.5-3.2,2-4.2c0.4-0.7,1.2-1.1,2-1c1.8-0.1,2.5,3.2,3.4,1.7
				C-16.8,172.4-12.5,173.7-10.3,168.7z"/>
			<g class="st15">
				<path class="st0" d="M180.2,233.4c-0.5-0.4-1-0.8-1.6-1.1c-3.2-2.2-5.5-6.3-8.5-4.1c-0.4,0.3-0.9,0.6-0.9,1
					c0.1,1.3,2.3,2.7,3.3,4.4c1.5,2.7,4.4,4.9,7.7,6.6V233.4z"/>
				<path class="st0" d="M32.8,206.9c-1.2-0.9,0.9-0.3,2.1-1.6c1.1-1.2,4,0.5,5.9,0c0.5-0.1-0.7-0.4-0.3-0.7
					c1.9-1.3,4.5-1.1,6.2,0.5c0.4,0.5-1,0.1-1.4,0.1C40.4,205.2,35.1,208.5,32.8,206.9z"/>
				<path class="st0" d="M56.9,260.8c-1.1-2.2,3.2-7.6,6.4-5.6c0.8,0.6,1.8,0.7,2.7,0.4c4.3-1.2,4.4-6,8.6-7.9
					c1.1-0.5,1.7-0.2,3.3-0.6c0.7-0.2,0.5,0.5,1,0.5c1.1,0,2.2-1.6,2.9-0.6c1.2,1.5-3.3,2.1-5.1,3.1c-6.3,3.5-7.5,12.4-16.3,12.6
					C59,262.7,57.6,262,56.9,260.8z"/>
				<path class="st0" d="M59.7,190.1c-1-0.7,2.8-1,4.5-0.2C66.4,190.9,60.9,190.9,59.7,190.1z"/>
				<path class="st0" d="M76.4,191.6c-1.1-1,2.1-1.1,3-0.1C80.1,192.3,77.1,192.3,76.4,191.6z"/>
				<path class="st0" d="M79.7,192.2c-0.1-0.1-0.2-0.2-0.1-0.4l0.1-0.1c0.2-0.1,0.5-0.1,0.7,0c0.1,0.1,0.2,0.2,0.1,0.4l-0.1,0.1
					C80.2,192.3,79.9,192.4,79.7,192.2z"/>
				<path class="st0" d="M72,223.9c-0.5-0.4-0.5-1.1-0.1-1.6l0,0c1.4-1.4,3.6,1.6,2.3,2.4C73.5,225.2,72.8,224.5,72,223.9z"/>
				<path class="st0" d="M113.1,199.3c-0.5,0.5-1.4-0.9-0.9-1.3C112.7,197.4,113.5,198.8,113.1,199.3z"/>
				<path class="st0" d="M144.4,186.3c-0.5-0.5,0.8-3.6,0.8-3.6s4-6.4,9.5-5.2c3.6,0.8,9,0.1,9.4,4.9c0.3,3.5,3.6,8.5-1.5,10.5
					c-8.8,3.5-6.3-3.5-13.9-5.6C148.5,187.3,145,186.9,144.4,186.3z"/>
				<path class="st0" d="M149.7,238.8c1.6-0.6,3.4-0.5,5,0.1c4.3,2.1,8.2,8.7,4.4,10.6c-3.4,1.7-6.1-3.7-8.5-6.5
					C149.3,241.7,148.2,239.4,149.7,238.8z"/>
				<path class="st0" d="M135.5,242.1c-0.2,1.4-1.4,1.5-2.9,1.9c-2,0.7-4.9,0.7-5.8-0.7c-1.5-2.4,1.1-5.1,4.2-4.9
					C133.5,238.5,135.2,239.8,135.5,242.1z"/>
				<path class="st0" d="M163.3,253.6c1.2,0.1,2.4,0.3,3.6,0.7c1.3,0.9,3.1,1.5,3.7,2.8c1,1.9-3.8,7.2-8.7,5.2
					c-3.1-2.9,0.2-4.9,0.7-6.6C162.9,255.2,163.1,253.7,163.3,253.6z"/>
				<path class="st0" d="M49.8,204.5c-2.5-0.5,1.8,0.1,3.9-0.4c2.6-0.6-2.6,2.1-3.4,1.5C49.7,205.2,50.7,204.7,49.8,204.5z"/>
				<path class="st0" d="M50.8,187.5c-1.4,2.9-13,1.2-13.6-2.2c-0.5-2.7,6.5-0.1,9.9,0.5C49.5,186.3,51.8,185.4,50.8,187.5z"/>
				<path class="st0" d="M68.5,206c0.7-0.5,2.6-0.6,3.3-0.8c1.6-0.5,5.3-2.4,6.8-1.2c4,3.3-2.8,2.5-4.9,3.1
					c-1.1,0.5-2.2,0.8-3.3,1.1c-1,0.1-1.9-0.2-2.7-0.8C67.4,207.1,68.2,206.2,68.5,206z"/>
				<path class="st0" d="M78.4,194c-1.7,1.4-5.6-0.2-7.6-1.1c-2-0.8-4.6-0.1-4.7-1.9c-0.1-1.4,4,0.5,5.3,0.8
					c1.6,0.3,5.1,0.1,6.3,1.1C78,193.3,79.1,193.5,78.4,194z"/>
				<path class="st0" d="M80.1,194.5c-0.6-0.9,2.6,0.4,2.6-0.6c0-0.4-0.5-0.1-1-0.7c-0.9-1,1.8-0.2,2.7,0.4c2.4,1.6,7.1,1.5,6.7,3.1
					C90.8,198.1,81.6,196.8,80.1,194.5z"/>
				<path class="st0" d="M115.3,194.7c-0.4,0.1-0.3,0.5-0.3,0.7c0.1,0.6,0.6,0.4,1.3,0S115.7,194.6,115.3,194.7z"/>
				<path class="st0" d="M115.7,196.4c-0.2,0.2-0.2,0.6,0,0.7c1.6,0.8,3.1,2.1,3,0.9C118.6,197.1,117,195.2,115.7,196.4z"/>
				<path class="st0" d="M174.7,199.2c-5.5,0.3-11,1-16.4,2.2c-2.1,0.5-4.2,3-6.4,2.7c-3.5-0.4-2-4.3-4.9-6.8c-3.4-2.9-8.7-2.4-12-3
					c-2.4-0.4-7.3-3.2-8.7,1.9c-0.1,0.2,1,0.8,1,1c0,0.4-1.5,0.3-2,0.3h-0.1c-0.3,0-1,0-1.2,0.2c-0.2,0.3,0.6,1.1-0.3,1.2
					c-0.6,0.1-1.1-1.5-1.3-0.7c-0.4,1.3-0.1,2.3-1.5,2.3c-1.2-0.1,0.6-2-0.4-1.7c-1.7,0.6-3.3-0.6-3.9-0.2c-1.4,0.9,0.6,3.1,2.1,3.2
					c0.8,0,0.1,0.3,0.4,0.5c0.2,0.1,1.3,0,0.7,0.4c-0.3,0.2-0.7,0.2-1,0l-0.6-0.3c-1.4-0.6-2.6-3.3-3.5-2.6c-1,0.9,2,1.7,1.4,2.9
					c-0.3,0.7-0.8,0.4-1.6,0.3c-4.8-0.8-6.1-4.8-10-4.4c-1.3,0.1-1.4-0.3-2.6-0.7c-2.7-0.9-6.2-2.7-6.6-0.8
					c-0.6,3.3,9.9,1.6,13.2,3.6c1.3,0.8,2.1,3.2,2.8,4.6c0.3,0.6-2.4,0.4-1.6,1c1.1,0.9,5.1,0.3,3.3,1.2c-0.8,0.4-3.2,0.4-4,0.8
					c-5.8,2.8,0.1,3.8,0.7,6.5c0.2,0.8,2.1,0.7,2.3,1.5v0.2c-0.8,1.2-7-3.9-7.7-1.9c-0.5,1.4,5,2.2,5,3.3c0,0.9-1.4-0.7-2.7-0.6
					c-0.5,0-0.7,0.4-0.9,0.8c-1.2,1.4,3.9,0.7,2.4,1.9c-1.4,1-3.7-1.8-4.6-0.9c-1.2,1.3,2.8,0.7,1.4,1.7c-1.3,0.9-6.8-1.8-8.5-0.8
					c-5,2.9-14.5-0.2-13.6,3c1.3,4.6,19.3-3.1,22.6,0.9c1.6,2,1.9,4,0.2,5.7c-1,1-0.4,0.2-1.3,1c-3.7,3.8-10.6,6.9-16.6,10.3
					c-2.9,1.7-7.6,2.5-5.7,3.8c9,6.2,16.6-16.9,28.9-12.5c1.4,0.6,2.4,2,2.4,3.6c0,0.4-1.2,0.1-1.3,0.5c-0.3,2.2-7.4,3.9-6,6.1
					c0.2,0.3,1.2,0.3,0.7,0.5c-1.7,0.7-2.6,3.1-4.4,3.8c-5,1.9,0,7.6-4.8,10.7c-0.3,0.2-1.3,1.4-0.9,2c0.4,0.7,2.5,0.8,3.3,0.2
					c2.8-2.2,2.7-5.6,4.9-8.5c1.8-2.5,0.9-5.5,3.3-8.2c2.8-3.3,6.1-6.2,9.8-8.6c1.1-0.7,3.3-3.1,5.2-2.8c1.9,0.4,3.7,4.2,5.6,3.6
					c1.8-0.5,0.2-4.3,1.5-5.3c2.7-2,8.1-1.5,10.3-0.8c3.5,1.1,4.5,11.5,10.4,7.3c3.3-2.4-13-4.8-2.4-12.7c3.9-2.8,2.1-8.8,6.3-12.2
					c1.1-0.9,3.4-1.3,5.2-1.2c3.6,0.2,10.1,1.5,10-1.7c-0.1-1.9-6.8,0.3-10.1,0.1c-1-0.1-2.2-0.1-2.6-0.5c-0.7-0.6-2.3-0.9-1.4-1.7
					c0.7-0.7,1.6-1.2,2.6-1.4c4.1-1.4,10.4-2.6,14.2-3.9c0.4-0.1,0.2-0.6,0.6-0.8l1.2-0.3L174.7,199.2z M110.1,220.4
					c-0.3,0.1-0.5,0-0.7-0.2c-0.3-0.3,0.5-0.8,1-0.5C110.8,220,110.4,220.2,110.1,220.4z M112.2,214.5c-0.5,0.3-1.2-0.2-1.4-0.5
					c-0.3-0.4,1.3-0.9,1.6-0.4C112.6,213.9,112.5,214.3,112.2,214.5L112.2,214.5L112.2,214.5z M113,211.4c-0.6,0.4-2-0.2-2.3-0.6
					c-0.7-1,2.3-1.1,2.7-0.3C113.5,210.9,113.3,211.2,113,211.4L113,211.4z M114.4,205.8c-0.3-0.2,0.5-0.8,1-0.5
					S114.7,206.1,114.4,205.8z"/>
				<path class="st0" d="M125.1,197.7"/>
			</g>
			<path class="st2" d="M160.4,162.5c1.4,0.4,1.2,4.6-0.5,4.8C158.5,167.5,159.1,162.1,160.4,162.5z"/>
			<path class="st2" d="M165,158.1c-0.4,0.4-0.8,1-1.4,1.7c-0.8,1.1-0.9,4.2,1,3l0.4-0.4V158.1z"/>
			<path class="st18" d="M189.7,167.4c6.1,2.9,7.8,5.8,6.2,17c-0.5,5.2-5.1,9-10.3,8.4c-0.5,0-1-0.1-1.4-0.2
				c-6.8-2.2-12.8-10.1-7.2-14.2c3.4-2.5,6.6,4.4,7.6,1.4C185.5,177.3,180.8,163.2,189.7,167.4z"/>
			<path class="st19" d="M229.1,159.4c7.5,2.2-1,17.4-6.5,17.2C218,176.5,225.1,158.3,229.1,159.4z"/>
			<path class="st18" d="M146.7,171.4c1.4-1.5,2.1,11.3-1,7.9C143,176.3,144.6,173.7,146.7,171.4z"/>
			<path class="st18" d="M159.9,164.9c1.2,1.9-5.8,3.2-7.2,1.6C151.2,164.8,158.7,162.9,159.9,164.9z"/>
			<path class="st18" d="M125.6,199.9c-2.2-2,3.3-3.5,6.5-1.6C137.1,201.3,127.7,201.8,125.6,199.9z"/>
			<path class="st18" d="M219.8,195.1c7.8,3.3-1.4,23-9.8,17.5C203.8,208.4,215,193,219.8,195.1z"/>
			<path class="st20" d="M147.9,132.2c26.7-5.1,25.5,33.5,0,29.4C130.8,158.7,129.4,135.7,147.9,132.2z M158.3,143.7
				c-1.2,1,0.2,2.7,1.1,3.1c0.7,0.3,3,0.3,3.6,0.6c1.8,0.7,1.3-2.8,1.1-3.8C163.8,141,160.5,141.7,158.3,143.7z"/>
			<path class="st4" d="M172.1,164.8c0.9,0.1,3.5,2.6,4.9,4.4c6,7.9,14.4,2,12.4,13.3c-0.6,3.4,0.7,7.4,0,10c-0.9,3.1-3.7,4-3.8,7.5
				c-0.1,10.2-19.8,12.2-29.1,10.4c-15.9-3.2-21.8-21.1-14.9-33.4c3.5-6.3,10.5-11.9,21.8-11.2C167.1,165.9,170.6,164.5,172.1,164.8
				z"/>
			<path class="st21" d="M163.6,89c4.8,2.1,13.8,2.1,17,5c2.7,2.4,5,5.3,6.7,8.6c2.3,4.9,3.2,10.6,0.4,16.2
				c-6,11.8-19.2,4-24.7,10.6c-2.7,3.3-2.9,9.2-5.6,10.9c-2.8,1.7-9.2,2.8-13.3,1.6c-10.3-3-11.9-14-5.6-20.7
				c0.9-0.9,2.4-1.1,3.2-2.1c1.1-1.4,0.2-3.2-0.9-4.3c-5.7-5.6-18.9-5-23-9.4c-4-4.3-7.4-14.9-4.4-22.3c1.8-4.2,4.7-7.9,8.4-10.7
				c3.4-2.5,11.4-6.5,16.4-5.5c2.5,0.5,6.6,0.7,10.5,2.9c4.1,2.5,7.7,5.9,10.6,9.8C161.6,82.2,160,87.4,163.6,89z M139.7,72.9
				c-1.2-0.3-0.9-2.8,0.3-3.2C141.2,69.4,149.1,75.3,139.7,72.9z"/>
			<path class="st22" d="M-92.3,96.2c1.8-1.6,3.7,3.6,2.5,6c-0.6,1.2-1.6,2.4-3.2,2c-1.2-0.3-1.7-2.3-1.8-3.6
				C-95,98.9-93.9,97.6-92.3,96.2z"/>
			<path class="st22" d="M-46.5,76.5c3.2-1.8,4.8,6.4,1.4,6.8c-2.1,0.3-3.2-1.1-3.9-2.1C-50.6,79.3-48.6,77.6-46.5,76.5z"/>
			<path class="st22" d="M-66.4,75.3c3.8-2.5,4.7,7.1,2,9.1c-1.7,1.3-3,0.6-4.4-0.4c-0.9-0.7-0.1-1.3-1.2-3
				C-71.3,79.1-68.5,76.7-66.4,75.3z"/>
			<path class="st22" d="M-37.6,93.7c1.1-1,0.7,4.1-0.4,4.3C-39.7,96.9-38.8,94.7-37.6,93.7z"/>
			<path class="st22" d="M102.4,5.2c2.3-0.5,4.4-1.6,6.2-3.1c3.9-8.3,3.9-16.2-1.8-15.3C100.7-12.2,100.2,1.3,102.4,5.2z"/>
			<path class="st22" d="M-29.2,100.7c4.2,0.8-1.9,6.2-2.9,3.3c-0.5-1.3,0.1-2.7,1.4-3.2C-30.2,100.6-29.7,100.6-29.2,100.7z"/>
			<path class="st22" d="M-66.5,95c-4-2.3-0.3-7.3,1.8-9.2C-55.5,77.5-58.7,99.4-66.5,95z"/>
			<path class="st22" d="M-21.4,141.1c0.3-0.3,0.8-0.3,1.1,0c0.3,0.3,0.3,0.8,0.1,1.2c-0.3,0.3-0.8,0.3-1.1,0
				C-21.7,142-21.7,141.5-21.4,141.1L-21.4,141.1z"/>
			<path class="st22" d="M-31.4,149.7c0.7-0.4,1.5-0.5,2.2-0.1c0.5,0.4,0.6,1.2,0.2,1.7l-0.1,0.1c-0.7,0.4-1.5,0.5-2.2,0.1
				c-0.5-0.3-0.7-1-0.3-1.6C-31.6,149.8-31.5,149.8-31.4,149.7z"/>
			<path class="st22" d="M-29.5,166.2c0.3-0.9,1.1-1.6,2.1-1.7c0.8,0.1,1.4,0.9,1.3,1.7v0.1c-0.3,0.9-1.1,1.6-2.1,1.7
				C-29,167.9-29.6,167.1-29.5,166.2C-29.5,166.3-29.5,166.2-29.5,166.2z"/>
			<path class="st22" d="M-44.4,191.1c2.1,3-0.1,3.5-2.4,7.4c-1.4,2.2-4-1.5-3.5-3.5C-49.6,192.7-46.2,188.5-44.4,191.1z"/>
			<path class="st22" d="M-19.4,207.7c-1.8-1.4,2.7-3.8,4.1-2.7C-13.5,206.5-18,208.9-19.4,207.7z"/>
			<path class="st22" d="M-38.4,239c-0.3-3,1.7-5.1,3.6-6.8c10.7-10,3.4,24.6-2.3,11C-37.8,241.9-38.2,240.5-38.4,239z"/>
			<path class="st22" d="M-21,145.4c2.5,1.8-4.9,8-6.9,5.1C-30.1,147.6-24.1,143.2-21,145.4z"/>
			<path class="st22" d="M-93.3,233.4c0.6-1-2.6-0.6-2.8-1.7c-0.1-0.6-0.2-1.5,0.5-1.8c0.4-0.1,0.8-0.3,1.1-0.6
				c1.1-0.8,3.3,0.4,3.9,1.7c0.9,1.8-0.9,2.1-2.6,3.8C-93.7,235.1-93.6,233.9-93.3,233.4z"/>
			<path class="st22" d="M-64.1,223.8c1.4-2.2,4.1,2.5,2.8,4.3c-1,1.4-1.1-3.3-2.7-2.7C-64.8,225.8-64.6,224.7-64.1,223.8z"/>
			<g class="st15">
				<path class="st23" d="M-21.5,66.3c-0.1-0.1-0.5,0-0.5-0.1c-1.7-2.3-1.3-11.4,1.7-11.6c2.7-0.2,2.5,7.9,1.5,10.5
					c-0.3,0.8-2.1,2.8-2.8,2.4C-22,67.2-21.4,66.5-21.5,66.3z"/>
				<path class="st23" d="M7.5,93.7c0.9,0.2,0.8,3,0.1,3.7c-0.5,0.5-2.5,0.9-2.8,0.3C4.2,96.7,6.3,93.4,7.5,93.7z"/>
				<path class="st23" d="M26.5,124.6c-0.8,0.9-4.3,0.8-4.7-0.2c-0.5-1.4,2.8-4.9,4.2-4.5C27.2,120.3,27.4,123.7,26.5,124.6z"/>
				<path class="st23" d="M-57.7,107.5c0.2,0.9-1.7,3-2.7,3s-2.4-2.1-2.5-3.2c0.1-0.6,0.4-1.2,0.9-1.6
					C-60.8,105.3-57.9,106.3-57.7,107.5z"/>
				<path class="st23" d="M-35.7,146.5c1.1-0.5,0.1,1.9,0.5,3.2c1.4,4.8-2.1,10.6-3.4,15.4c-0.5,1.8-0.2,6.1-1.7,5.1
					C-46.4,166-43.2,150-35.7,146.5z"/>
				<path class="st23" d="M-85.1,143.8c-0.6,0-0.5-0.8-0.7-1.4c-0.7-2.8,7.2-6.6,8.4-3.8c0.1,0.3,0,0.5,0.1,0.8
					C-76.8,142.2-82.2,143.6-85.1,143.8z"/>
				<path class="st23" d="M-45.4,144.3c2.6,0-2.1,4.4-3,7.2c-0.5,1.7-2.9,5.5-3.9,3.6C-53.9,151.4-50.6,144.2-45.4,144.3z"/>
				<path class="st23" d="M-42.2,180.3c0.5-0.2,0.4,1.1,0.1,1.5C-42.6,182.3-42.7,180.5-42.2,180.3z"/>
				<path class="st23" d="M-42.4,182c1.9,0.2,0.2,6.8-1.3,6.3C-46.3,187.4-44.5,181.8-42.4,182z"/>
				<path class="st23" d="M12.5,148.4c0.5-1.3,1.7-2.1,3-2c0.6,0.1,5.5,2.1,6.1-0.5s-0.3-5-1.7-5.5c-0.6-0.2-2.2,1-2.6,0.5
					c-0.8-0.7,0.1-3.4,0.8-4.3c0.8-1.1,3.7-2.7,4.1-2.4c0.7,0.7-1.5,2.1-1,2.9c0.9,1.2,5.1,0.6,6.3-0.4c0.9-1.1,1.3-2.6,1.1-4.1
					c-0.4-1.5-2.9-3-4.6-3c-1.5,0-4.5,2.1-5.6,1.5c-0.9-0.5-3.3-1.9-3-3c0.2-0.7,2.4-0.2,2.7-0.8c0.3-0.7-1.2-1.8-1.4-2.5
					c-0.1-0.6,3.3-4.4,3-4.9c-2.1-3.2-5.6,2.8-6.3,2.4c-0.3-0.3-0.5-0.7-0.5-1.1c0.5-3,5.2-8.7,8.2-9.3c0.7-0.1,1.7,1.6,2.4,1.4
					c1.4-0.3,2.4-3.6,3.4-4.6c1.4-1.5,7.2-3.9,6-5.4s-4.8,4.5-6.8,4.5c-0.7,0-1.5-1.5-2.2-1.4c-1.4,0.3-2.5,3.6-3.6,4.6
					c-2.3,2-7.5,7.2-10.3,6.4c-0.4-0.2-0.5-0.7-0.5-1.1c0.6-2.1,5.6-3.8,7.1-5.5c0.8-0.9,2.3-3,2.2-4.1c-0.1-1.2-1.9-3.5-3.1-3.5
					c-1.4,0-3.7,2.9-4,4.3c-0.1,0.5,0.9,1.4,0.8,1.9c-0.5,1.8-3.9,5.4-5.7,5c-1.2-0.3-0.7-3.3-0.1-4.5c0.6-1.1,3.3-0.7,3.3-1.9
					c0-1.5-4.5-2.4-5.6-1.5c-0.6,0.5-0.5,2-1,2.6c-0.4,0.5-0.7,0.7-1.3,0.5c-1.5-0.4-2-2.6-3-3.7c-1.1-1.2,2-5.8,1.3-7.4
					c-0.5-1.3-8.3-4.1-8.2-4.6c0.7-3.6,4.4-2.9,4.9-6c0.4-2.4,1.6-4.6,3.4-6.3c1.7-1.8,3.3-3.8,5-5.6c1.6-1.6,3-3.4,4.6-5
					c1.5-1.5,8.6-5.9,10.4-7.1c2.9-1.9-4.4-4.2-5.9-3.2c-1.8,1.2-7,8.3-8.3,9.9c-1.3,1.7-5.2,2.7-6.6,4.3c-1.5,1.7-0.4,3.8-1.9,5.5
					C-5,83.6-7.5,90-11.3,90.9c-3,0.7-5.2-3.7-6.3-6.3c-1.5-3.5,0.9-15.7-3.1-15.2c-4.6,0.7,1.7,14-0.6,18c-0.5,0.6-1.1,1-1.8,1.2
					c-1.2,0.1-2.5-0.1-3.6-0.6c-2.2-1.3-5.3-5.6-6.6-7.8c-1.1-2.5-2.1-5.1-2.9-7.7c-0.7-2-1.6-6.1-2.3-8.1c-0.4-1.1-1.7-3.3-1.7-4.5
					c0.1-2.1-1-3.6-0.7-5.6c0-0.3-0.4-0.8-0.2-1c0.2-0.4,1.4-0.6,1.7-0.9c1.5-2.1,3.4-8.2,1.6-9.9c-2.9-2.9-9.3-2.3-12.5,0.6
					c-2.3,2.1-4,9-2.8,11.7c0.6,1.3,4.1,1.6,5.1,2.6c1.4,1.3,2.4,5.2,3.6,6.6c0.3,0.3,1.2,0.7,1.5,1c2.5,3.1,4.9,11.1,6.1,14.9
					c0.2,0.9,0.4,1.7,0.6,2.6c0.3,0.6,1.5,1.6,1.7,2.3c0.1,0.4,0,1.3,0.1,1.7c0.1,1.1,1.3,3.1,1,4.1c-0.4,1.3-2.8,3-3.9,3.8
					c-1.3,0.9-4.2,3.2-5.7,2.8c-0.7-0.2-0.4-2.6-1.1-2.7c-1.3-0.1-3.9,3.3-3.3,4.4c0.5,1,3.9-1.3,4.6-0.5c0.9,1.1-1,4.3-1.6,5.7
					c-0.4,1-1.2,3.1-2.1,3.6c-1.2,0.6-4.1-1.2-5.1-0.4c-0.3,0.5-0.3,1-0.1,1.5c0.7,0.9,3.9-0.2,4.5,0.8c0.7,1.1-0.9,4-1,5.3
					c-0.1,1.7,1.3,5.3,0.4,6.8c-0.5,0.8-1.2,1.4-2,1.8c1.1-0.4,2.1-0.5,2.8,0.1c1,0.8-0.9,4-1.5,5.2c-0.5,0.9-1.1,1.7-1.8,2.4
					c-1.4,1.2-3.6,2-5.3,3.3c-2.4,1.9-5.8,3.2-5.9,4.7c-6.8,1.5-19.1,8.1-15.1,13.1c4.5,5.5,12.8-8.1,19-12.7
					c4.9-3.6,10.8-12.5,14.5-10.4c3.2,1.7-5.8,11.6-1.8,14.6c2.1,1.6,2.5-5.9,6.9-6c1,0,1.7-2.4,2.7-1.8c2.3,1.6-2.6,8.3-0.2,8.2
					c1.5-0.1,1.3-7.2,3.8-6.3c1.5,0.5,2.8,0.5,4.6,1.8c1.2,0.6,2.1,1.5,2.6,2.7c0.1,0.3,0,0.7-0.2,1c-2.5,2-4.6,5.2-1,5.3
					c2.5,0,1.2-4.4,3.8-3.3c3.7,1.5,1.5,7.7,7.4,8.5c1.8,0.2,1,4,3.2,3.3c2.7-0.9,3.9,0.3,6.2,1.1c1.9,0.6,3.9-0.4,6.6-0.6
					c1.3-0.1,1.5-2.9,2.7-2.8c3.6,0.5,1.9-1.4,2.9-2.7c1.6-2.1,10,6.4,12,5C20,156.4,12.1,149.4,12.5,148.4z"/>
				<path class="st23" d="M-49.7,123.6c-0.5,0.2-1,0.4-1.4,0.7C-50.6,124.1-50.1,123.9-49.7,123.6z"/>
				<path class="st23" d="M29.9,157.3c-2.2-1.7-6.1-2.4-9.3-3.4c-2.6-0.8-8.6-4.9-9.5-4c-0.2,0.2,0.1,0.4,0.3,0.6
					c4.2,4.7,3.5,3.2,8.8,4.8c3.7,1.1,7.2,6.9,10.7,3.9C31.7,158.5,30.4,157.7,29.9,157.3z"/>
				<path class="st23" d="M-69.9,134.4c2.7,5.9,12.4-6.3,18.8-10.1C-58.3,127.5-72.6,128.5-69.9,134.4z"/>
				<path class="st23" d="M-50,96.4c0.2,1.3-0.6,4.4-1.7,5.2c-1.5,1-5.4,0.6-6.9-0.2c-1.7-0.8-4.4-4.1-4.3-5.9c0.2-5.5,7-6,7.8-5.6
					C-53.2,90.7-50.3,94.3-50,96.4z"/>
				<path class="st23" d="M-40.4,170.4c1.5-0.1,0.8,6-1.1,6.3S-42.3,170.6-40.4,170.4z"/>
				<path class="st23" d="M-6,176.4c-2.6,2-9.7-3.6-10.2-6.6c-0.4-2.2,3.2-7.9,5.4-7.7C-6.9,162.4-2.8,173.9-6,176.4z"/>
			</g>
			<path class="st24" d="M43.7,178.2c10.9,18.3-19.2,28.8-22.7,8.7C18.7,173.2,36.1,165.4,43.7,178.2z M37.5,189.2
				c-1.1-0.6-2,0.9-2.1,1.8c0.1,1,0.3,1.9,0.5,2.9c-0.1,1.6,2.5,0.2,3.2-0.3C41.1,192.5,39.7,190.4,37.5,189.2z"/>
			<path class="st25" d="M9.3,171c0.5,0.8,0.5,4.5,0.1,6.8c-1.8,10,8.6,12.7-1.4,18.8c-3,1.8-5.2,5.6-7.7,6.8
				c-2.9,1.4-5.7-0.2-8.3,2.1c-7.9,6.8-23.2-7.2-28.4-15.8c-8.8-14.7,0.9-31.4,15.1-34.4c7.3-1.5,16.4,0.2,23.9,9.6
				C4.9,167.8,8.4,169.6,9.3,171z"/>
			<g class="st15">
				<path class="st26" d="M-37.4,233.7c-0.6-1.9-4.2-1.2-4.4-3.3c0-0.8,0.2-1.6,0.5-2.3c2.8-7.9,7.6-15.8,15-19.1
					c2.9-1.3,5.1-4.2,7.3-4.3c0.7-0.1,1.2,0.6,1.7,1.1c3.6,3.8-3.1,6.9-6.6,11.1c-2.2,2.7-4.7,5.4-5.9,7.1c-1.5,2.3-0.2,3.4,0.9,6.5
					c1.4,4-5.9,5.8-6.8,9.8c-1,4.5-2.4,8.8-4.3,13c-0.7,1.6-1.9,3.5-3.7,3.5c-1,0-1.8-0.7-2.1-1.6C-47.3,247.2-34.4,243-37.4,233.7z
					"/>
				<path class="st26" d="M15.9,26.4c1.4-1.5,0.5,1.1,2.7,2.7c2,1.5-0.8,5.3,0,7.8c0.2,0.6,0.7-1,1.2-0.4c2.3,2.6,1.6,6.5-0.7,8
					c-0.8,0.5-0.2-1.4-0.2-1.8C18.8,36.3,13.1,29.4,15.9,26.4z"/>
				<path class="st26" d="M-72.8,58.3c3.7-1.5,12.5,4.2,9.4,8.3c-0.9,0.9-1.1,2.3-0.7,3.5c2.1,5.6,9.9,5.7,13.2,11.1
					c0.9,1.4,0.3,2.2,1,4.3c0.3,0.9-0.8,0.6-0.8,1.3c0.1,1.4,2.6,2.8,1,3.8c-2.5,1.5-3.5-4.3-5.2-6.7c-5.8-8.2-20.6-9.7-21-21.2
					C-75.9,60.7-74.7,59-72.8,58.3z"/>
				<path class="st26" d="M44,61.4c1.1-1.3,1.7,3.6,0.4,5.9C42.8,70.1,42.7,62.9,44,61.4z"/>
				<path class="st26" d="M41.8,83.2c1.6-1.4,1.8,2.7,0.2,3.9C40.7,88,40.7,84.1,41.8,83.2z"/>
				<path class="st26" d="M40.7,87.5c0.2-0.2,0.6-0.2,0.8,0c0.2,0.3,0.2,0.6,0,0.9c-0.2,0.2-0.6,0.2-0.8,0
					C40.6,88.1,40.6,87.8,40.7,87.5z"/>
				<path class="st26" d="M-11.8,77.7C-11,77-9.9,77-9.1,77.6c2.4,1.9-2.5,4.7-4,3C-13.8,79.7-12.7,78.7-11.8,77.7z"/>
				<path class="st26" d="M29.7,131.2c-0.9-0.7,1.4-1.8,2.1-1.2C32.7,130.6,30.4,131.7,29.7,131.2z"/>
				<path class="st26" d="M51.5,172c0.8-0.6,5.9,1,5.9,1s10.6,5.2,8.7,12.4c-1.3,4.8-0.1,11.8-8,12.3c-5.8,0.4-13.9,4.7-17.4-1.9
					c-6-11.4,5.7-8.3,9.1-18.1C50,177.3,50.5,172.7,51.5,172z"/>
				<path class="st26" d="M-35.1,179.2c0.9,2.1,0.9,4.5-0.1,6.5c-3.4,5.7-14.2,10.8-17.4,5.8c-2.9-4.5,6.1-8,10.6-11.2
					C-39.9,178.8-36.2,177.3-35.1,179.2z"/>
				<path class="st26" d="M-40.8,160.8c-2.4-0.3-2.4-1.9-3.2-3.7c-1.1-2.6-1.2-6.3,1.1-7.5c4-2,8.4,1.4,8.2,5.5
					C-34.9,158.1-37,160.4-40.8,160.8z"/>
				<path class="st26" d="M-59.4,197.2c-0.1,1.6-0.4,3.2-1.1,4.7c-1.4,1.7-2.5,4-4.5,4.9c-3.2,1.3-12-4.9-8.6-11.3
					c4.8-4.1,8.1,0.2,10.9,0.9C-62,196.6-59.5,196.9-59.4,197.2z"/>
				<path class="st26" d="M20,48.6c0.8-3.2-0.1,2.4,0.7,5.1c1,3.3-3.5-3.3-2.5-4.4C18.9,48.4,19.7,49.8,20,48.6z"/>
				<path class="st26" d="M48.2,49.7c-4.9-1.8-2.2-16.9,3.3-17.8c4.5-0.7,0.3,8.5-0.7,13C50.1,48.1,51.6,51,48.2,49.7z"/>
				<path class="st26" d="M17.9,73c0.8,1,1,3.4,1.3,4.2c0.8,2.1,4.1,6.9,2.1,8.8c-5.3,5.2-4.2-3.7-5.2-6.4c-0.8-1.4-1.4-2.8-1.9-4.3
					c-0.1-0.9,0.5-3,1.3-3.5C16.1,71.6,17.5,72.5,17.9,73z"/>
				<path class="st26" d="M37.8,85.8c-2.4-2.3,0.2-7.3,1.6-10c1.4-2.6,0.1-6,3-6.2c2.3-0.1-0.8,5.3-1.3,6.9c-0.5,2.1,0,6.7-1.8,8.3
					C38.9,85.3,38.7,86.7,37.8,85.8z"/>
				<path class="st26" d="M37.1,88.1c1.5-0.8-0.6,3.4,1,3.4c0.6,0,0.2-0.7,1.2-1.3c1.6-1.2,0.3,2.3-0.7,3.5c-2.6,3.2-2.4,9.3-5,8.8
					C31.2,102,33.2,90.1,37.1,88.1z"/>
				<path class="st26" d="M37.2,134c-0.2-0.5-0.9-0.5-1.2-0.4c-1,0.2-0.6,0.8,0.1,1.7S37.5,134.5,37.2,134z"/>
				<path class="st26" d="M34.4,134.5c-0.3-0.3-0.9-0.3-1.2,0c-1.3,2.1-3.5,4.1-1.5,3.9C33.3,138.3,36.4,136.2,34.4,134.5z"/>
				<path class="st26" d="M16.5,240.3c1.1,0.6,2.5-0.2,3.2-1c0.7-0.9,1.2-1.9,1.5-3c2.4-6.1-3.9-15.3-5.4-21.6c-0.7-3,0.8-8.1-1.8-8
					C9,206.9,6.5,235,16.5,240.3z"/>
				<path class="st26" d="M38.7,263.5c-0.3-0.1,0.4-1.4,0.6-1.4c0.2-0.8-1.3-1.4-1.1-2.2c0-0.2,0.8,0.4,0.8,0.4
					c1.1-4.4-0.2-15.4-3.1-16.1c-0.3-0.1-0.5,0.8-0.8,0.5c-0.4-0.5-0.8-1-1.2-1.6c0.3,1.7,0.6,3.4,1,5c2.5,11.2-4.3,28.6,5.9,33.5
					c2.9,1.4,3.9-4.8,2.9-7.4c-1.4-3.8-1.9-8.9-3.5-11"/>
				<path class="st0" d="M34.7,148.5c-0.3-0.1-1.3,1.4-1.6,1.3c-0.6,0-0.5-2-0.6-2.6v-0.1c0-0.4-0.1-1.3-0.4-1.5
					c-0.5-0.2-1.8,0.8-2.1-0.3c-0.2-0.8,2.5-1.5,1.1-1.8c-2.2-0.5-3.8-0.1-3.8-2c0.1-1.5,3.4,0.8,2.8-0.5c-0.9-2.3,0.9-4.3,0.2-5.1
					c-1.6-1.8-5.2,0.8-5.2,2.8c0,1-0.6,0.1-0.8,0.5c-0.2,0.2-0.1,1.7-0.7,0.9c-0.3-0.4-0.3-0.9,0-1.3c0.2-0.2,0.3-0.5,0.4-0.8
					c0.9-1.8,5.5-3.4,4.2-4.5c-1.4-1.3-2.8,2.6-4.8,1.9c-1.2-0.4-0.7-1-0.5-2.1c1.2-6.2,7.9-8,7.2-13.1c-0.3-1.7,0.4-1.9,1.1-3.5
					c1.4-3.5,4.4-8.1,1.3-8.6c-5.4-0.8-2.6,12.9-5.8,17.3c-1.2,1.7-5.3,2.7-7.6,3.7c-1,0.5-0.6-3.2-1.7-2.1
					c-1.4,1.4-0.3,6.6-1.8,4.3c-0.7-1-0.7-4.2-1.3-5.2c-4.7-7.6-6.3,0.1-10.7,1c-1.3,0.3-1,2.8-2.5,3c-0.1,0-0.2,0.1-0.3,0
					c-2-1.1,6.4-9.1,3-10.1c-2.4-0.7-3.6,6.6-5.4,6.6c-1.4,0,1.1-1.8,0.9-3.6c-0.1-0.7-0.7-0.9-1.3-1.2c-2.4-1.5-1.2,5.1-3.1,3.1
					c-1.7-1.8,2.9-4.8,1.4-6c-2.1-1.6-1.1,3.7-2.8,1.8c-1.5-1.7,2.9-8.9,1.1-11.2c-4.9-6.5,0.1-18.9-5.2-17.7
					c-7.6,1.7,5.4,25.1-1.2,29.5c-3.3,2.2-6.6,2.5-9.3,0.4c-1.6-1.3-0.3-0.5-1.7-1.6c-6.3-4.8-11.6-13.8-17.2-21.5
					c-2.8-3.8-4.3-9.9-6.4-7.4c-10.1,11.8,28.1,21.5,21.2,37.6c-0.9,2-3.7,3.2-6,3.2c-0.6,0-0.1-1.6-0.9-1.7
					c-3.6-0.3-6.6-9.6-10.1-7.7c-0.4,0.2-0.4,1.5-0.8,0.9c-1.2-2.2-5.2-3.4-6.4-5.7c-3.1-6.6-12.6,0.1-17.8-6.2
					c-0.3-0.4-2.3-1.6-3.3-1.2c-1.1,0.5-1.3,3.2-0.2,4.3c3.8,3.6,9.2,3.5,14.1,6.3c4.1,2.4,9,1.1,13.7,4.2
					c5.4,3.5,10.2,7.8,14.4,12.7c1.2,1.5,5.2,4.3,4.7,6.8s-6.9,4.8-5.9,7.4c0.9,2.3,7.2,0.2,8.8,1.9c3.4,3.5,2.5,10.6,1.5,13.4
					c-1.7,4.6-19,5.9-11.9,13.6c4,4.3,7.8-17,20.9-3.2c4.7,5,14.5,2.7,20.3,8.2c1.5,1.4,2.2,4.5,2,6.8c-0.3,4.7-2.3,13.2,3,13
					c3.2-0.1-0.5-8.9-0.2-13.2c0.1-1.3,0.1-2.8,0.7-3.5c0.9-1,1.5-3,2.8-1.8c1,1,1.8,2.1,2.4,3.4c2.4,5.3,4.4,13.6,6.7,18.5
					c0.2,0.5,1,0.3,1.3,0.8c0.9,2,0.6,4,0.3,6.4c-1.2,8.6,0.7,20.7,5.3,27.2c-2.8-16.5-2.1-37.6-7.1-53.3c-0.9-2.7-5-5.5-4.6-8.3
					c0.6-4.6,7.1-2.6,11.1-6.4c4.8-4.5,3.9-11.4,4.7-15.7C38.6,156.7,43.2,150.3,34.7,148.5z M-4.2,127.8c-0.4,0.5-0.9,0-1.2-0.4
					c-0.2-0.3,0-0.6,0.4-0.9S-3.7,127.2-4.2,127.8z M6,130.3c-0.5,0.3-1.2,0.2-1.6-0.2c-0.6-0.6,0.2-1.5,0.8-1.9
					C6,127.9,6.7,129.9,6,130.3z M11,131.7c-0.6,0.1-1.1-0.1-1.5-0.5c-0.6-0.7,0.2-2.6,1-3C12.2,127.2,12.3,131.1,11,131.7L11,131.7
					z M19.7,134.1c-0.5,0.7-1.4-0.8-0.9-1.2S20.2,133.6,19.7,134.1L19.7,134.1z"/>
				<path class="st26" d="M32.4,146.9C32.5,146.9,32.4,146.8,32.4,146.9z"/>
			</g>
			<path class="st27" d="M21.6,81.8c-0.9,2.1-0.7,4.4-1.1,5.2c-16.6,13.1-44.3,6.6-50.6-12.5c-0.2-1.1,1.2-2.5,2.2-3.8
				c-3.1-6.6,0.1-14.7,6.2-23.3c3.5-3.1,7.4-3.7,10.6-9c11.7-6,39.7-3.6,40.6,13c0.8,0.9,3.8,1.4,3.1,2.6c2.7,7,0.4,15.1-3.4,23.6
				C26.8,79.8,22.8,80.4,21.6,81.8z"/>
			<path class="st0" d="M-33.3,70.5c6.2,0.5,9.9,4.9,14.1,4.5c10.4-0.9,12-3.9,19.8-1.4c10.2,3.2,5.1-6.2,12-0.9
				c3.6,2.8,6.8,2.5,8.8-0.5c2-2.8-8.9-0.9-12.2-5.2C8,65.5,7,62.4,8.6,60.8c3.2-3.2,9.1,2.2,12.7,1.8c2.2-0.2,5.8-4.2,8.8-2.2
				c14,9.3,4.4-3.3,2.6-7.4c-1-2.2,4.9-0.7,1.4-3.6c-1.5-1.2-1.6-5.6-1.4-6.9c0.3-3.3,3.4-6,6.1-7.4c9.8-5.2,17.7,5.9,20.9,16.7
				c0.6,1.9,2.3-1.4,6.7,1.1c5.4,3.1,2.5,20.9,8.6,17.6c9.5-5.2,15.1-1.4,14.2,7.8c-0.2,2.4-3.4,3.5-2.9,5.9
				c1.6,8.2-2.5,10.1-0.8,14c2.5,5.8,7.1,7.7,6.7,14.7c-0.5,7.3,11.6,7.2,17.1,10.1c3.1,1.6,3.5,3.7,5.5,7c1.4,2.3,6.6,3.8,4.7,6
				c-2.4,2.8-5.7,0.8-9.1-1.2c-2.6-1.5-1.8,1.3-6.2-0.1c-5.3-1.6-11.4-8.6-14.2-10.8c-1.8-1.5-5.8-3.6-12.8,2.8
				c-3.6,3.3,0.8,5.8-0.5,10.6c-1,3.8,6.6,4.6,7.4,9.7c0.3,1.4,0.3,2.7,0,4.1c-1.3,4.2-6.5,4.1-8,1.3c-0.9-1.6,0.2-2.4-1.1-3.3
				c-0.8-0.6-1.2,0.6-2.5,0.5c-2.3-0.1-1.3-3.9-3.3-7.2c-1.5-2.4-2.7-4.4-5.2-4.1c-1.9,0.2-2-4.6-4.7-4.8
				c-9.8-0.9-8.4,8.1-14.7,14.5c-2.3,2.3-9.8-3.2-12.2-1c-7.1,6.6-19.9,5.8-26.1-4.5c-8.1-13.5,1.9-20.1,19.6-18.2
				c1.3,0.1,4.1-0.2,5-2.7c0.8-2.1,4.2-4.3,0-7.1c-1.7-1.2-5.6,0.4-7.2-0.1c-3.6-1-5.4-4.4-8.1-4c-6.4,1-16.6,9.9-15.1,4.7
				c0.8-2.8-1.1-3-2.9-3.5c-4.9-1.3-5.7,2.5-10.1,2c-2.4-0.3-7.9,1.8-9.1-2c-1-3.3,7.7-8.8,11.3-7.3c4.1,1.7,6.6,2.1,12.3,1
				c7.3-1.4,12.2-1.8,15.3-6.8c2-3.3-5.3-7.2-13.2-5.6c-4.4,0.9,0-3.1-4.1-3.1c-1.4,0-1.7,3-5,1.6c-0.9-0.4-2.5-1.3-3-1.6
				c-3.9-2.2-6.8,0.1-12.5,1c-1.5,0.2-3-0.1-4.3-0.7c-2.6-1.6-4.3-3.7-6.6-5c-4.7-2.7-7.8,4.9-11.1,0.6c-1.7-2.2,4.4-6.7,2.3-8.9
				C-44.4,72.6-39.5,70-33.3,70.5z M79.6,93.5c1.1,0.6,1.5-1.7,0.9-2.3C79.7,90.4,78.9,93.1,79.6,93.5z M102.2,126.9
				c0.3-0.4-0.5-1.2-1-1.3C99.6,125.4,100.8,128.7,102.2,126.9L102.2,126.9z"/>
			<path class="st28" d="M106.2,102.6c1.1-1.3,1.8,0.1,2.4,1.1c1,1.7-3.9,5.9-5.1,3.7C102.3,105.3,104.8,104.3,106.2,102.6z"/>
			<path class="st24" d="M39.9,108.7c1.8-1.3,1.5,5.2-1,3C37.4,110.4,38.9,109.3,39.9,108.7z"/>
			<path class="st28" d="M32,115.4c-0.4,1-3.1,1.1-3.5,0.1c-0.4-0.7-0.4-1.6-0.1-2.3C29.4,111.3,33,112.9,32,115.4z"/>
			<path class="st24" d="M44.7,126.6c0.8-0.7,2.2,1.4,1.3,2.3c-0.7,0.5-1.6,0.5-2.3,0.1C42.3,128,43.9,127.4,44.7,126.6z"/>
			<path class="st28" d="M53.3,135.1c-0.3,0.5-0.7,0.9-1.1,1.2c-1.4,1.1-3.4-2.4-2.5-3.4C51,131.4,54.7,133,53.3,135.1z"/>
			<path class="st24" d="M25.6,139.1c0.9,1,0.8,2.4,1.4,3.5c0.6,1,2.3-0.9,3.3-1.3c2.9-1.1-1.8,7.8-3.8,8.3
				C23,150.6,22.5,135.6,25.6,139.1z"/>
			<path class="st28" d="M38,147.4c0.6,0.6,0.6,1.6,0.1,2.3c-1,1.2-3.1-0.3-2.4-1.7C36,147.4,37.3,146.6,38,147.4z"/>
			<path class="st0" d="M20.1,153.5c10.8,13.2-13.2,25.1-19.9,15.2C-9,155.2,13.1,144.8,20.1,153.5z"/>
			<path class="st28" d="M166.9,157.6c-0.3,1-0.8,1.8-1.6,2.4C156.2,164.9,170.3,148.6,166.9,157.6z"/>
			<path class="st28" d="M29.8,172.8c1.6-1.1,2.4,0.1,3,1.1c0.5,0.8-0.4,1.8-1.1,2.4C29.3,178.2,28,174,29.8,172.8z"/>
			<path class="st29" d="M28.9,179.9c0.9,3-2.3,4.9-5.1,4.3C17.5,182.8,27.3,174.3,28.9,179.9z"/>
			<path class="st28" d="M46.4,179.2c2.4,4.1-7,8.7-9.1,5C35,180.2,44.2,175.5,46.4,179.2z"/>
			<path class="st28" d="M13.9,183.4c1.4-0.7,2.2,1.2,1.8,2.3c-0.5,1-1.6,1.4-2.6,0.9c-0.1-0.1-0.2-0.1-0.3-0.2
				C11.3,185.2,13,183.9,13.9,183.4z"/>
			<path class="st28" d="M127.3,187.8c1.4,0.8,2.2,2.4,1.9,4C127.8,199,119.6,183.8,127.3,187.8z"/>
			<path class="st28" d="M70,197.6c0.7,2.1-0.4,4.4-2.6,5.1c-1,0.3-2.1,0.3-3-0.2s-1.5-1.3-1.8-2.3C60.5,196.9,68.8,194.1,70,197.6z
				"/>
			<path class="st28" d="M138.8,195.6c2,4.3-4.7,5.1-5.2,2C133.3,195.1,137.6,193.1,138.8,195.6z"/>
			<path class="st28" d="M15.8,201.5c1.7,1.2,0.3,4.1-1.6,4.2C12,205.7,13.4,199.7,15.8,201.5z"/>
			<path class="st28" d="M103.4,201c1.1-0.8,2.6-0.6,3.5,0.4c1.7,1.6-0.8,4.8-3.3,3.6C102.5,204.6,102.4,201.6,103.4,201z"/>
			<path class="st28" d="M107.7,206.1c3.7-2,6,0.4,6,3.3C113.7,217.7,100.1,210.2,107.7,206.1z"/>
			<path class="st28" d="M97.2,207.1c1.4-1.8,1.6,4.1,0.1,2.3C96.8,208.7,96.8,207.8,97.2,207.1z"/>
			<path class="st28" d="M101,212.8c0.5,0.9,0.2,1.5-0.5,2.4c-0.8,1.1-2.5,0.2-2.9-0.5C96.3,212.9,100.1,211.1,101,212.8z"/>
			<path class="st28" d="M104.1,218c2,4.3-4.4,5.1-5.2,2C98.2,217,103.1,215.8,104.1,218z"/>
			<path class="st28" d="M160.2,215.3c-3.1,4.3-9-1.3-8.4-4.4C152.7,206.4,164.3,209.5,160.2,215.3z"/>
			<path class="st28" d="M104.8,234.3c-1.9,0.3-3.8-0.9-4.2-2.8C98.7,223.6,113.2,233.1,104.8,234.3z"/>
			<path class="st8" d="M115.4,135.3c-1.1,1.8,1.9,7.2,2,9.1c0.2,2.8-2.9,2.9-2.7,5.4c0.3,3.5,2.2,1,5.5,2c1.7,0.5,3.2,1.4,4.4,2.6
				c2.6,3.7-2.6,3.8-5.8,4.6c-3.6,1-0.2,5.3-0.8,9.4c-0.6,4.2-0.8,7.2,1.9,7.2c3.2,0.1,5.5-0.1,7.3,2.9c2.7,4.7-1.3,8.5-5.5,8.4
				c-2.2-0.1-6.7,3.9-10.3,3.5c-2-0.2-2.8-4.3-5.5-5.1c-3.6-1-1.2,7.9-7.8,12.2c-1.2,0.8-1.9,4.5-4.4,3.2c-3.7-1.8-3.4,2.8-5.7,2.7
				c-2.9-0.2-1,4.2-3.4,4.2c-5.8-0.2-9.1-6.7-17.3-7.5c-12.4-1.2-20.2-12.9-28.4-22.3c-1-1.1-4.3-0.8-5-2.1
				c-1.7-3.2,0.7-5.4,0.4-8.8c-0.1-1.7-3.6-0.8-4.2-2.2c-1.5-3.4,1-5.1,2-8.9c0.5-1.9,4.3-1.4,5.1-3.1c1.4-3.2-2.1-4.9,0.3-7
				c2.4-2,4.3-4.6,5.5-7.5c2.8-6.3,14.4-3.5,16.6-10.4c0.5-1.6-0.7-3.7,0-5.9c1.1-3.5,5.2-5.9,7.4-3.7c1.1,1.3,2.1,2.6,3,4
				c2.5,4.2,6.3,0.5,6.2-2.9c-0.1-5.7,1.6-7.3,5.4-6.7c4.8,0.7,6.1,9.1,2.2,10.5c-1.5,0.7-2.1,2.4-1.4,3.9c0,0.1,0.1,0.2,0.1,0.2
				c1.8,2.6,9.7,3.9,11.9-1.3c1-2.4-0.6-2.4-1.3-4c-1.4-3.4,3.7-8.1,5.2-5.5c0.7,1.3,4-1.2,5.7,1.9c0.7,1.3,0.9,3.7,2.2,4.5
				C110.4,125.3,117.5,131.7,115.4,135.3z"/>
			<path class="st28" d="M121.7,138.3c1.8,0.5,3.6-3.6,1-3.6C122.3,135.8,121.2,136.3,121.7,138.3z"/>
			<path class="st28" d="M2,124.7c1.2,4.5-10.5,5.2-11,1.6C-9.6,122.5,1,120.9,2,124.7z"/>
			<path class="st28" d="M152.6,149.9c4.8,6.8-9.1,13.2-13,7.5C135,150.7,149.1,145,152.6,149.9z"/>
			<path class="st28" d="M61.4,229c3.7,4.8-4.1,11.4-8.4,9.1C48.8,235.9,57.7,224.2,61.4,229z"/>
			<g class="st15">
				<path class="st30" d="M59.1,206.4c0,0.2,0.5,0.5,0.4,0.7c-0.6,4.4-10,14.1-13,11.1c-2.8-2.8,5.3-11.5,8.8-13.2
					c1.2-0.6,4.8-0.8,5.1,0.5C60.6,205.9,59.2,206,59.1,206.4z"/>
				<path class="st16" d="M57.7,144.3c-0.7-1.2,2.2-4.2,3.6-4.3c1-0.1,3.2,1.8,3,2.8C63.9,144.6,58.6,145.9,57.7,144.3z"/>
				<path class="st31" d="M69.5,89.3c1.7,0,5,3.8,4.3,5.4c-0.8,2-7.5,2.3-8.5,0.4C64.6,93.4,67.8,89.3,69.5,89.3z"/>
				<path class="st31" d="M134.8,200.1c0.7-1.2,4.6-1.4,5.6-0.4c1,1.1,0.3,5-0.7,6.2c-0.6,0.6-1.5,0.9-2.4,0.8
					C135.8,206,133.9,201.6,134.8,200.1z"/>
				<path class="st31" d="M151.8,132.8c-1.6-0.6,1.8-2.2,2.7-4c3.4-6.9,12.4-9.4,18.4-13.4c2.3-1.5,6.2-6.5,6.6-3.8
					C181.3,122.9,162.5,137.1,151.8,132.8z"/>
				<path class="st31" d="M197.3,189.8c0.6,0.7-0.3,1.5-0.7,2.2c-2.2,3.9-13.5-0.5-11.9-4.9c0.2-0.5,0.5-0.5,0.7-0.9
					C187.6,182.5,194.3,186.7,197.3,189.8z"/>
				<path class="st31" d="M159,145.8c-2.4-2.8,6.3-2.6,10-4.7c2.2-1.2,8.2-2.9,7.3,0.2C174.4,147.3,164,151.6,159,145.8z"/>
				<path class="st31" d="M191.3,102.4c-0.7-0.4,0.7-1.7,1.3-1.7C193.6,100.6,191.9,102.8,191.3,102.4z"/>
				<path class="st31" d="M193.1,100.7c-1.7-2.3,6.5-7.8,7.4-5.5C202.2,99.1,195,103.2,193.1,100.7z"/>
				<path class="st0" d="M106.6,78.2c-1.6,0.9-3.7,0.5-4.8-1c-0.5-0.7-3.3-8.3-6.4-6.1c-3.2,2.2-4.6,5.9-3.8,7.9
					c0.4,0.9,3.1,1.3,3.1,2.3c0,1.7-3.5,3.6-5,3.9c-1.8,0.4-6.3-1-6.3-1.8c0-1.5,3.6-0.7,3.8-2.2c0.3-2.3-4.3-6.2-6.5-6.5
					c-1.7-0.2-4.3,1.8-5.1,3.4c-1,2.2-0.2,6.5,1.6,8.3c1.5,1.6,6.5,2.6,7,4.4c0.4,1.6,1.4,5.8,0,6.6c-0.8,0.5-2.5-2.4-3.4-2.1
					c-1,0.4-0.5,3.3-1.1,4.3c-0.5,0.9-7.5,1.2-7.7,2.2c-1.1,5.9,8.2,3,8.5,4.3c0,0.6-0.2,1.2-0.6,1.7c-3.4,2.7-13.7,4-17.1,1.3
					c-0.8-0.6-0.1-3.6-1-4.2c-1.7-1.1-5.9,1.3-7.8,1.5c-2.8,0.2-10.9-3.5-11.2-0.6c-0.3,3,9.1,0.3,11.1,2.4c0.7,0.7,0,3.3,0.8,3.9
					c1.7,1.2,6-1.3,8-1.2c4.2,0.2,14.3,0.2,16.4,4.1c0.1,0.6-0.1,1.3-0.6,1.7c-2.6,1.7-9.2-1.9-12.3-1.6c-1.6,0.2-5.2,0.7-6.2,2.1
					c-1.1,1.4-1.6,6-0.4,7.3c1.4,1.5,6.5,0.9,8.1-0.4c0.6-0.5,0.4-2.5,1.1-2.9c2.2-1.5,9.2-1.7,10.5,0.7c0.9,1.6-2.6,4.4-4.3,5
					c-1.6,0.6-4-2.8-5.1-1.5c-1.4,1.6,2,7.6,4.1,7.8c1,0.1,2.5-1.6,3.5-1.8c0.9-0.1,1.3-0.1,1.8,0.8c1.1,2.2-0.6,5-0.7,7.4
					c-0.2,2.6-7.7,4.3-8.6,6.8c-0.8,2.1,4.1,13.5,3.4,14c-4.3,3.3-7.1-1.6-10.7,1.3c-2.6,2.2-6,3.4-9.4,3.3
					c-3.5,0.1-6.9,0.6-10.4,0.7c-3.1,0.1-6.3,0.6-9.4,0.6c-2.9,0-14.3-2.8-17.1-3.5c-4.7-1.1,0.2,9.4,2.6,10c2.9,0.7,15-1.6,17.8-2
					c2.9-0.4,7.7,2.8,10.7,2.5c3.1-0.3,4.1-3.7,7.2-3.9c5.9-0.5,14.6-4.9,19.1-1.7c3.5,2.5,1.4,9.7-0.1,13.9
					c-2,5.5-16.3,16.5-11.9,20.2c5.1,4.3,12.1-17.4,18.3-19.3c1-0.1,2,0.1,2.9,0.6c1.3,1.3,2.3,2.8,2.9,4.6c0.9,3.9-0.3,12-1.2,15.9
					c-0.7,3.1-3.4,8.8-4.7,11.7s-4.4,8.5-5.7,11.5c-0.8,1.7-1.5,5.5-2.8,6.8c-2.2,2.1-2.5,5-4.8,7c-0.3,0.3-0.4,1.3-0.8,1.4
					c-0.6,0.3-1.9-1-2.6-0.8c-3.5,0.7-11.3,5.4-11.3,9.2c0,6.4,6.8,12.7,12.8,13c4.3,0.2,12.8-5.7,14.2-9.9c0.7-2.1-2.4-6.3-2.4-8.5
					c0-2.9,2.8-8.4,2.9-11.3c0-0.7-0.6-2.1-0.5-2.7c0.6-6.2,6.1-17.6,8.7-23.2c0.4-0.9,1.6-2.6,1.9-3.6s0.1-3.4,0.6-4.4
					c0.3-0.6,1.3-1.5,1.6-2c0.9-1.3,1.7-4.9,3.1-5.7c1.6-1,5.7-0.3,7.5,0c2.1,0.4,7.3,1,8.2,3.1c0.4,1-2.2,3.3-1.5,4.2
					c1.2,1.6,7,0.7,7.6-1.3c0.4-1.6-5.1-2.8-4.9-4.5c0.2-2.2,5.2-3.7,7.2-4.5c1.3-0.6,4.2-2.2,5.6-1.7c1.8,0.6,2.8,5.9,4.7,6
					c0.7-0.2,1.3-0.8,1.5-1.5c0.2-1.7-4-4.1-3.7-5.8c0.3-2,4.8-3.4,6.2-4.7c1.8-1.8,3.9-7.2,6.3-7.9c1.2-0.3,2.5-0.2,3.7,0.2
					c-1.4-0.5-2.4-1.7-2.7-3.1c-0.2-2,4.8-3.4,6.6-4.1c1.3-0.5,2.8-0.7,4.2-0.7c2.6,0.2,5.5,1.7,8.4,2.1c4.2,0.6,8.8,2.8,10.4,1.2
					c8.1,5.7,26.6,11.9,27.5,1.9c1-11-20.5-4.9-31-6.7c-8.3-1.4-22.8,2.1-24.4-4.2c-1.4-5.4,17-6.5,16.1-14.3
					c-0.5-4.1-8.2,3.9-12.7-0.9c-1-1.1-4,0.9-4.4-0.9c-0.7-4.3,10.7-6.3,8.2-8.8c-1.5-1.5-8.3,6.5-9.9,2.9c-1-2.2-2.2-3.6-2.7-6.9
					c-0.3-1.9-0.7-4,0.1-5.8c0.2-0.4,0.7-0.9,1.2-0.8c4.4,0.4,9.7-0.7,6.2-4.7c-2.4-2.8-5.5,3.5-7-0.4c-2.1-5.6,6.1-10.3,1-17.5
					c-1.6-2.2,3-5.5,0.1-7.1c-3.6-2-3.5-4.6-5-8c-1.2-2.8-4.2-3.8-7.1-6.5c-1.3-1.3-4.3,1.7-5.3,0.2c-3-4.5-3.2-0.6-5.5-0.1
					c-3.7,0.6-3.4-18-6.8-18.7C107.1,61.1,107.9,77.4,106.6,78.2z"/>
				<path class="st31" d="M142.9,173.5c0.7,0.3,1.4,0.6,2.1,0.8C144.3,173.9,143.6,173.7,142.9,173.5z"/>
				<path class="st31" d="M98.3,49.3c0.5,4.2,3.5,9.3,5.7,13.9c1.8,3.8,3.6,14.9,5.3,14.8c0.3,0,0.3-0.6,0.3-0.9
					c0.5-9.7-0.3-7.4-3.9-14.9c-2.5-5.2-0.3-15.5-6.7-16C97.6,46,98.2,48.3,98.3,49.3z"/>
				<path class="st31" d="M173.3,183.5c3.1-9.4-18.3-6.5-28.2-9.3C155.1,178.6,170.1,193,173.3,183.5z"/>
				<path class="st31" d="M116.5,204.1c1.1-1.7,4.9-4.2,6.8-3.8c2.4,0.5,5.9,5.3,6.6,7.8c0.8,2.7,0.3,9.3-1.6,11.3
					c-5.5,5.9-12.7-1-13.2-2.3C114,213.9,114.7,206.8,116.5,204.1z"/>
				<path class="st31" d="M179.8,111.4c-1.6-1.5,5.2-7.6,7.2-5.8C189.2,107.5,181.8,113.3,179.8,111.4z"/>
				<path class="st31" d="M152.1,67.3c4.4,0.6,5.9,14.6,3.4,18.4c-1.8,2.8-10.8,5.3-12.9,2.6C139.2,83.7,146.6,66.5,152.1,67.3z"/>
			</g>
			<g class="st15">
				<path class="st32" d="M145.4,217.1c0.1,0.4,0.2,0.9,0.1,1.3c-0.5-0.2-0.3,0.4-0.9,0.3c-0.1-0.2-0.3-0.3-0.5-0.4
					c-0.3-0.6,0.8-0.8,0.1-0.8C144.4,217.1,144.9,217.1,145.4,217.1z"/>
				<path class="st32" d="M129.3,45.6c0.3,0,0.5,0.3,0.6,0.7c0.1,1.2-0.4,1.5-1.1,2.1c-0.7,0.5-1.7,0.3-2.2-0.4
					c-0.1-0.1-0.2-0.3-0.2-0.4C126,46.2,128,45.5,129.3,45.6z"/>
				<path class="st32" d="M110.5,87.8c1-0.1,2,0.4,2.4,1.4c0.2,0.6-0.6-0.4,0.3,0.6c1.5,1.8-5.9,1.3-4.9-0.6
					C108.7,88.4,109.6,87.8,110.5,87.8z"/>
				<path class="st32" d="M209.3,88.4c1.2-1.5,3.1,1.5,2,2.3c-0.4,0.4-0.8,0.7-1.2,1C209.1,92.5,208.5,89.4,209.3,88.4z"/>
				<path class="st32" d="M134,126.8c0.2,1.2-4.3,0.3-3.4-0.8S133.8,125.5,134,126.8z"/>
				<path class="st32" d="M119.4,132.4c1.5-1.2,4.8,1.7,3.3,2.7c-0.8,0.5-1.6,0.2-2.5-0.2C119.4,134.7,118.5,133.2,119.4,132.4z"/>
				<path class="st32" d="M118.1,148c1.5-0.6,4,1.8,2.6,3c-0.5,0.5-1.6,0.3-2.2-0.1C117.7,150.2,117.1,148.4,118.1,148z"/>
				<path class="st32" d="M114.3,149c1-0.9,2.6,1.4,1.8,1.7C115.1,150.9,113.5,149.8,114.3,149z M115.2,149.7
					C116.1,150.6,114.4,148.7,115.2,149.7z"/>
				<path class="st32" d="M208.7,170.8c2.1-0.5,1.4,2.4,2.2,4.5c0.8,2-0.4,6.1-3.7,4.1C204.6,177.8,206.5,171.3,208.7,170.8z
					 M208.6,177.3c-0.2-0.2-0.9,0.1-0.6,0.3C208.1,177.8,208.8,177.5,208.6,177.3z"/>
				<path class="st32" d="M115.7,75c0.7-0.1-0.3,1.5-0.7,1.8c-0.6,0.4-1.2,0.6-1.9,0.5C111.8,77.3,114.6,75.2,115.7,75z"/>
				<path class="st32" d="M175.2,178.6c-1.2,1.4-4.7,1.2-5-0.6c-0.3-2.5,0-5.3,2-7.1C173.9,169.4,176.7,176.8,175.2,178.6z"/>
				<path class="st32" d="M175.7,60.6c0.1,0.2,0.2,0.5,0.2,0.7c-0.3-4.8-2-9.4-4-14.1C172.4,52.1,174.3,56.8,175.7,60.6z"/>
				<path class="st32" d="M172.1,43.2c0.1-0.8,1-1.2,1.1-2.1c0.4-4.8,0.8-11.5-1.7-14.2c-0.3-0.4-1.3-1.1-1.4-1.6
					c-0.2-0.9,2.4-4,0-5.6c-0.7-0.4-0.6,2.3-1.4,1.7c-2-1.3-3.1,2.9-2.9,6.1c0.5,7,3.5,13.4,6.1,19.7
					C171.9,45.9,171.9,44.5,172.1,43.2z"/>
				<path class="st32" d="M133.5,140.3c-0.6,1.1-0.4,2.1,0.7,3.2c1.3,1.2,3.5-0.3,5.1-1.2c1.4-0.8,1.9-2.4,3-3.6
					c2.1-2.3,1.9-4.1,3.8-6.3c0.8-0.9,1.6-1.7,2.5-2.4C142.9,132.8,136,135.5,133.5,140.3z"/>
				<path class="st32" d="M159.7,143.9c1.1-1,2-2,2.9-3.2C161.3,141.5,160.3,142.6,159.7,143.9z"/>
				<path class="st16" d="M220.5,129.1c-0.6-1.4-2.1-0.1-2.8-0.8c-1.1-1.1,1.5,0.5,1-0.9c-0.2-0.5,0.2-0.7,0.1-1.2
					c-0.2-0.5-0.9,0.4-0.9-0.1c-0.2-4.3-7.4-4.2-12.3-8c-2.1-1.6,0.8-3.2-1.3-5.1c-1.2-1.1-2.1,2.1-2.6,2c-0.4,0-0.9,0-1.3,0.2
					c-0.5,0.3-0.1,0.9-0.7,1.5c-0.4,0.3-1.6,0.5-1.7,0.7c0,0.3,1.2,0.8,1.2,1.4c0.2,2.8-2.6,6.1-5.4,6.5c-2.9,0.5,2.7-8.6,2.7-8.8
					c0.2-0.3,0.5-0.7,0.8-0.9l0.1-0.1c1.5-1,3.1-1.8,2.6-2.6c-0.8-1.2,1.7-1.6,1.5-3.7c-0.1-0.7-0.2-1.3-0.2-2
					c0.3-0.6,2.2,1.3,2.4,1.2c0.7-0.4,0.3-1.2,0.3-1.6c-0.1-1.1,1.8-2.3,1-3.9c-0.4-0.8-1.1,0.3-1.2-0.4c-0.6-3,2.7-5.3,3-8.6
					c0.1-0.6-0.3-1-0.8-1.6c-1-1.2-2.2,1.3-3.5,0.4c-3-2-0.2-6.7-1.9-9.8c-1.4-2.5-5.4-2.6-5.9-5.1c-1.4-6.6,8.8-10.2,10.3-15.3
					c0.4-1.3,1.1-3.2,0.2-3.1c-4,0.2-3.4,8.4-7.1,9.8c-0.4,0.1-0.9-0.3-1.2-0.1c-6.1,4.9-10.1,7.9-11.7,2.4
					c-1.6-5.9,0.6-12.9,3.3-19.1c0.4-1.1,0.4-2.3-0.1-3.4c-1.1-2-1.9-2.3-3.3-2.4c-2.4-0.2-0.7,5.1-1.1,7.7
					c-0.6,4,1.1,13.8-2.8,15.7c-2.8,1.4-4.6-1.1-4.8-3.1c-0.3-2.6,0.4-3.6-0.3-5.9c0.2,3.5-0.4,6.9-1.8,10.1
					c-3.3,7.3-15.7,3.4-21.2-5.8c-3.2-5.4-6.7-14.9-12.3-12.7c-0.3,0.1-0.7,0.2-1,0.3c-6.2,2.8,2.6,10.2,7.3,13.3
					c5.6,3.8,13.5,7.6,14.4,14.4c1.4,10.9-15.9-0.2-21.7-2.7c-6-2.6-11.6-5.9-15.2-11.9c-1.4-2.4-5.4-3-6.2-5.7
					c-0.2-0.5-0.3-2.2-0.8-2.5c-2.5-1.9-13.2,0.7-5.4,6.2c0.4,0.3,1.5,0.3,2.1,1c3.4,3.7,5.8,5,11.1,7.6c2.1,1.1,4.2,2,6.4,2.9
					c7.9,2.9,15.5,6.6,21.7,12.4c1.2,1,2.1,2.4,2.6,3.9c0.8,4.4-3.3,6.5-2.2,11.1c0.3,1.4,2,1.9,2,3.6c0,2.3-3.2,1.2-3,3.9
					c0.1,2.4,6,0.4,4.8,3.1c-2.9,6.7-21.2,6.6-18.2,12.6c2.9,5.7,15.3-13.5,17.6-7c0.5,1.1,0.5,2.4,0.1,3.6c2.4-3.2,4.7-7.8,7.7-4.6
					c0.3,0.3,0.5,0.6,0.6,1c0.8,8.9-15.3,12.4-10.2,18.4c2.2,2.5,8.3-8.9,9.6-4.1c0.6,2.4-0.3,4.8-2.1,7.1c0.1,0,0.1,0,0.1-0.1l0,0
					c1-0.5,1-0.9,1.6-1.1c0.7-0.2,2.4-0.6,2.5,0.5c0.1,1.8-2.6,6.4-0.3,5.6c2.8-1,2.3-9.2,5.1-6.5c0.3,0.3,0.5,0.6,0.6,1
					c0.2,2.8,0,7.6,0,10.6c0,2.9-3.3,4.5-3.3,7.3c0,2.2,1.8,7.4,3.6,8c7.1,2.4,4.4-12.8,5.2-19.3c0.5-3.8,3.5-10.1,0.8-13.7
					c-0.6-0.8-1.1-1.1-0.8-1.6c0.6-1.3,0.1-2.8,2-2.4c3.8,0.9,3.2,7.3,5,10.6c1.4,2.6,2.6,5.4,3.5,8.3c0.1-4.2,0.1-6.7-1.8-11
					c-0.4-0.8-2.3-3.5-1.9-5.1c0.1-0.4,1,0.7,0.9,0.1c-0.2-2,0.8-9.1,2.9-7c1.3,1.2,1.9,1,2,2.3c0.7,8.3,5.3,14.8,6.8,22.3
					c0.4,2.8,1.6,5.4,3.6,7.4c0.7,0.7,0.5,2.5,1.7,2.3c1.8-0.4-0.6-3.6,1.2-4.9c1.1-0.8,2.7-0.3,2.6-1.4c-0.1-1-0.5-1.9-1.1-2.6
					c-1.1-1.5-2.1,1.8-3.2,1.7c-3.8-0.6-6.2-8.9-3.7-10.6c5.4-3.6,14.8,4.2,18.4,0c1.8-2.1,3.2-4.5,3.9-7.2
					C221,132.3,221.3,131,220.5,129.1z"/>
				<path class="st32" d="M148.6,129.9c4-2,7.5-4.1,8.4-7c-0.5,0.6-0.9,1.2-1.4,1.7C153.5,126.6,151,128,148.6,129.9z"/>
				<path class="st32" d="M190.4,168.3c-1,7-2.1,15.7,2.1,21.4c0.7,1,1.7,2.6,2.7,2c0.5-0.3-0.1-0.5,0.1-0.9
					c0.4-1.7,1.4-4.4,1.3-5.5c-0.4-2.5-0.6-6-2.1-5.8c-0.5,0.1-0.1,1.5-0.4,1.2c-0.6-0.6,0.6-1.6,0.4-2.2c-0.4-2-0.1-2.2-1-3.8
					c-0.7-1.3-1.5-2.9-1.3-3.4c-0.2,0-0.3,0-0.3-0.2c-0.2-1.2,0.3-2-0.1-4.1c-0.2-1.3-0.7-3.4-1-4.7c-0.3-2-0.8-2.1-1.3-3.4
					c0.2,2.7,0.4,5.4,0.4,8C189.8,167.6,190.5,167.4,190.4,168.3z"/>
				<path class="st32" d="M188.1,148.1c-0.1-0.2-0.2-0.2-0.3-0.1c0.3,1.6,0.6,3.2,0.8,4.7C188.7,150.9,188.7,149.2,188.1,148.1z"/>
				<path class="st32" d="M148.8,160.7c3.6,2.8,5.3-7.4,8.2-11.3c1.1-1.5,1.8-3.6,2.8-5.4C153,150.3,142.9,156.1,148.8,160.7z"/>
				<path class="st32" d="M189.4,159c-0.2-2.1-0.4-4.2-0.7-6.2c-0.1,1.8,0,3.7,0.4,5.5C189.2,158.5,189.3,158.8,189.4,159z"/>
			</g>
			<path class="st33" d="M202.1,113.6c0.3-0.3,0.5-0.6,0.7-1c-0.6,0.4-1.2,0.7-1.8,1C201.5,113.7,201.9,113.8,202.1,113.6z"/>
			<path class="st33" d="M128.3,153.9c-0.9,0.4-1.8,0.8-2.6,1.4c0.2,0.5,0.4,1,0.5,1.5C126.7,155.7,127.4,154.7,128.3,153.9z"/>
			<path class="st33" d="M168.2,189.8c-1.4,0.5-2.6,1.2-2.7,2.7c-0.4,7.6,9.1,19.9,17,13.7c1.3-1.1,1.5-2.1,0.9-3.1
				C176.1,202.4,169.8,196.1,168.2,189.8z"/>
			<path class="st33" d="M125.7,161.7c-0.3,0.7-0.8,1.4-1.3,2c0.8,0.1,1.5,0.2,2.3,0.2C126.2,163.2,125.9,162.5,125.7,161.7z"/>
			<g class="st15">
				<path class="st34" d="M163.4,95.4c0.1,0.1,0.3-0.1,0.4,0c1.5,1.4,2.6,7.6,0.5,8c-1.9,0.4-2.9-5.1-2.5-7c0.1-0.6,1.1-2.1,1.7-1.9
					C163.6,94.7,163.2,95.2,163.4,95.4z"/>
				<path class="st34" d="M139,79.5c-0.7-0.1-1-2-0.6-2.5c0.3-0.4,1.6-0.8,1.9-0.4C140.9,77.1,139.8,79.6,139,79.5z"/>
				<path class="st34" d="M121.2,60.3c0.5-0.7,2.9-1,3.3-0.3c0.5,0.9-1.3,3.6-2.3,3.4C121.3,63.3,120.7,61,121.2,60.3z"/>
				<path class="st34" d="M182.8,64.1c-0.3-0.6,0.8-2.2,1.5-2.3s2,1.2,2.2,1.9c0.1,0.4-0.1,0.9-0.4,1.2
					C185.3,65.3,183.1,64.8,182.8,64.1z"/>
				<path class="st34" d="M161.7,39.6c-0.7,0.4-0.3-1.3-0.8-2.1c-1.7-3.1-0.1-7.4,0.1-10.8c0.1-1.3-0.7-4.1,0.5-3.6
					C166.4,25.5,166.5,36.6,161.7,39.6z"/>
				<path class="st34" d="M196.8,36.9c0.4-0.1,0.5,0.5,0.7,0.9c0.9,1.9-4.1,5.2-5.3,3.3c-0.1-0.2-0.1-0.3-0.2-0.5
					C191.2,38.8,194.7,37.3,196.8,36.9z"/>
				<path class="st34" d="M168.8,40.3c-1.8,0.2,0.8-3.1,1.1-5.1c0.1-1.2,1.3-4,2.2-2.8C173.8,34.6,172.5,39.9,168.8,40.3z"/>
				<path class="st34" d="M161.4,16.1c-0.3,0.2-0.4-0.7-0.3-1C161.3,14.8,161.7,16,161.4,16.1z"/>
				<path class="st34" d="M161.3,15c-1.4,0.1-1.1-4.6,0-4.4C163.2,11,162.8,14.9,161.3,15z"/>
				<path class="st35" d="M127.6,42.9c-0.2,0.9-0.9,1.6-1.8,1.6c-0.4,0-4.2-0.9-4.2,0.9c-0.1,1.8,0.9,3.3,2,3.6
					c0.5,0.1,1.4-0.9,1.8-0.6c0.6,0.4,0.4,2.3,0.1,3c-0.4,0.8-2.2,2.2-2.5,2c-0.6-0.4,0.7-1.6,0.2-2.1c-0.8-0.7-3.7,0-4.4,0.8
					c-0.5,0.9-0.6,2-0.2,2.9c0.9,1.1,2.3,1.7,3.7,1.6c1.1-0.2,2.9-1.8,3.7-1.5c0.7,0.3,2.6,1,2.6,1.7c0,0.5-1.7,0.3-1.8,0.8
					s1.1,1.1,1.3,1.5s-1.7,3.3-1.4,3.6c1.9,2,3.5-2.4,4.1-2.2c0.3,0.2,0.4,0.4,0.5,0.7c0.1,2.1-2.4,6.4-4.4,7.1
					c-0.5,0.2-1.4-0.9-1.9-0.7c-0.9,0.4-1.2,2.6-1.7,3.5c-0.7,1.1-4.5,3.3-3.5,4.2s2.7-3.5,4.1-3.7c0.5-0.1,1.3,0.9,1.7,0.7
					c1-0.3,1.2-2.7,1.9-3.5c1.3-1.6,4.2-5.6,6.3-5.3c0.2,0,0.5,0.5,0.5,0.7c-0.1,1.5-3.4,3.1-4.2,4.4c-0.4,0.7-1.2,2.2-1,3
					c0.3,0.8,1.9,2.2,2.7,2.1c1-0.2,2.2-2.3,2.2-3.3c0-0.4-0.8-0.8-0.8-1.2c0.1-1.3,2-4,3.3-3.9c0.9,0.1,0.9,2.2,0.7,3
					c-0.3,0.8-2.2,0.8-2.1,1.6c0.2,1,3.5,1.2,4.2,0.5c0.3-0.4,0.1-1.4,0.3-1.8c0.1-0.3,0.4-0.5,0.8-0.5c1.1,0.2,1.8,1.6,2.7,2.3
					c1,0.7-0.6,4.1,0.1,5.2c0.6,0.9,6.4,2,6.4,2.4c0,2.5-2.7,2.3-2.6,4.5c0,1.6-0.4,3.3-1.4,4.6c-0.9,1.4-1.8,2.9-2.7,4.3
					c-0.9,1.2-1.6,2.6-2.5,3.8c-0.9,1.1-5.2,4.8-6.3,5.8c-1.8,1.5,3.7,2.4,4.6,1.6c1.1-0.9,3.7-6.3,4.4-7.5s3.3-2.3,4-3.5
					c0.8-1.3-0.2-2.6,0.6-3.9c1.5-2.5,2.3-7,4.9-7.9c2-0.7,4.2,2,5.3,3.7c1.6,2.3,1.6,10.8,4.4,10c3.1-0.9-3.2-9.3-2.2-12.3
					c0.3-0.4,0.6-0.8,1.1-1c0.9-0.2,1.8-0.1,2.6,0.1c1.8,0.7,4.5,3.3,5.8,4.7c1.2,1.5,2.2,3.2,3.1,4.9c0.7,1.3,2,4,2.8,5.3
					c0.4,0.7,1.7,2.1,1.8,2.9c0.2,1.4,1.2,2.3,1.3,3.7c0,0.2,0.4,0.5,0.3,0.7c-0.1,0.3-0.9,0.5-1.1,0.8c-0.8,1.6-1.2,5.9,0.3,6.9
					c2.5,1.7,6.9,0.7,8.7-1.6c1.3-1.6,1.5-6.5,0.3-8.2c-0.6-0.8-3.1-0.7-4-1.3c-1.1-0.8-2.4-3.3-3.5-4.1c-0.3-0.2-1-0.3-1.2-0.5
					c-2.2-1.9-5-7.1-6.5-9.6c-0.2-0.6-0.5-1.2-0.8-1.7c-0.3-0.4-1.3-1-1.5-1.4c-0.1-0.4-0.2-0.8-0.3-1.2c-0.3-0.7-1.4-2-1.3-2.7
					c0.1-0.9,1.5-2.3,2.2-2.9c0.8-0.7,2.5-2.6,3.6-2.4c0.5,0.1,0.6,1.7,1.2,1.7c1-0.1,2.3-2.6,1.7-3.3c-0.5-0.6-2.5,1.2-3.2,0.7
					c-0.8-0.6,0.1-3,0.3-4c0.1-0.7,0.4-2.2,1-2.6c0.7-0.5,3.1,0.5,3.7-0.2c0.2-0.3,0.1-0.7-0.1-1c-0.6-0.5-2.7,0.5-3.3-0.1
					c-0.7-0.7,0.1-2.8,0-3.7c-0.2-1.2-1.6-3.4-1.2-4.6c0.3-0.6,0.7-1.1,1.2-1.4c-0.6,0.4-1.3,0.5-2,0.2c-0.8-0.4,0.1-2.8,0.3-3.7
					c0.2-0.6,0.5-1.3,0.9-1.8c0.8-1,2.2-1.7,3.2-2.7c1.4-1.5,3.6-2.7,3.5-3.8c4.6-1.6,12.3-7.3,8.7-10.3c-4-3.3-7.8,6.7-11.5,10.3
					c-2.9,2.9-5.8,9.4-8.7,8.4c-2.5-0.9,2.4-8.4-0.9-10.1c-1.7-0.9-0.9,4.3-4,4.7c-0.7,0.1-0.8,1.8-1.6,1.5c-1.9-0.8,0.7-5.8-1-5.5
					c-1,0.2,0.1,5-1.7,4.6c-1.2-0.1-2.4-0.3-3.5-0.8c-0.9-0.3-1.6-0.9-2.2-1.6c-0.1-0.2-0.1-0.5,0-0.7c1.4-1.6,2.5-4,0-3.7
					c-1.8,0.2-0.2,3.1-2.2,2.6c-2.8-0.7-2.2-5.1-6.4-5c-1.3,0-1.3-2.6-2.7-1.9c-1.8,0.9-2.8,0.2-4.5-0.1c-1.4-0.2-2.7,0.6-4.6,1
					c-0.9,0.2-0.6,2.1-1.5,2.1c-2.6,0-1.1,1.1-1.6,2.1c-0.8,1.6-7.9-3.4-9.2-2.3C121.2,38.1,127.7,42.1,127.6,42.9z"/>
				<path class="st34" d="M174.8,53.9l0.9-0.6L174.8,53.9z"/>
				<path class="st34" d="M114,38.4c1.8,0.9,4.6,1.1,7,1.4c2,0.3,6.8,2.6,7.2,1.8c0.1-0.1-0.1-0.3-0.3-0.4c-3.6-2.8-2.9-1.8-6.9-2.4
					c-2.7-0.4-6.1-4-8.1-1.6C112.6,37.8,113.6,38.2,114,38.4z"/>
				<path class="st34" d="M187.5,44.7c-2.7-3.7-7.8,5.4-11.7,8.6C180.3,50.5,190.2,48.4,187.5,44.7z"/>
				<path class="st34" d="M179,72.3c-0.3-0.9-0.2-3,0.5-3.7c0.9-0.8,3.7-0.9,4.9-0.5c1.3,0.4,3.6,2.3,3.9,3.6
					c0.7,3.7-4.1,4.7-4.7,4.5C181.6,75.5,180,74.1,179,72.3z"/>
				<path class="st34" d="M161.5,23c-1.1,0.2-1.4-4-0.2-4.4C162.7,18.3,162.8,22.7,161.5,23z"/>
				<path class="st34" d="M136.5,22.2c1.5-1.6,7.3,1.6,8.1,3.6c0.6,1.5-1.1,5.7-2.7,5.7C139.1,31.6,134.6,24.1,136.5,22.2z"/>
			</g>
			<path class="st8" d="M-0.1,93.3c19.5-8.4,26.1,23,5.7,23.7C-8.1,117.5-13.7,99.1-0.1,93.3z M10.1,100.9c-0.7,1,0.7,2.1,1.5,2.4
				c0.6,0.2,2.3-0.2,2.9-0.1c1.5,0.3,0.5-2.4,0.2-3.2C13.8,97.9,11.5,99,10.1,100.9z"/>
			<g class="st15">
				<path class="st16" d="M76.7,138.3c1.6-0.2,1.7-3.2,3.3-3c0.6,0.1,1.2,0.4,1.7,0.8c5.8,3.6,11.4,8.8,12.9,15.3
					c0.6,2.6,2.5,4.8,2.3,6.6c-0.1,0.6-0.7,0.9-1.2,1.2c-3.7,2.3-5-3.7-7.8-7.2c-1.8-2.2-3.6-4.7-4.8-5.9c-1.6-1.6-2.7-0.7-5.3-0.4
					c-3.4,0.4-3.7-5.8-6.7-7.1c-3.4-1.6-6.7-3.4-9.7-5.6c-1.2-0.8-2.5-2.1-2.2-3.6c0.2-0.8,0.8-1.3,1.6-1.4
					C67.5,128.1,68.8,139.2,76.7,138.3z"/>
				<path class="st36" d="M233.9,216.1c1,1.4-1,0.2-2.6,1.7c-1.5,1.4-4.1-1.5-6.2-1.3c-0.5,0.1,0.7,0.7,0.2,1
					c-2.1,1.2-4.8,0.5-6.1-1.6c-0.1-0.1-0.1-0.3-0.2-0.4c-0.3-0.8,1.1,0.1,1.4,0.2C225.5,216.8,231.9,213.4,233.9,216.1z"/>
				<path class="st36" d="M222.8,139.5c0.6,3.2-5.4,9.4-8.1,6.2c-0.6-0.9-1.7-1.3-2.7-1.1c-4.8,0.7-6.2,7-11,8.7
					c-1.3,0.4-1.8-0.1-3.6,0.1c-0.8,0.1-0.4-0.8-0.9-0.8c-1.2-0.2-2.7,1.6-3.2,0.1c-0.8-2.3,4-2.1,6.2-3.1
					c7.5-3.3,11.1-14.9,20.3-13.3C221.4,136.6,222.6,137.9,222.8,139.5z"/>
				<path class="st36" d="M201.3,232.8c0.8,1.1-3.2,0.8-4.8-0.7C194.6,230.4,200.3,231.5,201.3,232.8z"/>
				<path class="st36" d="M184.3,227.4c0.8,1.5-2.4,1-3.1-0.5C180.6,225.7,183.7,226.3,184.3,227.4z"/>
				<path class="st36" d="M181,225.8c0.1,0.2,0.1,0.5-0.1,0.7c-0.2,0.1-0.6,0.1-0.7-0.1c-0.1-0.2-0.1-0.5,0.1-0.7
					C180.5,225.5,180.8,225.6,181,225.8L181,225.8z"/>
				<path class="st36" d="M197.4,185.3c0.4,0.7,0.3,1.7-0.4,2.2c-1.9,1.6-3.3-2.8-1.8-3.7C196.1,183.3,196.7,184.3,197.4,185.3z"/>
				<path class="st36" d="M147.9,209.5c0.7-0.6,1.2,1.4,0.6,1.9C147.8,212,147.3,210,147.9,209.5z"/>
				<path class="st16" d="M111.6,220.2c0.3,0.8-1.7,4.6-1.7,4.6s-5.9,7.7-11.3,4.9c-3.6-1.8-9.4-2.1-8.5-8.5
					c0.6-4.7-1.5-12,4.3-13.7c10.1-2.9,5.7,6,13,10.4C107.7,218.1,111.2,219.3,111.6,220.2z"/>
				<path class="st36" d="M119.9,149.3c-1.8,0.4-3.7-0.1-5.2-1.2c-4-3.7-6.4-13.2-1.9-15c4-1.6,5.4,6.3,7.2,10.4
					C121,145.6,121.6,148.8,119.9,149.3z"/>
				<path class="st36" d="M135.6,147.9c0.6-1.9,1.9-1.6,3.5-2c2.3-0.5,5.3,0.1,5.8,2.2c0.6,2.5-0.9,5-3.4,5.6
					c-0.8,0.2-1.6,0.2-2.3,0C136.8,153.1,135.3,151,135.6,147.9z"/>
				<path class="st36" d="M109.5,126.8c-1.3-0.4-2.5-0.9-3.6-1.7c-1.1-1.4-2.8-2.7-3.2-4.4c-0.6-2.8,5.9-8.8,10.4-5
					c2.5,4.5-1.5,6.5-2.5,8.6C110.3,125.2,110,126,109.5,126.8z"/>
				<path class="st36" d="M215.5,215.7c2.5,1.2-1.9-0.5-4.2-0.3c-2.8,0.3,3.2-2.2,3.9-1.3C215.8,214.8,214.6,215.2,215.5,215.7z"/>
				<path class="st36" d="M210,238.1c2.3-3.6,13.9,1.1,13.7,5.7c-0.2,3.8-6.8-1.2-10.3-2.7C211,240,208.4,240.7,210,238.1z"/>
				<path class="st36" d="M196.3,209.9c-0.9,0.5-2.9,0.3-3.6,0.4c-1.8,0.3-6.2,2.1-7.4,0.2c-3.3-5.1,3.6-2.8,6-3.1
					c0.3,0,2.8-0.9,3.7-0.8c1,0.2,2,0.8,2.6,1.6C197.7,208.7,196.7,209.6,196.3,209.9z"/>
				<path class="st36" d="M182.8,223.7c2.2-1.5,5.8,1.4,7.7,3c1.9,1.5,4.8,1.1,4.4,3.5c-0.3,1.9-4.1-1.6-5.4-2.2
					c-1.6-0.8-5.4-1.1-6.3-2.8C183,224.7,182,224.3,182.8,223.7z"/>
				<path class="st36" d="M181.1,222.7c0.4,1.3-2.7-1.1-2.9,0.2c-0.1,0.5,0.5,0.3,0.9,1.2c0.7,1.5-1.9-0.2-2.7-1.1
					c-2.1-2.6-7-3.5-6.2-5.5C170.9,215.6,180.2,219.3,181.1,222.7z"/>
				<path class="st36" d="M144.4,215.1c0.5-0.1,0.5-0.6,0.5-0.9c0-0.9-0.5-0.6-1.4-0.2C142.7,214.4,143.9,215.2,144.4,215.1z"/>
				<path class="st36" d="M144.4,212.8c0.3-0.2,0.4-0.7,0.2-1c-1.5-1.4-2.7-3.5-2.9-1.8C141.5,211.2,142.8,214,144.4,212.8z"/>
				<path class="st37" d="M62.7,180.5c-0.7,0.8-0.2,2,0.3,2.7c0.6,0.7,1.4,1.3,2.2,1.7c4.5,2.9,12.9-0.5,18.1-0.7
					c2.5-0.1,6.4,2,6.7-0.1C90.6,180.2,68.5,173.4,62.7,180.5z"/>
				<path class="st37" d="M40.5,194.4c0.1-0.3,1.1,0.5,1,0.7c0.6,0.3,1.3-0.8,1.9-0.5c0.1,0.1-0.5,0.6-0.4,0.6
					c3.3,1.6,12.4,2.4,13.4,0.2c0.1-0.2-0.6-0.5-0.2-0.7c0.4-0.3,0.9-0.5,1.4-0.7c-1.4-0.1-2.8-0.1-4.1-0.1
					c-9.4,0.1-22.2-8.3-27.8-0.9c-1.6,2.1,3.2,3.9,5.4,3.6c3.2-0.5,7.4,0,9.4-1"/>
				<path class="st30" d="M133.2,210.6c0.1-0.2-0.9-1.3-0.8-1.5c0.1-0.5,1.6-0.1,2.2,0h0.1c0.3,0,1.1,0.2,1.3-0.1
					c0.3-0.3-0.4-1.6,0.6-1.6c0.7,0,0.8,2.2,1.2,1.2c0.7-1.7,0.7-3.1,2.2-2.7c1.2,0.3-1.2,2.6,0,2.4c2-0.4,3.3,1.5,4.1,1
					c1.7-1,0.2-4.3-1.4-4.6c-0.8-0.2,0-0.5-0.2-0.8c-0.2-0.2-1.4-0.3-0.6-0.7c0.3-0.1,0.7-0.1,1,0.2c0.2,0.2,0.4,0.3,0.6,0.5
					c1.3,1,1.8,5,2.9,4.1c1.3-0.9-1.6-2.7-0.7-4.2c0.5-0.9,0.9-0.4,1.8,0c4.8,2,5.1,7.7,9.3,8c1.4,0.1,1.4,0.7,2.6,1.4
					c2.6,1.7,5.8,4.9,6.7,2.5c1.5-4.2-9.9-4.2-12.9-7.6c-1.1-1.3-1.3-4.7-1.7-6.7c-0.2-0.9,2.6,0,1.9-1c-0.9-1.4-5.3-1.4-3.2-2.2
					c0.9-0.4,3.5,0.2,4.4-0.2c6.8-2.5,0.9-5.1,0.9-8.7c0-1.1-2-1.3-2-2.5v-0.2c1.2-1.4,6.3,6.6,7.6,4.1c0.9-1.8-4.7-4-4.4-5.5
					c0.2-1.1,1.3,1.2,2.7,1.3c0.5,0,0.8-0.4,1.2-0.8c1.6-1.7-3.9-1.8-2-3c1.7-1.1,3.4,3.2,4.6,2.1c1.6-1.4-2.8-1.5-1-2.5
					c1.6-0.9,6.6,3.8,8.7,2.8c6-2.9,15.1,3.3,15-1.2c-0.1-6.4-21,0.1-23.4-5.9c-1.2-3-0.9-5.7,1.2-7.6c1.3-1.1,0.5-0.1,1.6-1.1
					c4.9-4.3,12.9-7,20-10.2c3.5-1.6,8.6-1.8,7-3.9c-7.8-10.1-21.8,19-33.5,10.6c-1.5-1-1.9-3.5-1.6-5.3c0.1-0.5,1.3,0.2,1.5-0.4
					c0.9-2.8,8.8-3.6,7.8-6.8c-0.1-0.4-1.2-0.6-0.6-0.8c2-0.6,3.5-3.6,5.6-4.1c5.8-1.4,2-10.1,7.9-13.3c0.4-0.2,1.7-1.5,1.5-2.5
					s-2.4-1.6-3.4-0.9c-3.5,2.4-4.3,6.8-7.3,10.3c-2.6,2.9-2.3,7.1-5.6,10.3c-3.7,3.7-7.9,6.9-12.5,9.4c-1.4,0.7-4.3,3.5-6.2,2.6
					s-2.7-6.4-4.9-6c-2,0.3-1.3,5.7-2.9,6.8c-3.4,2.1-8.9,0.3-11-1.1c-3.4-2.1-1.7-16.3-9-11.9c-4.1,2.5,12.4,9.2-0.8,17.3
					c-4.8,3-4.5,11.2-9.8,14.9c-1.3,0.9-3.9,1-5.8,0.5c-3.7-1.1-10.2-4.1-10.9,0.2c-0.4,2.6,7.2,1.1,10.6,2c1,0.3,2.3,0.6,2.6,1.2
					c0.6,0.9,2.2,1.7,1,2.5c-0.9,0.7-2,1.1-3.1,1.4c-4.6,1-11.6,1.3-15.9,2.2c-0.4,0.1-0.4,0.8-0.8,0.9c-1.8,0.4-3.3-0.2-5.2-0.9
					c-6.7-2.4-16.7-2.9-22.7-0.3c13.7,0.6,30.4,4.7,43.8,3.3c2.3-0.2,5.2-3.1,7.4-2.3c3.6,1.3,0.9,6.1,3.3,10
					c2.8,4.6,8.5,5,11.8,6.4C125.9,212.4,130.3,217.2,133.2,210.6z M156,182.9c-0.4-0.4,0.1-0.7,0.5-0.9c0.3-0.1,0.5,0.1,0.6,0.4
					C157.4,182.8,156.4,183.4,156,182.9z M152.4,190.6c-0.1-0.4,0-0.9,0.4-1.2c0.6-0.4,1.2,0.5,1.4,1
					C154.4,191,152.6,191.3,152.4,190.6L152.4,190.6z M150.5,194.4c-0.1-0.4,0.3-0.9,0.7-1.1c0.7-0.4,2,0.6,2.2,1.3
					C153.9,196.2,150.7,195.6,150.5,194.4z M147.1,201c-0.5-0.6,0.9-1,1.1-0.5C148.4,200.9,147.5,201.5,147.1,201z"/>
				<path class="st36" d="M134.8,209.1"/>
			</g>
			<path class="st38" d="M222.5,74.5c8,0,12.5,3.6,10.4,6.2C228.1,86.5,207.6,74.6,222.5,74.5z"/>
			<path class="st0" d="M-22.6,99.1c2.3-1.8,8-6.2,10.8-5.1c0.6,0.2,0.3,2.1,0.8,2.4c1.9,0.9,6.1-2.9,8.1-2.2
				c3.7,1.3,5.3,10.3,8.6,12.2c2.1,1.1,7.3,1.3,9.6,0.6c0.8-0.2,1.9-1.9,2.7-2.1c2.2-0.4,6.5,1.4,8.5,2.4c1.9,1.2,3.7,2.7,5.2,4.3
				c1.7,1.9,2.9,4.2,3.6,6.6c0.4,2.1,1.6,4,0.7,6.8c-1,3.1-1.1,4.6-2.7,6.8c-1.9,2.3-4.1,4.3-6.6,5.9c-1.8,1.1-3,0.8-5.4,1.7
				c-2.3,0.8-4.7,1.1-7.1,0.9c-2,0-2.8,0.8-5.8-0.5c-3.7-1.6-5.3-3.2-6.8-4c-1.2-0.6,0.9-1.5,0.3-2.5c-0.4-1.2-1.7-1.8-2.9-1.4
				c-5.5,1.2-9.5,4.1-12.9,3.6c-0.8-0.1-1.9-1.8-2.7-1.9s-2,1.5-2.7,1.3c-0.6-0.2-0.5-1.8-0.8-2.4c-2.3-3.7-11.6-8.7-12-13
				c-0.1-1.1,2.5-2.8,2.5-4c0-1.1-2.4-2.6-2.4-3.6c0-1.6,2.5-4.2,3.4-5.5C-27,104.6-24.5,100.5-22.6,99.1z"/>
			<path class="st8" d="M183.5,66.4c-0.7,0.8-2.3,1.4-3.1,2.6c-2.3,3.7-10.5,5-14.7,1.7c-4.8-4.3-5.7-15,0.6-16.4
				c2-0.4,3.7-1.6,5.9-1.7c3.8-0.1,8.8,3.4,9.7,4.8C183.1,59.2,186.1,63.5,183.5,66.4z"/>
			<path class="st39" d="M189.1,131.8c0.4-0.4,1.2,0.4,1.7-0.2c0.6-0.7-1.2-1.3-1.7-2c-3.9-7,4.6-10.7,12.1-8.9
				c0.5,0.1,2.9-0.7,4.2,0.1c1.7,1,2,2.4,2.5,3.1c0.6,0.9,0.9,1.1,0.7,2.4c0,0.3,0.4,0.3,0.7,0.6c0.9,1-1,1.3-0.2,1.9
				c2.5,1.8,3.1,1.6,2.2,4.1c-0.4,1.1-3.8,0.4-3.4,1.8c0.2,0.7,0.5,0.7,1.1,0.9c1.1,0.4,0.1,1.3,0.9,2c3.2,2.6,4.4,9.2,3.8,12.2
				c-0.3,1.6-3.6,4.6-4.1,5.5c-0.9,1.9-1.6,1.5-3.7,2.5c-0.9,0.4-0.4,0.8-1,1.1c-2.8,0.9-5.8,1.2-8.8,0.9
				c-11.8-1.3-22.2-18.7-11.5-24c1.7-0.9,3.4-0.7,4-2C189.1,132.9,188.6,132.3,189.1,131.8z"/>
			<path class="st40" d="M134.4,58.6c-2.7,3.1-5.5,3-6.4,8.2c-4.6-4.7-13.7-2.7-15.9,2.5c-1-0.2-2,0.5-2.2,1.6l0,0
				c0.2,0.5,0.5,0.9,0.9,1.2c0,0-1.8,9,10.1,11.1c0.8,0.1-0.1,2,0.6,2.5c0.6,0.4,1.6,1.3,1,1.5c-2.5,0.9-3.6,3.9,0,4.3
				c1.4,0.2,2.8-0.9,2.5-3.1c0.3,0.2,0.6,0.4,1,0.5c5.3,2.2,12.1-1.6,13.3-6.6c0.4-1.4-0.7-3.3,0.5-4.4c0.5-0.4,1.8-0.3,2.5-0.5
				c1.6-0.8,3.2-1.9,4.5-3.1c3.2-4.5,2.9-13.5-3-15.3c-2-0.6-1.9-0.6-4.1-1.2C139.5,57.6,135.4,57.4,134.4,58.6z"/>
			<g class="st41">
				<path class="st42" d="M183.3,233.5c0.3,0.3,0.4,0.6,0.4,1c-0.4,0-0.2,0.4-0.6,0.4c-0.1-0.1-0.3-0.1-0.5-0.1
					c-0.4-0.3,0.5-0.8-0.2-0.6C182.5,233.8,182.9,233.7,183.3,233.5z"/>
				<path class="st42" d="M122.7,112.6c0.2-0.1,0.5,0.1,0.6,0.3c0.4,0.9,0.1,1.2-0.2,1.8c-0.5,0.6-1.4,0.7-2.1,0.1l0,0
					C120.3,113.9,121.7,112.9,122.7,112.6z"/>
				<path class="st42" d="M119.9,148.2c0.8-0.3,1.7-0.2,2.3,0.4c0.3,0.4-0.5-0.1,0.4,0.4c1.7,1-4.3,2.5-4,0.8
					C118.7,149.1,119.2,148.5,119.9,148.2z"/>
				<path class="st42" d="M197,123.2c0.5-1.4,2.8,0.3,2.2,1.2c-0.4,0.6-0.3,0.6-0.6,1C198,126.2,196.6,124.1,197,123.2z"/>
				<path class="st42" d="M149.2,170.6c0.5,0.8-3.2,1.3-2.9,0.3C146.6,169.8,148.6,169.7,149.2,170.6z"/>
				<path class="st42" d="M139.3,178.5c0.8-1.3,4.2,0,3.3,1.1c-0.5,0.6-1.2,0.5-2,0.5C139.9,180.1,138.8,179.3,139.3,178.5z"/>
				<path class="st42" d="M142.7,190.2c1-0.8,3.6,0.3,2.9,1.5c-0.4,0.5-1.1,0.6-1.7,0.5C143,191.9,142,190.7,142.7,190.2z"/>
				<path class="st42" d="M140,191.9c0.5-0.9,2.5,0.3,1.8,0.8C141.2,193.1,139.6,192.7,140,191.9z"/>
				<path class="st42" d="M219.6,183.4c1.5-0.9,1.8,1.4,3,2.7c1.1,1.2,1.4,4.6-1.7,4C218.4,189.6,218.1,184.3,219.6,183.4z
					 M221.4,188.2c-0.2-0.1-0.7,0.3-0.4,0.4C221.2,188.6,221.6,188.2,221.4,188.2L221.4,188.2z"/>
				<path class="st42" d="M120.3,137.6c0.5-0.2,0.2,1.1-0.1,1.5s-0.8,0.7-1.3,0.9C118,140.3,119.6,137.9,120.3,137.6z"/>
				<path class="st42" d="M195.7,197.7c-0.6,1.4-3.4,2.1-4,0.8c-0.9-1.8-1.5-3.9-0.4-5.7C192.2,191.3,196.4,196,195.7,197.7z"/>
				<path class="st42" d="M163.1,111.5c0.1,0.2,0.3,0.3,0.4,0.4c-1.6-3.4-4.2-6.3-7-9.2C158.1,106.2,160.9,109.1,163.1,111.5z"/>
				<path class="st42" d="M155.4,99.8c-0.1-0.6,0.4-1.1,0.2-1.8c-1-3.6-2.6-8.6-5.3-9.9c-0.4-0.2-1.3-0.4-1.6-0.8
					c-0.4-0.6,0.8-3.6-1.5-4.1c-0.6-0.1,0.2,1.8-0.6,1.6c-1.9-0.4-1.6,2.9-0.5,5.2c2.3,5,6.5,8.9,10.3,12.8
					C156,101.8,155.6,100.8,155.4,99.8z"/>
				<path class="st42" d="M152.5,180.6c-0.2,1,0.3,1.6,1.5,2.1c1.3,0.6,2.6-1.1,3.6-2.2c0.8-0.9,0.8-2.2,1.4-3.4
					c1-2.2,0.3-3.4,1.2-5.6c0.4-0.8,0.8-1.6,1.3-2.4C157.8,172.7,153.1,176.5,152.5,180.6z"/>
				<path class="st42" d="M174,176.4c0.5-1,1-2,1.4-3.1C174.6,174.1,174.1,175.2,174,176.4z"/>
				<path class="st16" d="M217.2,149.9c-0.9-0.9-1.6,0.4-2.4,0.1c-1.2-0.5,1.4,0,0.5-0.9c-0.3-0.3,0-0.6-0.3-0.9s-0.6,0.5-0.7,0.2
					c-1.3-3.1-7-1.1-11.8-2.6c-2.1-0.7-0.3-2.5-2.4-3.4c-1.3-0.5-1,2.1-1.4,2.1c-0.3,0.1-0.7,0.2-0.9,0.5c-0.3,0.3,0.2,0.7-0.1,1.3
					c-0.2,0.3-1.1,0.8-1.1,1c0.1,0.3,1.1,0.3,1.3,0.7c1,2-0.4,5.1-2.4,6.1c-2.1,1.1-0.3-6.9-0.4-7.1c0.1-0.3,0.2-0.5,0.3-0.8v-0.1
					c0.9-1.1,1.9-2.1,1.2-2.6c-0.9-0.7,0.9-1.6,0.1-3.1c-0.1-0.2-0.8-1.2-0.7-1.4c0.1-0.5,2.1,0.4,2.2,0.3c0.4-0.5-0.1-1-0.3-1.2
					c-0.4-0.8,0.7-2.1-0.3-3.1c-0.5-0.5-0.8,0.5-1.1,0c-1.3-2,0.6-4.5,0-7c-0.1-0.4-0.5-0.6-1.1-1c-1.1-0.6-1.3,1.5-2.6,1.2
					c-2.9-0.7-2.1-4.8-4.2-6.7c-1.8-1.5-4.9-0.5-6-2.2c-3-4.5,4-9.7,3.7-13.8c-0.1-1,0-2.6-0.7-2.3c-3,1.2-0.3,7-2.8,9
					c-0.3,0.2-0.8,0-1,0.3c-3.4,5.1-5.7,8.4-8.4,4.7c-2.9-3.9-3.1-9.6-2.8-14.8c0-0.9-0.3-1.8-1-2.5c-1.4-1.2-2.2-1.2-3.2-0.9
					c-1.9,0.4,0.9,3.9,1.3,5.9c0.7,3.1,4.7,9.8,2.2,12.2c-1.8,1.7-3.9,0.4-4.6-1c-1-1.8-0.7-2.8-1.9-4.2c1.2,2.5,1.7,5.2,1.4,7.9
					c-0.5,6.2-11.3,6.5-18.1,1.3c-4-3.1-9.4-9.1-13.2-6.1c-0.2,0.2-0.4,0.2-0.7,0.4c-4.1,3.7,4.9,6.7,9.4,7.8
					c5.5,1.3,12.7,2.1,15.2,6.8c4.2,7.6-12.4,4-17.6,3.7c-5.4-0.3-10.7-1.3-15.2-4.8c-1.8-1.4-5-0.8-6.4-2.6
					c-0.3-0.3-0.9-1.5-1.3-1.6c-2.5-0.7-10.1,3.9-2.4,5.9c0.6,0,1.3,0,1.9,0.2c3.7,1.9,5.9,2.2,10.8,2.7c1.9,0.3,3.9,0.5,5.8,0.5
					c7,0,13.9,0.8,20.4,3.4c1.2,0.4,2.3,1.2,3.1,2.2c1.9,3-0.8,5.6,1.4,8.7c0.6,0.9,2.1,0.9,2.5,2.1c0.6,1.7-2.2,1.7-1.3,3.6
					c0.8,1.7,4.8-1.2,4.6,1c-0.4,5.7-14.6,10.3-10.7,13.9c3.8,3.5,8.2-13.8,11.7-9.6c0.7,0.7,1.1,1.6,1.1,2.6c0.9-3,1.5-6.9,4.7-5.4
					c0.3,0.2,0.6,0.3,0.7,0.6c3.1,6.3-8.4,13-2.8,16c2.4,1.3,4-8.7,6.3-5.4c1.2,1.6,1.1,3.6,0.4,5.7c0-0.1,0-0.1,0.1-0.1l0,0
					c0.6-0.6,0.5-0.9,0.9-1.3c0.5-0.3,1.7-1.1,2.1-0.3c0.6,1.3-0.2,5.3,1.3,4.2c1.9-1.4-0.8-7.3,2.1-6.1c0.3,0.1,0.6,0.3,0.7,0.6
					c0.9,2,2.1,5.6,3,7.8c0.8,2.1-1.3,4.1-0.5,6.2c0.6,1.6,3.5,5,5,4.9c6.2-0.1-0.1-10.5-1.3-15.5c-0.7-2.9-0.1-8.3-3.2-10.2
					c-0.7-0.4-1.1-0.5-1.1-1c0.1-1.1-0.7-2.1,0.9-2.2c3.2-0.3,4.6,4.5,6.8,6.5c1.8,1.6,3.5,3.3,5.1,5.2c-1.1-3.1-1.8-4.9-4.5-7.6
					c-0.5-0.5-2.8-1.9-2.9-3.2c0-0.3,0.9,0.2,0.7-0.2c-0.7-1.4-1.9-6.8,0.3-5.9c1.3,0.6,1.8,0.2,2.2,1.2c2.9,5.9,8.3,9.4,11.5,14.5
					c1.1,2,2.8,3.6,4.9,4.5c0.7,0.3,1.1,1.7,2,1.2c1.3-0.7-1.5-2.5-0.4-3.9c0.6-0.9,2-0.9,1.6-1.7c-0.3-0.7-0.9-1.3-1.6-1.6
					c-1.3-0.8-1.1,1.9-2,2c-3.1,0.5-7.3-4.9-5.9-6.7c3.2-4,12.7-0.7,14.3-4.8c0.8-2,1.1-4.2,1-6.3
					C218.5,152.3,218.1,150.9,217.2,149.9z"/>
				<path class="st42" d="M161.4,169.1c2.6-2.5,4.7-4.9,4.6-7.3c-0.2,0.6-0.4,1.1-0.6,1.6C164.3,165.4,162.7,167.1,161.4,169.1z"/>
				<path class="st42" d="M204.6,186.3c1.2,5.4,2.8,12,7.7,15c0.8,0.5,2.1,1.5,2.7,0.8c0.3-0.3-0.2-0.3-0.2-0.7
					c-0.2-1.3-0.1-3.6-0.6-4.4c-1-1.8-2.1-4.3-3.3-3.6c-0.3,0.2,0.4,1.1,0,1c-0.6-0.2,0-1.3-0.3-1.7c-0.9-1.3-0.7-1.6-1.9-2.5
					c-0.9-0.7-2-1.7-2-2.1c-0.1,0-0.3,0.1-0.3-0.1c-0.5-0.9-0.3-1.6-1.2-2.9c-0.6-0.9-1.5-2.3-2.1-3.2c-0.8-1.4-1.2-1.3-2-2.1
					c0.9,1.9,1.8,3.8,2.6,5.7C204,185.9,204.5,185.6,204.6,186.3z"/>
				<path class="st42" d="M197.3,172.1c-0.1-0.1-0.2-0.1-0.3,0l0,0c0.7,1.1,1.3,2.2,2,3.2C198.6,174.1,198,173.1,197.3,172.1z"/>
				<path class="st42" d="M170.1,191.5c3.6,1.1,2-6.8,3.2-10.4c0.5-1.4,0.4-3.1,0.7-4.7C170.5,182.8,164.3,189.6,170.1,191.5z"/>
				<path class="st42" d="M201.3,179.7c-0.7-1.5-1.5-2.9-2.3-4.4c0.4,1.4,1.1,2.7,1.9,3.9C201,179.4,201.1,179.6,201.3,179.7z"/>
			</g>
			<path class="st2" d="M123,219.4c8.1-0.7,9.8,15.7,2.3,18.6C116.5,241.4,114.9,220.1,123,219.4z"/>
			<path class="st35" d="M89.2,59.3c-0.7,0.9,0.9,3.8,0.9,4.9c0,1.5-1.7,1.5-1.7,2.8c0.1,1.9,1.3,0.6,3.1,1.2
				c0.9,0.3,1.8,0.8,2.4,1.5c1.4,2-1.6,1.9-3.4,2.3c-2.1,0.4-0.3,2.8-0.7,4.9c-0.4,2.2-0.6,3.8,0.9,3.9c1.8,0.1,3.2,0.1,4.1,1.7
				c1.4,2.5-1,4.5-3.3,4.3c-1.2-0.1-3.9,1.9-5.9,1.6c-1.1-0.2-1.5-2.3-3-2.8c-2-0.6-0.9,4.1-4.7,6.3c-0.7,0.4-1.2,2.3-2.6,1.6
				c-2-1-2,1.4-3.3,1.3c-1.6-0.2-0.6,2.2-2,2.1c-3.3-0.2-5-3.7-9.6-4.3c-7-0.9-11.2-7.2-15.6-12.4c-0.5-0.6-2.4-0.5-2.8-1.2
				c-0.9-1.7,0.5-2.8,0.5-4.6c0-0.9-2-0.5-2.3-1.2c-0.8-1.8,0.7-2.7,1.3-4.6c0.3-1,2.5-0.6,3-1.5c0.9-1.7-1.1-2.6,0.3-3.7
				c1.4-1,2.5-2.3,3.3-3.8c1.8-3.3,8.3-1.6,9.7-5.1c0.3-0.8-0.3-2,0.1-3.1c0.7-1.8,3.1-3,4.3-1.8c0.6,0.7,1.1,1.4,1.6,2.2
				c1.3,2.2,3.6,0.4,3.6-1.4c0.1-3,1.1-3.8,3.2-3.4c2.7,0.5,3.3,4.9,1,5.6c-0.8,0.3-1.2,1.1-0.9,1.9c0,0.1,0.1,0.2,0.1,0.2
				c0.9,1.4,5.4,2.2,6.8-0.5c0.6-1.2-0.3-1.3-0.6-2.2c-0.7-1.8,2.3-4.2,3.1-2.8c0.4,0.7,2.3-0.5,3.2,1.1c0.4,0.7,0.4,1.9,1.2,2.4
				C86.6,53.9,90.6,57.5,89.2,59.3z"/>
		</g>
	</g>
</g>
<path class="st43" d="M130.9,153.3"/>
<path d="M127.6,100.4c4-0.1,7.9,0.7,11.6,2.3l-2.7,6.9c-2.8-1.2-5.8-1.8-8.8-1.7c-7.7,0-13.6,5.9-13.6,14.4
	c0,9.4,6.9,14.4,14.1,14.4c3,0.1,5.9-0.5,8.6-1.8l2.7,6.9c-3.6,1.7-7.5,2.5-11.5,2.4c-12.1,0-22.7-8.3-22.7-21.8
	C105.4,109.1,115.7,100.4,127.6,100.4z"/>
<path d="M196.6,137.1h-18.2l-2.4,6.3h-9l17.1-42.2h7l17.1,42.2h-9L196.6,137.1z M181.2,129.8h12.6l-6.3-16.4L181.2,129.8z"/>
<path d="M256.3,130.2l13.4,13.1h-11l-12.4-12.8v12.8h-8.7v-42.2h14.5c10.4,0,16.7,6.5,16.7,14.8
	C268.8,123.3,263.9,128.5,256.3,130.2z M246.3,123.8h4.5c6,0,9.2-2.6,9.2-7.7s-3.3-7.7-8-7.7h-5.7V123.8z"/>
<path d="M301,101.1h6.4l20.1,26.5v-26.5h8.7v42.2h-6.4l-20.1-26.5v26.5H301V101.1L301,101.1z"/>
<path d="M379.5,101.1v42.2h-8.7v-42.2H379.5z"/>
<path d="M431.1,131l11.5-29.9h9l-17.1,42.2h-7l-17.1-42.2h9L431.1,131z"/>
<path d="M502.8,137.1h-18.2l-2.4,6.3h-9l17.1-42.2h7l17.1,42.2h-9L502.8,137.1z M487.3,129.8H500l-6.3-16.4L487.3,129.8z"/>
<path d="M543.7,101.1h8.7V136h16.9v7.4h-25.6L543.7,101.1L543.7,101.1z"/>
</svg>
