<?xml version="1.0" encoding="utf-8"?>
<!-- Generator: Adobe Illustrator 22.1.0, SVG Export Plug-In . SVG Version: 6.00 Build 0)  -->
<svg version="1.1" id="Layer_1" xmlns="http://www.w3.org/2000/svg" xmlns:xlink="http://www.w3.org/1999/xlink" x="0px" y="0px"
	 viewBox="0 0 42 20" style="enable-background:new 0 0 42 20;" xml:space="preserve">
<style type="text/css">
	.st0{fill:#0473BA;}
</style>
<g>
	<path class="st0" d="M36.2,13.9c-10.2,0-20.3,0-30.4,0c0-0.1,0-0.2,0-0.3c0-1.3,0-2.6,0-3.9C5.8,9.2,5.9,9,6.5,9
		c9.7,0,19.4,0,29.1,0c0.5,0,0.7,0.1,0.7,0.7c0,1.3,0,2.6,0,3.9C36.2,13.7,36.2,13.8,36.2,13.9z"/>
	<path class="st0" d="M9.7,0.2c2.1,0,3.9,1.7,3.9,3.9c0,2.2-1.8,3.9-3.9,3.9C7.6,8,5.8,6.3,5.8,4.1C5.8,1.9,7.6,0.2,9.7,0.2z"/>
	<path class="st0" d="M35.9,8c-0.3,0-0.6,0-0.9,0l-0.2,0C27.5,8,20.3,8,13,8c0.2-0.2,0.4-0.4,0.6-0.7c1-1.2,1.4-2.5,1.1-4.1
		c0-0.2,0-0.3,0.3-0.4c1.7-0.5,3.5-0.8,5.3-0.9c0.4,0,0.7-0.1,1.1-0.1h0.8c1.6,0,3.1,0.2,4.7,0.5c2.2,0.4,4.2,1.1,6.1,2.3
		c0.6,0.4,1.2,0.9,1.8,1.3C34.7,6,36.8,8,35.9,8z"/>
	<path class="st0" d="M2.5,19.8L2.5,19.8c-1.3,0-2.3-1.1-2.3-2.3V3.5c0-1.3,1.1-2.3,2.3-2.3h0c1.3,0,2.3,1.1,2.3,2.3v13.9
		C4.8,18.7,3.8,19.8,2.5,19.8z"/>
	<path class="st0" d="M39.5,19.8L39.5,19.8c-1.3,0-2.3-1.1-2.3-2.3v-9c0-1.3,1.1-2.3,2.3-2.3h0c1.3,0,2.3,1.1,2.3,2.3v9
		C41.9,18.7,40.8,19.8,39.5,19.8z"/>
</g>
</svg>
