<svg xmlns="http://www.w3.org/2000/svg" width="34" height="41" viewBox="0 0 34 41">
  <metadata><?xpacket begin="﻿" id="W5M0MpCehiHzreSzNTczkc9d"?>
<x:xmpmeta xmlns:x="adobe:ns:meta/" x:xmptk="Adobe XMP Core 5.6-c142 79.160924, 2017/07/13-01:06:39        ">
   <rdf:RDF xmlns:rdf="http://www.w3.org/1999/02/22-rdf-syntax-ns#">
      <rdf:Description rdf:about=""/>
   </rdf:RDF>
</x:xmpmeta>
                                                                                                    
                                                                                                    
                                                                                                    
                                                                                                    
                                                                                                    
                                                                                                    
                                                                                                    
                                                                                                    
                                                                                                    
                                                                                                    
                                                                                                    
                                                                                                    
                                                                                                    
                                                                                                    
                                                                                                    
                                                                                                    
                                                                                                    
                                                                                                    
                                                                                                    
                                                                                                    
                           
<?xpacket end="w"?></metadata>
<defs>
    <style>
      .cls-1 {
        fill: #fff;
        fill-rule: evenodd;
      }
    </style>
  </defs>
  <path class="cls-1" d="M259.3,3274.78l-7.147-2.06v-2.81c0.153-.13.3-0.26,0.443-0.4h-3.431l-0.036.02a4.487,4.487,0,0,1-4.268,0l-1.131-.62a4.573,4.573,0,0,1-2.234-2.87c-0.394-1.51-.479-1.87-0.5-1.94l-0.626-4.48,1.388-3.07a3.936,3.936,0,0,0,3.292-1.12l0.048-.05,1.12,0.78a7.359,7.359,0,0,0,5.906,1.16l1.479,2.36L253,3264.1c-0.021.09-.111,0.46-0.5,1.94-0.016.06-.04,0.12-0.059,0.19h1.944c0.114-.44.2-0.76,0.26-1.01h3.04a1.97,1.97,0,0,1-1.954,1.96H247.2a0.685,0.685,0,0,0,0,1.37h8.534a3.322,3.322,0,0,0,3.29-3.35v-0.58a0.943,0.943,0,0,0,.07-0.36v-6.54a9.923,9.923,0,0,0-5.155-8.73,1.545,1.545,0,0,1,.068.23,9.9,9.9,0,0,1,2.661,4.3,8.577,8.577,0,0,1,1.091,4.2v0.86h-1.919a8.4,8.4,0,0,0,.333-2.3,8.9,8.9,0,0,0-3.064-6.59v-0.1a0.969,0.969,0,0,0-.369-0.76,8.717,8.717,0,0,0-5.32-1.83H246.58a7.847,7.847,0,0,0-4.413,1.71,0.91,0.91,0,0,0-.91.13,10.045,10.045,0,0,0-3.428,7.47,8.323,8.323,0,0,0,.344,2.27h-1.929v-0.86a8.584,8.584,0,0,1,1.035-4.1,11.413,11.413,0,0,1,2.069-4.2,9.935,9.935,0,0,0-4.439,8.3v6.54a0.947,0.947,0,0,0,.934.96h3.512c0.076,0.3.184,0.72,0.338,1.31a6.5,6.5,0,0,0,2.148,3.38v2.8l-7.146,2.07a6.071,6.071,0,0,0-4.7,5.96v3.84a3.391,3.391,0,0,0,3.358,3.42h27.286a3.39,3.39,0,0,0,3.358-3.42v-3.84A6.071,6.071,0,0,0,259.3,3274.78Zm-2.083-11.47h-2.228l0.393-2.82h1.835v2.82Zm-15.587-12.23a0.9,0.9,0,0,0,.755-0.17c1.266-.99,2.753-2,4.191-2h0.836a6.868,6.868,0,0,1,3.822,1.18v0.06a0.969,0.969,0,0,0,.369.76,6.961,6.961,0,0,1,2.693,5.38,6.473,6.473,0,0,1-.218,1.61L253,3256.16a0.659,0.659,0,0,0-.751-0.28,6.092,6.092,0,0,1-5.266-.85l-1.57-1.09a0.655,0.655,0,0,0-.842.07l-0.439.44a2.626,2.626,0,0,1-2.568.67,0.664,0.664,0,0,0-.784.37l-0.934,2.07a6.327,6.327,0,0,1-.144-1.24A8.641,8.641,0,0,1,241.634,3251.08Zm-4.856,9.41h1.834l0.393,2.82h-2.227v-2.82Zm7.21,10.73a6.345,6.345,0,0,0,6.022,0l0.278-.16v1.81a1.7,1.7,0,0,0,1.3,1.67l0.347,0.1-0.2.25a6.018,6.018,0,0,1-9.48,0l-0.2-.25,0.344-.1a1.7,1.7,0,0,0,1.3-1.67v-1.81Zm18.143,13.36a1.5,1.5,0,0,1-1.489,1.51H233.356a1.5,1.5,0,0,1-1.488-1.51v-3.84a4.151,4.151,0,0,1,3.235-4.09,0.167,0.167,0,0,0,.067-0.02l5.5-1.59,0.552,0.7a7.318,7.318,0,0,0,11.56,0l0.552-.7,5.5,1.59a0.172,0.172,0,0,0,.067.02,4.15,4.15,0,0,1,3.236,4.09v3.84h0Z" transform="translate(-230 -3247)"/>
</svg>
