<svg xmlns="http://www.w3.org/2000/svg" xmlns:xlink="http://www.w3.org/1999/xlink" width="349" height="271" viewBox="0 0 348.777 270.299"><style><![CDATA[.B{fill:none}.C{stroke-linecap:round}.D{stroke-linejoin:round}.E{opacity:.5}.F{stroke-width:4.387}.G{stroke:#0e2673}.H{fill:#00a1ed}.I{stroke-width:4.562}]]></style><path d="M313.732 110.02l-.03-34.662c-.023-8.14-5.877-14.02-14.008-14.028q-30.92-.03-61.84.018c-1.432.001-2.858.186-4.243.552-6.26 1.685-10.024 7.024-10.026 14.14v33.98m10.882 0l-.008-23.7c0-1.566.412-2.043 2.017-2.04q32.3.08 64.594.043c.545 0 1.09.068 1.747.11v25.595m-42.414-38.148q8.265-.015 16.53 0c2.12 0 3.38 1.013 3.363 2.62-.016 1.587-1.306 2.59-3.41 2.6l-8.265.005v-.006c-2.755 0-5.5.025-8.265-.01-2.153-.026-3.276-1.015-3.213-2.727.06-1.607 1.175-2.48 3.258-2.483z" stroke="#00a1ed" class="B C D I"/><path d="M260.36 77.088l8.265.01v.006l8.265-.005c2.1-.012 3.393-1.016 3.41-2.6.016-1.607-1.243-2.615-3.363-2.62q-8.265-.023-16.53 0c-2.083 0-3.2.876-3.26 2.49-.064 1.706 1.06 2.695 3.213 2.72z" fill="#fff"/><path d="M88.798 15.712c.712-.994 1.772-.612 2.686-.612q46.047-.027 92.094-.005c8.688.082 15.728 7.073 15.87 15.76q.027 104.928 0 209.857c-.064 8.714-7.14 15.748-15.853 15.763q-79.656.02-159.312 0c-8.76-.15-15.816-7.238-15.923-16q-.017-68.675.007-137.347c0-1.048.18-2.1.274-3.143 1.055 2.98 3.172 4.085 6.306 4.075l64.51-.037c8.037 0 12-3.94 12.006-11.967l.042-69.532c.008-2.736-.632-5.007-2.706-6.812z" fill="#d5dfee"/><path d="M88.798 15.712c2.074 1.8 2.714 4.076 2.706 6.81l-.042 69.532c0 8.027-3.97 11.966-12.006 11.967-21.5 0-43.007-.03-64.51.037-3.134.01-5.25-1.095-6.306-4.075-.663-2.432.443-4.257 2-5.938q21.8-23.38 43.6-46.765l27.354-29.4c2.045-2.222 4.193-3.436 7.193-2.167z" class="H"/><path d="M171.318 2.336l24.6.065c4.967.152 10.742 3.4 11 8.874.14 2.97.88 5.93.883 8.893q.077 116.5-.017 233.01c.01 2.9-.46 5.78-1.393 8.525-1.3 3.713-4.852 5.24-8.62 6.147a12.41 12.41 0 0 1-2.848.123q-89.92.01-179.837.046c-5.32.005-9.7-1.35-11.89-6.218-.678-1.872-.967-3.863-.85-5.85l-.034-56.523q0-92.3-.034-184.6c0-3.995.643-7.686 4.377-10.005 1.9-1.302 4.074-2.114 6.356-2.362 8.242-.273 153.458-.11 161.677-.11" stroke="#00a1ed" class="B C D I"/><path d="M67.397 151.055q-11.633 0-23.265 0a9.9 9.9 0 0 1-1.846-.05c-1.773-.342-2.9-1.424-2.808-3.267 0-.766.3-1.5.857-2.034a2.86 2.86 0 0 1 2.053-.808c.8-.06 1.585-.026 2.378-.026l77.872-.017c1.8 0 3.4.22 4.015 2.2.688 2.24-.957 3.974-3.856 3.987l-55.4.014zm-.097 19.67q-11.763 0-23.526 0c-2.807 0-4.354-1.1-4.356-3.087 0-1.912 1.648-3.107 4.38-3.108l36.518-.008c2.872 0 4.286 1.058 4.28 3.13-.007 2.092-1.347 3.063-4.3 3.067l-12.996.005zm0 17.203q-11.763 0-23.526 0c-2.807 0-4.354-1.1-4.356-3.086 0-1.913 1.648-3.107 4.38-3.1l78.66-.008c2.872 0 4.286 1.058 4.28 3.13-.007 2.092-1.347 3.064-4.3 3.067l-55.137.005zm78.204-164.7c21.02-.866 39.9 17.025 40.762 38.637.9 22.185-16.685 41.44-38.654 42.167a40.42 40.42 0 1 1-2.108-80.8z" class="H"/><path d="M171.15 57.17l-7.44-7.44-22.966 22.964-13.676-13.675-7.44 7.44 13.675 13.675-.144.144 7.442 7.444.144-.147.144.147 7.444-7.444-.147-.144z" fill="#fff"/><use xlink:href="#B" class="H"/><use xlink:href="#B" stroke="#3b79b3" stroke-width="3.152" class="B D"/><use xlink:href="#C" fill="#ffb600" class="E"/><g class="B D F"><g class="G"><use xlink:href="#C" class="E"/><path d="M180.504 198.364h28.514" class="C E"/></g><path d="M180.504 207.137h43.868m-43.868 10.967h19.74m35.094-10.967h15.354" stroke="#fff" class="C"/><path d="M217.8 198.364h30.707m10.97 0h26.32m10.956 0h30.707" class="E G C"/></g><g opacity=".2" class="B D F G"><path d="M189.277 161h10.967v26.493h-10.967z"/><path d="M200.244 174.236h10.967m-32.91 0h10.967" class="C"/></g><circle cx="316.494" cy="143.529" r="10.967" fill="#fff"/><circle cx="301.14" cy="143.529" r="10.967" fill="#ffb600"/><path d="M305.527 143.53c.017 2.963 1.2 5.8 3.3 7.9a11.12 11.12 0 0 0 0-15.792c-2.09 2.097-3.27 4.932-3.3 7.892z" fill="#0e2673" opacity=".2"/><path d="M316.494 132.562c-4.3 4.095-11.055 4.095-15.354 0a10.97 10.97 0 0 0-10.967 10.967 10.97 10.97 0 0 0 10.967 10.967c4.3-4.095 11.055-4.095 15.354 0a10.97 10.97 0 0 0 10.967-10.967 10.97 10.97 0 0 0-10.967-10.967z" class="B D E F G"/><defs ><path id="B" d="M337.11 110.628H173.046c-2.678-.007-5.248 1.054-7.142 2.948s-2.954 4.464-2.947 7.142v107.037a10.06 10.06 0 0 0 10.089 10.089H337.11c2.678.007 5.25-1.053 7.142-2.947s2.955-4.464 2.948-7.142V120.718a10.21 10.21 0 0 0-10.09-10.09z"/><path id="C" d="M205.947 187.397h-22.372a5.34 5.34 0 0 1-5.264-5.264V166.12c.04-2.89 2.373-5.225 5.264-5.264h22.59a5.34 5.34 0 0 1 5.265 5.264v16.012c-.217 2.897-2.58 5.166-5.484 5.264z"/></defs></svg>