<svg xmlns="http://www.w3.org/2000/svg" xmlns:xlink="http://www.w3.org/1999/xlink" width="276" height="271" viewBox="0 0 275.06 270.299"><path d="M120.597 255.8c-.712.994-1.772.612-2.687.613q-46.047.026-92.094 0c-8.688-.08-15.728-7.072-15.87-15.76q-.027-104.93 0-209.858C10 22.083 17.085 15.05 25.8 15.034q79.656-.02 159.312 0c8.763.15 15.82 7.24 15.923 16.005q.017 68.673-.007 137.347c0 1.048-.18 2.095-.274 3.143-1.055-2.98-3.17-4.086-6.3-4.076l-64.51.037c-8.038 0-12 3.94-12.006 11.967L117.895 249c-.013 2.735.627 5.006 2.702 6.81zm-51.62-82.623l23.794-.012c2.9-.013 4.544-1.747 3.855-3.986-.6-1.985-2.214-2.207-4.014-2.2q-23.133.04-46.266.016c-.793 0-1.6-.034-2.38.027-.765-.018-1.505.274-2.053.81s-.856 1.268-.856 2.033c-.092 1.843 1.034 2.925 2.808 3.267.612.074 1.23.1 1.846.048q11.633-.001 23.265-.002zm-.087 19.667q11.763 0 23.526 0c2.957 0 4.3-.974 4.3-3.067.006-2.072-1.408-3.13-4.28-3.13q-23.526-.008-47.053.007c-2.732 0-4.382 1.2-4.38 3.11 0 1.977 1.55 3.084 4.355 3.086q11.77.006 23.53-.005z" fill="#d5dfee"/><path d="M120.597 255.8c-2.075-1.8-2.715-4.076-2.707-6.808l.043-69.533c0-8.027 3.968-11.966 12.006-11.967l64.5-.037c3.134-.01 5.25 1.095 6.3 4.076.663 2.43-.443 4.256-2 5.938q-21.8 23.38-43.6 46.764l-27.354 29.4c-2.04 2.222-4.188 3.436-7.187 2.167zm-51.62-82.333q-11.633 0-23.265 0c-.615.042-1.234.026-1.846-.048-1.774-.343-2.9-1.425-2.808-3.267a2.84 2.84 0 0 1 2.909-2.842c.8-.06 1.586-.027 2.38-.027q23.133 0 46.266-.016c1.8 0 3.4.22 4.014 2.2.7 2.24-.956 3.974-3.855 3.987l-23.794.013zm0-19.372q-11.633 0-23.265 0c-.615.042-1.234.026-1.846-.048-1.774-.342-2.9-1.425-2.808-3.267a2.84 2.84 0 0 1 2.909-2.842c.8-.06 1.586-.027 2.38-.027q23.133 0 46.266-.016c1.8 0 3.4.22 4.014 2.2.7 2.24-.956 3.974-3.855 3.987l-23.794.013zm-.087 38.752q-11.763 0-23.527 0c-2.806 0-4.353-1.1-4.355-3.086 0-1.913 1.648-3.107 4.38-3.1q23.526-.015 47.053-.007c2.872 0 4.286 1.058 4.28 3.13-.007 2.093-1.348 3.064-4.3 3.067q-11.767.013-23.53.005z" fill="#00a1ed"/><path d="M171.317 2.336l24.6.065c4.967.152 10.742 3.4 11 8.874.14 2.97.882 5.93.883 8.893q.076 116.5-.016 233.01a26.26 26.26 0 0 1-1.394 8.525c-1.3 3.713-4.852 5.24-8.62 6.147-.942.15-1.898.19-2.85.123q-89.92.01-179.837.046c-5.32.005-9.7-1.35-11.9-6.218a14.62 14.62 0 0 1-.85-5.851l-.033-56.523q0-92.3-.034-184.6c0-3.995.643-7.686 4.376-10.005 1.9-1.302 4.075-2.114 6.357-2.362 8.24-.273 163.992-.11 172.21-.11" fill="none" stroke="#00a1ed" stroke-linecap="round" stroke-linejoin="round" stroke-width="4.562"/><path d="M274.983 38.933q.036 40.48.07 80.957.02 52.386 0 104.773l-.142 3.348-39.424.08-.2-2.495q-.013-92.285 0-184.568c0-.742.093-1.484.142-2.226z" fill="#d5dfee"/><g fill="#00a1ed"><path d="M274.983 38.933l-39.562-.13c.194-3.814-.237-7.644.346-11.45 1.206-7.87 5.916-11.946 13.84-11.94h11.2c8.585.013 13.854 5.058 14.2 13.73.125 3.263-.004 6.526-.016 9.8zm-39.5 189.16l39.424-.08c-1.658 4.374-4.312 8.22-6.55 12.285L255.2 263.73l-14.293-25.568-5.433-10.07zM69.598 76.607q-11.633 0-23.265 0a9.87 9.87 0 0 1-1.847-.048c-1.773-.342-2.9-1.425-2.807-3.267a2.84 2.84 0 0 1 2.909-2.842c.8-.06 1.586-.027 2.38-.027l77.87-.016c1.8 0 3.4.22 4.015 2.2.688 2.24-.957 3.973-3.856 3.986l-55.4.014zm42.054 19.38H45.984c-2.807 0-4.353-1.1-4.355-3.087 0-1.913 1.647-3.107 4.38-3.1l78.66-.007c2.87 0 4.286 1.058 4.28 3.13-.007 2.092-1.347 3.063-4.3 3.066l-12.995.006z"/><use xlink:href="#B"/><use xlink:href="#B" y="19.37"/></g><defs ><path id="B" d="M69.51 115.36q-11.763 0-23.527 0c-2.807 0-4.353-1.1-4.355-3.087 0-1.913 1.647-3.107 4.38-3.11l78.66-.007c2.87 0 4.286 1.058 4.28 3.13-.007 2.093-1.347 3.064-4.3 3.067l-55.136.006z"/></defs></svg>